<svg width="260" height="160" fill="none" xmlns="http://www.w3.org/2000/svg"><rect width="260" height="160" rx="5" fill="#F9F9F9"/><path d="M201.461 66.2508c.373-.7006.715-1.6005 1.223-2.228.005-.0065.01.0423.01-.0101" stroke="#0B0204" stroke-width=".205545" stroke-linecap="round"/><path d="M207.616 53.7812c5.146-.2363 10.032.2363 14.902 1.418.245 0 .25-.2364.005-.2364-4.869-1.1816-9.755-1.6542-14.907-1.1816-.245 0-.24-.2363 0 0Z" fill="#0B0204"/><path d="M222.033 105.005s1.028-35.1071 1.028-45.5286c.727-8.2402-15.222-3.2323-15.269-5.332-.048-2.0997-1.758 12.2633-2.424 11.6334 3.15 0-13.726-.21-15.027 0-1.3.2099-1.037 1.0185-1.211 2.9083-.175 1.8897-.372 12.1718-1.455 12.3818-1.082.21-11.747-.6299-12.602 0-.856.6299-1.94 25.8261-1.94 25.8261s-5.887-.63-6.738.21c-.851.84-1.139 7.349-1.101 9.029.038 1.68 1.14 2.31 3.982 2.94 3.055.42 56.42.492 57.904-1.188 1.485-1.679.162-9.097-.727-9.937-.889-.839-5.663-.214-4.42-2.943Z" fill="#fff"/><path d="M194.65 70.174c.922 7.3557-.763 14.5013-1.147 21.857-.374 6.9354 1.21 13.871-1.335 20.596-.227.42.425.42.43.21 2.545-6.725.961-13.6604 1.336-20.5958.384-7.3557 2.073-14.7115 1.151-22.0672.227-.4203-.425-.4203-.435 0Z" fill="#0B0204"/><path d="M194.655 69.9641c2.17.2102 4.336.6305 6.289.8407.435 0 .444-.4203.227-.4203-2.171-.2102-4.336-.6305-6.289-.8407-.435 0-.662.4203-.227.4203ZM201.375 71.0145c-2.313 6.0948-1.827 13.4505-2.192 19.9656-.384 7.3557-.55 14.7119-.499 22.0669-.009.421.643.421.653 0-.061-6.935.091-13.6604.466-20.5958.156-6.9354-.316-14.9216 2.007-21.4367.222-.2101-.426-.4203-.435 0ZM193.517 80.2608c.316 7.881.415 15.7619.296 23.6432-.009.63.643.63.653 0 .336-7.8813.237-15.7622-.296-23.6432-.213-.3152-.866-.3152-.653 0Z" fill="#0B0204"/><path d="M195.515 70.3847c-1.13 1.8914-1.391 3.7829-1.438 5.8845-.091 3.9931-.181 7.9862-.489 11.9794-.175 7.776-.564 15.3414-.74 23.1184-.009.42.643.42.653 0 .152-6.726.526-13.6611.678-20.3863.076-3.3626.147-6.5151.441-9.8777.076-3.3626-.269-7.3557 1.543-10.5082.005-.2101-.426-.4203-.648-.2101Z" fill="#0B0204"/><path d="M192.659 108.317c.208.631.421.946.411 1.577.213.315.653 0 .44-.316-.208-.63-.421-.945-.411-1.576-.208-.63-.653 0-.44.315ZM200.244 72.9063c-.663 10.0878-1.104 19.9655-1.545 29.8427-.01.421.426.421.653 0 .44-9.8772.881-19.7549 1.327-29.8427.222-.2102-.43-.2102-.435 0ZM178.442 87.0481c.269 7.349.108 14.4879-.494 21.8369-.014.63 1.074.63 1.088 0 .601-7.349.763-14.4879.494-21.8369-.203-.6299-1.291-.6299-1.088 0Z" fill="#0B0204"/><path d="M178.877 87.0482c1.731.4199 3.684.6299 5.646.4199.653 0 .677-1.0498.024-1.0498-1.745.2099-3.48 0-5.211-.42-.865-.21-1.107.8399-.459 1.0499Z" fill="#0B0204"/><path d="M184.558 85.9981c-.393 7.7689-.569 15.5379-.745 23.3069-.014.63 1.073.63 1.088 0-.042-7.769.134-15.538.745-23.3069.014-.6299-1.074-.6299-1.088 0ZM172.483 113.194c17.151 1.469 34.331 1.679 51.529 1.049.653 0 .677-1.049.024-1.049-17.203.839-34.378.419-51.529-1.05-.653 0-.677 1.05-.024 1.05Z" fill="#0B0204"/><path d="M170.544 112.354c1.953.21 3.688.42 5.641.63.009-.42.014-.63-.194-1.05-2.189.63-4.147.63-6.308 0-.648-.21-.889.84-.241 1.05 2.161.63 4.553.63 6.743 0 .657-.21.459-1.05-.194-1.05-1.953-.21-3.688-.42-5.641-.63-.43-.21-.454.84.194 1.05ZM192.106 67.2321c-1.061 8.4065-1.468 16.813-1.441 25.2196-.004.2101.213.2101.218 0-.032-8.1964.375-16.6029 1.223-25.2196 0 0 .217 0 0 0ZM175.383 90.7266c-.355 6.0891-.498 12.3884-.418 18.4774-.005.21.213.21.218 0-.08-6.089.058-12.1783.2-18.4774 0 0 .218 0 0 0ZM192.749 67.6519c3.906.4203 7.816.6305 11.732.6305.217 0 .222-.2102.004-.2102-3.915 0-7.826-.2102-11.736-.4203-.218 0-.213-.2102 0 0Z" fill="#0B0204"/><path d="M203.834 68.0722c-1.619 13.8708-2.585 27.7416-3.116 41.6128-.005.21.213.21.217 0 .314-13.8712 1.498-27.742 2.899-41.6128.005-.2102.222-.2102 0 0Z" fill="#0B0204"/><path d="M200.732 106.741c-.024 1.576.605 3.152 1.683 3.782 1.508.946 3.04.316 4.573-.315.217 0 .004-.315.004-.315-2.184.63-6.332 1.576-6.26-3.152.004-.316.222-.316 0 0ZM208.513 59.0208c1.195 4.8293-.238 10.4985-.782 15.3278-.55 5.0393-1.094 9.8687-1.643 14.908-.005.2099.213.2099.218 0 .558-5.4593 1.112-10.7085 1.671-16.1678.534-4.4094 1.741-9.6587.536-14.068ZM177.021 82.6384c3.707-.4199 7.4-.21 11.084.4199.217 0 .222-.2099.004-.2099-3.683-.6299-7.159-.8399-11.088-.21 0 0 .004-.21 0 0Z" fill="#0B0204"/><path d="M188.332 82.6386c1.327 8.6088-1.26 17.2176-.15 25.8264-.005.21.218 0 .218 0-1.111-8.6088 1.477-17.2176-.068-25.8264.004-.21.222-.21 0 0ZM174.753 108.994c-2.166-.42-4.563-.21-6.753.42l-.004.21c2.189-.63 4.369-.84 6.757-.63 0 0-.005.21 0 0Z" fill="#0B0204"/><path d="M167.565 109.414c-.927 2.519-1.661 6.089 1.351 7.559 1.722.84 4.119.63 5.859.63 3.476.21 6.739.21 10.219.21 13.482.21 27.2-.42 40.715-1.68.217 0 .222-.21.005-.21-10.248 1.05-20.268 1.68-30.492 1.68-4.785 0-9.788 0-14.569-.21-2.61 0-5.433-.21-8.039-.42-2.605-.21-5.22 0-5.56-4.2-.199-.84.487-2.309.511-3.359.222-.21.222-.21 0 0Z" fill="#0B0204"/><path d="M219.313 110.464c.875-.21 1.967-.42 2.837-.42h1.088c.87 0 1.305 0 1.943.63 1.069.84 1.272 1.47 1.466 2.52.189 1.26-.279 2.729-1.811 3.149-.218 0-.005.21-.005.21 2.837-.42 2.261-3.779 1.429-5.459-.416-.84-.847-1.05-1.495-1.26-1.735-.21-3.697 0-5.452.63-.217 0-.213-.21 0 0ZM210.427 59.8292c.653 0 .677-1.0499.024-1.0499-.652 0-.676 1.0499-.024 1.0499Z" fill="#0B0204"/><path d="M210.669 58.7797c-1 15.3279-1.999 30.6558-2.564 45.9833-.014.63 1.074.63 1.088 0 .782-15.3275 1.564-30.6554 2.563-45.9833.015-.6299-1.073-.6299-1.087 0ZM211.346 57.7294c2.596.6299 4.979 1.0499 7.358 1.6798.648.21 1.107-.8399.241-1.0499-2.378-.6299-4.762-1.0498-7.14-1.6797-.87 0-1.111 1.0498-.459 1.0498Z" fill="#0B0204"/><path d="M218.486 59.4091c-1.222 15.5378-2.661 31.0757-3.883 46.6139-.014.63 1.073.63 1.087 0 1.222-15.5382 2.661-31.0761 3.883-46.6139.019-.8399-1.068-.8399-1.087 0Z" fill="#0B0204"/><path d="M214.298 101.38c-.077 1.688-.191 3.582-.483 5.237-.109.62.966.785 1.075.164.077-1.687.191-3.582.483-5.236.109-.621-.966-.785-1.075-.165ZM207.921 55.2102c-.611 7.7689-1.004 15.5379-.749 23.5168-.005.2099.212.2099.217 0-.254-7.9789.139-15.7479.532-23.5168.005-.21.223-.21 0 0ZM207.631 77.6768c-.422 9.0287-.843 18.0575-1.048 27.0862-.004.21.213.21.218 0 .204-9.0287.626-18.0575.83-27.0862.005-.21.005-.21 0 0ZM220.743 84.6062c-.369 6.719-.744 13.6481-1.113 20.3668h.217c2.195-.84.984-5.0389.805-6.7187-.524-5.6692 1.779-11.3384 1.037-17.0077.005-.2099-.217 0-.217 0 .562 3.9895-.171 7.559-.697 11.5484-.26 1.8898-.298 3.5696-.341 5.4593-.033 1.4698.582 3.1497.118 4.4097-.232.63-.028 1.26-.435 0-.397-1.68.313-4.1997.355-6.0895-.132-3.7795.181-7.9789.271-11.9683.005-.21.005-.21 0 0Z" fill="#0B0204"/><path d="M171.387 71.9522c8.259-4.8955 17.072-8.9613 24.087-15.5628 1.177-1.1078 2.388-2.2389 3.662-3.23 1.408-1.095.55-.213-.155.6689-1.303 1.629-3.512 2.5417-5.049 3.9559-3.242 2.9826-6.639 5.5796-10.44 7.7895-3.507 2.0389-7.341 4.497-10.995 6.1583-.196.0886 2.945-1.2645 3.735-1.8026 2.343-1.5961 4.768-3.3016 7.227-4.6982 3.625-2.0584 7.115-4.6628 10.277-7.3736 1.287-1.1033 2.542-2.268 3.932-3.23.308-.2131 2.369-2.0092 1.142-1.2887-1.868 1.0961-3.808 1.2792-5.694 2.1696-1.338.6319 3.133-1.454 3.785-1.7292.449-.1893 1.545-.2792 1.835-.6851.534-.7472-1.752.5301-2.602.8727-1.07.4321-5.305 2.1783-1.762.8728 1.625-.5984 3.16-1.4624 4.837-1.8352.435-.0967-.91 4.1877-1.101 4.9021-.384 1.4411.67-2.9887 1.542-4.2088.661-.9261-.325 2.2435-.653 3.3278-.429 1.4215-.424 1.3087 0-.0897.248-.817.459-2.7027.946-3.385.517-.7238-.274 1.748-.505 2.602-1.075 3.9632.476-1.7248.791-2.8059.47-1.613-1.435 3.135-1.534 4.8042-.069 1.1791.708-2.2669 1.028-3.4094.053-.1893.798-2.0893.555-2.2838-.527-.4212-3.748 1.5858-4.372 1.7618-1.218.3436-2.313.995-3.491 1.4029-1.336.4623 2.731-.7165 4.078-1.1419 1.466-.4629 2.887-1.2589 2.431.6851-.173.7365-1.228 4.6415-.457 1.7782.217-.8063.779-3.2436.636-2.4225-.183 1.0526-.619 2.0753-.897 3.1076-.653 2.4284 1.195-2.8579 1.485-3.4584.461-.9583-.956 2.0823-.702 3.0996" stroke="#0B0204" stroke-width=".440656" stroke-linecap="round"/><path d="M211.093 57.0885c-.062.2797-.498 2.6423-.564.9606-.034-.8747-.039.7115-.047.8352-.08 1.381-.14 2.7585-.14 4.1399 0 .6843.016.4792-.021-.0992-.099-1.5441-.087-3.0968-.073-4.6462.01-1.1962.009.0226-.042.522-.152 1.4704-.103 2.9449-.152 4.4165-.017.5389-.131 1.3012-.067.2506.095-1.5804.169-3.1603.281-4.7402.014-.1913.041-1.6392.408-1.6392.855 0 .727.5476.605 1.2425-.1.5689-.188 1.1152-.188 1.6914 0 .708.145-1.4121.193-2.1195.094-1.3603-.11 1.5465-.146 1.8428-.095.7782-.076.2374-.12-.2349-.04-.4244-.099-1.701-.115-1.2738-.061 1.7129-.275 3.4352-.37 5.1474-.05.8966-.179 1.8106-.193 2.7042-.01.5809-.094 3.1182-.094 1.1381v-8.4572c0-2.0265.094 4.0501.094 6.0766 0 2.7879-.282 5.5764-.282 8.358 0 6.1434-.861 12.3558-1.123 18.5066-.122 2.8774.16 5.7725-.146 8.6453-.204 1.919.174 3.986-.214 5.878-.112.548-.021 2.227-.021 1.671v-4.323c0-1.248.192 2.592-.329 3.738-.071.156-.215.633-.235.793-.133 1.07.47-4.274.47-3.2 0 1.111-.126 2.356-.752 3.294M194.179 70.8079c-.266 2.7593-.786 5.496-.825 8.2588-.004.289-.017.5786 0 .8666.028.4782.104-.9563.136-1.4356.136-2.0267.247-4.0545.365-6.0819.023-.3811.045-.7622.068-1.1432.042-.6935.025-.3828.005.1148-.071 1.7661-.136 3.5324-.156 5.2988-.01.8695-.036 3.4694.078 2.605.271-2.0474.121-4.2089.136-6.2646.004-.6387-.085-2.5461.005-1.9159.114.7998.034 1.8185.052 2.5998.028 1.1749-.001 2.3899.115 3.5604.092.9277.021-1.8691.021-2.8034 0-.1585-.054-5.658.052-3.2889.048 1.0766.085 2.1538.115 3.2315.038 1.3572-.071-2.0174-.073-2.0778-.072-2.0592-.038-1.6993.167-.0626.154 1.2362-.039-1.4768-.052-1.7645-.021-.4406.226 1.6384.313 2.0255.091.409.01-.8428-.005-1.2634-.021-.5984-.062-1.4866 0-.3132.115 2.1958.126-1.0178-.517-.9501-.645.0678-.342 1.1935-.104.3028.402-1.5109.628 3.0431.71 4.594.07 1.3494.093 2.7113-.053 4.0615-.092.8598-.387 3.4352-.344.9188.035-2.0503.351-4.3499-.188-6.3481-.262-.9723-.44 2.4054-.449 2.6207-.125 2.8884-.136 5.7733-.136 8.6608 0 3.9699.126 7.9344.094 11.9079-.024 3.1098-.282 6.2146-.282 9.3286 0 .669-.054 1.328-.089 1.995-.059 1.165.082-1.211.089-1.342" stroke="#0B0204" stroke-width=".484628" stroke-linecap="round"/><path d="M200.851 70.7141c-.179 1.0144-.58 4.076-.418 3.0592.135-.8449.081-1.7383.115-2.5894.053-1.3399.013 2.8026.031 2.5319.071-1.0424.256-4.1247.46-3.1061.388 1.9427-.111 4.6607-.423 6.6352-.365 2.3118-.3 4.7633-.402 7.0946-.216 4.935-.642 9.9465-.679 14.8783-.021 2.8522-.632 8.0392 1.577 10.2842.682.693 1.61 1.177 2.6 1.237 1.826.111 2.615-.948 3.508-2.417.525-.864.692-1.855 1.127-2.756.336-.694-.236 2.158-.459 2.615-.297.61-1.755 2.073-1.274 1.593.469-.469.941-.944 1.337-1.478.412-.556-.856.8-.971.945-.884 1.115 1.939-1.706 1.159-1.879-.12-.027-.16 1.179-.115 1.159.206-.096.391-1.582.209-.809-.066.278.139 1.125.135.84-.007-.504-.091.825-.094.846-.084.592-.3.472-.793.49-.277.011-1.089.233-.815.188.374-.061 1.447-.45 1.076-.375-.394.078-.984.175-1.321.407-.317.218.746-.36.914-.705.211-.437.419-1.885.266-1.425-.115.345-.172.713-.172 1.075M184.124 110.087c.661.052 2.636.219 1.989.083-.55-.116-.99-.448-1.571-.459-.606-.012 1.588.428 1.994.37.871-.124-1.754.006-2.631.006-1.216 0 2.423.188 3.639.188.667 0-1.322-.213-1.989-.188-.269.01-1.149.329-1.149-.11 0-.367.201-2.689-.052-1.712-.109.42-.23.822-.23 1.258 0 .175.013-.461-.073-.146-.227.834.05.616.736.616.822 0 1.615.188 2.438.188h2.725c1.312 0-2.624.083-3.936.083-1.431 0 1.911.001 2.255-.01.593-.02 1.183-.073 1.775-.073M214.962 103.92c.022 1.821.038 3.667.228 5.476.117 1.104.02-2.227-.027-3.337-.014-.339-.073-2.802-.035-1.244.038 1.603.126 3.251.38 4.832.252 1.57.017-3.196-.081-4.787-.093-1.531-.069-.113-.058.626.023 1.424.318 5.679.318 4.254 0-1.192.129-4.752-.085-3.574-.206 1.134-.307 2.339-.233 3.485.022.343 1.581.647 1.441.586-.547-.239-1.512-.454-.416-.134.135.039-.578-.086-.385 0 .188.083.511.098.725.098M219.955 101.987c-.097 1.809-.242 3.625-.242 5.436V105.025v2.018c0 .902-.199 1.62.582 2.111 1.426.899 3.344.294 4.773 1.087 1.456.809 1.701 2.959 1.485 4.47-.136.953-2.572 1.694-2.572 1.61M222.29 56.6499c-.423 12.9122-.496 25.736-1.772 38.4927" stroke="#0B0204" stroke-width=".484628" stroke-linecap="round"/><path d="M195.313 67.4406c2.52.4146 4.577.5969 7.006.7247 1.181.0622 1.127 1.1774 1.127 2.1116 0 2.0306-.247 4.2462-.545 6.2634-.394 2.6537-.362 5.3417-.703 7.9992-.736 5.7416-.611 11.6057-1.091 17.3715-.142 1.696-.157 3.367-.157 5.074 0 1.093-.267 2.311 0 3.377M175.738 83.3281c-.152 3.5356-.48 7.0852-.48 10.6169v.9413c0 .3549.051-.7091.084-1.0632.225-2.4432.35-5.0966.187-7.5492-.064-.9537-.528-3.1566.59-3.5631.981-.3565 2.01-.2744 3.049-.2744 1.91 0 3.81.2058 5.728.2058.541 0 1.788.0444 2.263.3086.234.13.84.0763.995.3468.222.3889.343.8867.343 1.3338M175.053 98.1445c-.023 3.4885-.069 13.9525-.069 10.4645 0-.077-.068-.533-.068-.271 0 .355.069.555-.343.576-.375.019-.725.305-1.098.339-.607.055-1.212.072-1.821.072h-3.034 1.052c.716 0 1.685.015 2.378-.19 1.066-.316 2.533.405 2.782-.96.218-1.199.271.113 0 .602-.217.39-1.662.548-1.22.548M190.761 81.2018c-.059 9.1029-.138 18.2064-.138 27.3082v-1.448M207.223 63.23c-.502 8.5636-.643 17.1027-1.093 25.6505-.239 4.5255-.416 9.0527-.416 13.5855" stroke="#0B0204" stroke-width=".484628" stroke-linecap="round"/><path d="M196.294 72.1775c-.305.6394-.613 1.2769-.913 1.9182-.241.5143-.987 1.1099-.667 1.5662.195.2785.388-.5793.532-.8943.126-.2738.26-.5441.38-.8201.073-.1669.78-1.3512.482-.8711-.655 1.0559-1.591 2.4305-1.983 3.6048M196.293 74.9298c-.333.6351-1.186 2.2634-.217.7831.108-.1656.196-.419.338-.5607.484-.4843-.731 1.1569-1.084 1.7422-.444.7345-1.098 1.5516-1.372 2.3723M195.877 78.0991c-2.205 4.0638 1.373-2.2383-.464.8803-.374.6362-1.037 2.6862-1.037 1.9554M180.781 87.9405c-.427.6096-1.699 2.4427-1.298 1.8163.22-.3427.44-.6923.695-1.0101.295-.3669 1.269-1.3892.936-1.0564-.689.6889-1.219 1.454-1.751 2.2518M179.279 92.1108c1.775-2.5771-.849 1.1578.186-.0834.489-.5875 1.965-2.3024 1.343-1.8581-.409.2926-1.264 2.2751-1.529 2.2751M179.196 94.6129c.58-.5801 2.309-2.3267 1.78-1.7005-.228.2683-.482.5005-.695.783-.13.1707-1.247 1.6238-.733.8989.265-.3721 1.223-1.5408 1.214-1.529-.416.5761-.999 1.0806-1.315 1.7144M210.889 61.1684c.467-.682 2.383-3.2491.76-1.2557-.138.1697-1.172 1.5491-.482.6857.595-.743 1.261-1.423 1.9-2.1267.669-.7362.1-.1023-.195.2502-.522.6263-.998 1.292-1.51 1.9275-.106.131-.521.6459-.204.1993.452-.6369 1.309-2.347 2.067-2.5994M210.722 64.2543c6.785-9.0469-3.435 4.2531 2.845-3.628 1.36-1.7063-1.195 1.4862-1.427 1.7747-.471.5838-1.888 2.3235-1.358 1.7931.289-.2891.615-.5291.941-.7738M210.639 67.0066c.741-.7999 1.473-1.6048 2.182-2.4325.358-.417 1.061-1.8032 1.061-1.2603 0 .4972-1.15 1.3746-1.45 1.7375-.729.882-2.369 3.0256-.727.7645.219-.3018 2.813-3.3405 1.816-2.1082-.66.8164-1.419 1.5419-2.094 2.3445-.191.2261-.538.9963-.538.7043M210.555 70.2593c.878-1.0532 3.364-4.3265 2.581-3.2018-.489.7034-1.038 1.354-1.57 2.0249-.064.0796-.945 1.1029-.621.7228.679-.7971 1.341-1.5862 1.992-2.4094 1.611-2.0362-.213.3815-.755 1.0657-.374.4719-1.452 1.9121-1.154 1.39.493-.8627 1.3-1.6124 2.029-2.2611M210.222 73.8456c.778-.9797 1.562-1.9518 2.372-2.9052.226-.2654-.496.4907-.723.7553-.116.1354-1.389 1.6547-.875 1.0379.536-.6439 1.941-2.689 1.631-1.9136-.204.5085-.948 1.0978-1.321 1.5244" stroke="#0B0204" stroke-width=".484628" stroke-linecap="round"/><path d="M197.494 70.584c-2.791 4.8392.237.8372.237-.3554M199.152 70.5845c-1.013 1.6268-2.293 3.2947-3.08 5.0643-.072.1635-.478.565-.118.385M200.515 71.3545c-1.697 2.4859-3.451 4.9579-5.035 7.5093-.089.144-.192.2573-.25.4147-.07.1895-.342.4244-.342.6054M200.337 74.2567c-1.528 2.1088-3.395 4.1952-4.62 6.5156-.134.2543-.322.5222-.428.7832-.063.1548-.669 1.0813-.697 1.053M200.1 76.8628c-1.717 2.3976-3.372 4.7928-4.975 7.2395-.266.4064-.454.8885-.678 1.3163-.142.2708-.544.8969-.033.329M199.745 79.7657c-1.765 2.7001-3.524 5.4042-5.272 8.1149M194.154 90.6388c.948-1.3819 1.893-2.766 2.854-4.1396.166-.2376.168-.1458.168-.2719M199.532 85.5627c-.865 1.2438-1.69 2.5402-2.619 3.7401-.033.0426-.04.0173-.04.0672M199.326 89.3188c-1.284 1.7053-2.922 3.4787-3.95 5.3552M194.31 98.7228l2.659-3.1425M193.777 105.12l2.659-3.143M194.093 101.154c1.65-1.8551 3.302-3.7085 4.956-5.5596M193.851 103.027l5.137-5.4384M215.245 58.4891l-1.209 1.5108M214.097 62.8404l3.263-3.8072M213.855 66.4056l4.411-5.0763M212.767 70.515l4.351-4.895M210.471 76.2561c2.176-2.5582 4.703-5.0741 6.614-7.8528.1-.1455.118-.1358.154-.2451M210.289 78.8547l6.285-7.1914M217.118 73.839l-5.802 6.2245M212.451 89.7763l3.783-4.3237M209.859 84.6546l4.836-5.5688M209.785 87.5855l3.884-4.6895M209.419 90.5897c1.058-1.3364 2.048-2.8545 3.261-4.0667.107-.1072.11-.0969.11-.1832M209.272 96.1585l3.737-4.8361M209.419 98.9428l2.052-2.5646M208.613 102.68l2.565-3.5174M181.868 91.6156c.731-.9403 2.788-3.8497 2.198-2.817-.075.1314-.178.2525-.22.399-.033.1186-.236.4234-.219.4396M181.428 89.5642l1.612-2.2715M179.304 97.6973l4.396-5.1292M179.377 100.335l2.711-3.4438M178.937 103.193l2.052-2.272" stroke="#0B0204" stroke-width=".242314" stroke-linecap="round"/><rect x="56.8699" y="109.995" width="48.4465" height="25.0047" rx="5.2093" fill="#C7ECC1"/><rect x="23" y="82.386" width="95.3302" height="25.0047" rx="5.2093" fill="#FFE3B1"/><rect x="23" y="25.6046" width="66.6791" height="25.0047" rx="5.2093" fill="#D6DFFF"/><path d="M38.2019 30.9101v2.1191h-3.4882V44h-2.6254V33.0292h-3.4882v-2.1191h9.6018Zm4.5411 4.3133c.3376-.5501.7752-.9815 1.3128-1.294.5501-.3126 1.1752-.4689 1.8753-.4689v2.7568h-.6939c-.8251 0-1.4502.1938-1.8753.5814-.4126.3875-.6189 1.0627-.6189 2.0253V44h-2.6255V33.6106h2.6255v1.6128Zm14.8959-1.6128-6.4325 15.3028h-2.7943l2.2505-5.1759-4.1633-10.1269h2.9443l2.6817 7.2576 2.7193-7.2576h2.7943Zm5.2087 5.1572c0-1.0502.2063-1.9816.6189-2.7943.4251-.8126.9939-1.4378 1.7066-1.8753.7251-.4376 1.5315-.6564 2.4192-.6564.7751 0 1.4502.1563 2.0254.4688.5876.3126 1.0564.7064 1.4065 1.1815v-1.4815h2.6442V44h-2.6442v-1.519c-.3376.4876-.8064.8939-1.4065 1.2189-.5877.3126-1.269.4689-2.0442.4689-.8751 0-1.6753-.2251-2.4004-.6751-.7127-.4501-1.2815-1.0815-1.7066-1.8941-.4126-.8252-.6189-1.7691-.6189-2.8318Zm8.1766.0375c0-.6376-.1251-1.1815-.3751-1.6316-.2501-.4626-.5876-.8126-1.0127-1.0502-.4251-.25-.8814-.375-1.369-.375-.4876 0-.9377.1187-1.3502.3563-.4126.2375-.7502.5876-1.0127 1.0502-.2501.4501-.3751.9877-.3751 1.6128s.125 1.1752.3751 1.6503c.2625.4626.6001.8189 1.0127 1.0689.425.2501.8751.3751 1.3502.3751.4876 0 .9439-.1188 1.369-.3563.4251-.2501.7626-.6001 1.0127-1.0502.25-.4626.3751-1.0127.3751-1.6503Zm7.8339-8.6829V44h-2.6254V30.1224h2.6254Zm5.2195 0V44h-2.6255V30.1224h2.6255ZM46.791 58.9101 43.1341 72h-3.0944l-2.4567-9.3205L35.0138 72l-3.0756.0188-3.5256-13.1087h2.813l2.3067 10.1644 2.663-10.1644h2.9255l2.513 10.1081 2.3254-10.1081h2.8318Zm6.3277 13.2587c-1.0002 0-1.9004-.2188-2.7005-.6564-.8002-.4501-1.4315-1.0814-1.8941-1.8941-.4501-.8126-.6751-1.7503-.6751-2.813 0-1.0627.2312-2.0004.6938-2.813.4751-.8127 1.119-1.4378 1.9316-1.8754.8127-.4501 1.7191-.6751 2.7193-.6751s1.9066.225 2.7193.6751c.8126.4376 1.4502 1.0627 1.9128 1.8754.4751.8126.7126 1.7503.7126 2.813 0 1.0627-.2437 2.0004-.7313 2.813-.4751.8127-1.1252 1.444-1.9504 1.8941-.8127.4376-1.7253.6564-2.738.6564Zm0-2.2879c.4751 0 .9189-.1126 1.3315-.3376.4251-.2376.7626-.5876 1.0127-1.0502.25-.4626.375-1.0252.375-1.6878 0-.9877-.2625-1.7441-.7876-2.2692-.5126-.5376-1.144-.8064-1.8941-.8064s-1.3815.2688-1.8941.8064c-.5001.5251-.7501 1.2815-.7501 2.2692s.2437 1.7503.7313 2.2879c.5001.5251 1.1252.7877 1.8754.7877Zm11.959 2.2879c-1.0002 0-1.9004-.2188-2.7005-.6564-.8002-.4501-1.4315-1.0814-1.8941-1.8941-.4501-.8126-.6751-1.7503-.6751-2.813 0-1.0627.2313-2.0004.6938-2.813.4751-.8127 1.119-1.4378 1.9317-1.8754.8126-.4501 1.719-.6751 2.7192-.6751 1.0002 0 1.9066.225 2.7193.6751.8126.4376 1.4502 1.0627 1.9128 1.8754.4751.8126.7127 1.7503.7127 2.813 0 1.0627-.2438 2.0004-.7314 2.813-.4751.8127-1.1252 1.444-1.9504 1.8941-.8126.4376-1.7253.6564-2.738.6564Zm0-2.2879c.4751 0 .9189-.1126 1.3315-.3376.4251-.2376.7626-.5876 1.0127-1.0502.25-.4626.3751-1.0252.3751-1.6878 0-.9877-.2626-1.7441-.7877-2.2692-.5126-.5376-1.144-.8064-1.8941-.8064s-1.3815.2688-1.8941.8064c-.5001.5251-.7501 1.2815-.7501 2.2692s.2438 1.7503.7313 2.2879c.5001.5251 1.1253.7877 1.8754.7877Zm6.6705-3.1131c0-1.0502.2063-1.9816.6189-2.7943.4251-.8126 1.0002-1.4378 1.7253-1.8753.7252-.4376 1.5316-.6564 2.4192-.6564.6751 0 1.319.15 1.9316.4501.6126.2875 1.1002.6751 1.4628 1.1627v-4.9322h2.663V72h-2.663v-1.5378c-.3251.5126-.7814.9252-1.369 1.2377-.5876.3126-1.269.4689-2.0441.4689-.8752 0-1.6753-.2251-2.4005-.6751-.7251-.4501-1.3002-1.0815-1.7253-1.8941-.4126-.8252-.6189-1.7691-.6189-2.8318Zm8.1766.0375c0-.6376-.1251-1.1815-.3751-1.6316-.2501-.4626-.5876-.8126-1.0127-1.0502-.4251-.25-.8814-.375-1.369-.375-.4876 0-.9377.1187-1.3503.3563-.4125.2375-.7501.5876-1.0127 1.0502-.25.4501-.375.9877-.375 1.6128s.125 1.1752.375 1.6503c.2626.4626.6002.8189 1.0127 1.0689.4251.2501.8752.3751 1.3503.3751.4876 0 .9439-.1188 1.369-.3563.4251-.2501.7626-.6001 1.0127-1.0502.25-.4626.3751-1.0127.3751-1.6503Zm7.8339-3.6945c.3376-.475.8002-.8689 1.3878-1.1814.6001-.3251 1.2815-.4876 2.0441-.4876.8877 0 1.6878.2188 2.4005.6564.7251.4375 1.2939 1.0627 1.7065 1.8753.4251.8002.6376 1.7316.6376 2.7943 0 1.0627-.2125 2.0066-.6376 2.8318-.4126.8126-.9814 1.444-1.7065 1.8941-.7127.45-1.5128.6751-2.4005.6751-.7626 0-1.4378-.1563-2.0254-.4689-.5751-.3125-1.0439-.7063-1.4065-1.1814v6.4324h-2.6255V61.6106h2.6255v1.5002Zm5.4948 3.657c0-.6251-.1313-1.1627-.3938-1.6128-.2501-.4626-.5876-.8127-1.0127-1.0502-.4126-.2376-.8627-.3563-1.3503-.3563-.4751 0-.9251.125-1.3502.375-.4126.2376-.7502.5876-1.0127 1.0502-.2501.4626-.3751 1.0065-.3751 1.6316s.125 1.169.3751 1.6315c.2625.4626.6001.8189 1.0127 1.069.4251.2375.8751.3563 1.3502.3563.4876 0 .9377-.125 1.3503-.3751.4251-.25.7626-.6063 1.0127-1.0689.2625-.4626.3938-1.0127.3938-1.6503Zm14.2475-.1876c0 .3751-.025.7127-.075 1.0127h-7.595c.0625.7502.325 1.3378.788 1.7629.462.425 1.031.6376 1.706.6376.975 0 1.669-.4189 2.082-1.2565h2.832c-.3 1.0002-.876 1.8253-1.726 2.4755-.85.6376-1.894.9564-3.132.9564-1 0-1.9-.2188-2.7-.6564-.7877-.4501-1.4065-1.0814-1.8566-1.8941-.4376-.8126-.6564-1.7503-.6564-2.813 0-1.0752.2188-2.0191.6564-2.8318.4376-.8126 1.0502-1.4378 1.8378-1.8753.7878-.4376 1.6938-.6564 2.7188-.6564.988 0 1.87.2125 2.645.6376.787.4251 1.394 1.0314 1.819 1.8191.437.7751.656 1.6691.656 2.6817Zm-2.719-.7501c-.013-.6751-.256-1.2127-.731-1.6128-.476-.4126-1.057-.6189-1.745-.6189-.65 0-1.2.2001-1.65.6001-.437.3876-.7062.9315-.8063 1.6316h4.9323Zm3.96.9752c0-1.0752.219-2.0129.657-2.813.437-.8127 1.044-1.4378 1.819-1.8754.775-.4501 1.663-.6751 2.663-.6751 1.288 0 2.35.325 3.188.9752.85.6376 1.419 1.5378 1.707 2.7005h-2.832c-.15-.4501-.407-.8002-.769-1.0502-.35-.2626-.788-.3938-1.313-.3938-.75 0-1.344.275-1.781.8251-.438.5376-.657 1.3065-.657 2.3067 0 .9877.219 1.7566.657 2.3067.437.5376 1.031.8064 1.781.8064 1.063 0 1.757-.4751 2.082-1.4253h2.832c-.288 1.1252-.857 2.0191-1.707 2.6817-.85.6627-1.913.994-3.188.994-1 0-1.888-.2188-2.663-.6564-.775-.4501-1.382-1.0752-1.819-1.8753-.438-.8127-.657-1.7566-.657-2.8318ZM126.85 72l-3.526-4.4258V72h-2.625V58.1224h2.625v7.8952l3.489-4.407h3.413l-4.576 5.2134L130.263 72h-3.413Zm14.459-5.4198c0 .3751-.025.7127-.075 1.0127h-7.595c.062.7502.325 1.3378.787 1.7629.463.425 1.032.6376 1.707.6376.975 0 1.669-.4189 2.081-1.2565h2.832c-.3 1.0002-.875 1.8253-1.725 2.4755-.85.6376-1.894.9564-3.132.9564-1 0-1.9-.2188-2.7-.6564-.788-.4501-1.407-1.0814-1.857-1.8941-.438-.8126-.656-1.7503-.656-2.813 0-1.0752.218-2.0191.656-2.8318.438-.8126 1.05-1.4378 1.838-1.8753.787-.4376 1.694-.6564 2.719-.6564.988 0 1.869.2125 2.644.6376.788.4251 1.394 1.0314 1.819 1.8191.438.7751.657 1.6691.657 2.6817Zm-2.72-.7501c-.012-.6751-.256-1.2127-.731-1.6128-.475-.4126-1.056-.6189-1.744-.6189-.65 0-1.2.2001-1.65.6001-.438.3876-.707.9315-.807 1.6316h4.932Zm7.262-2.6067c.337-.5501.775-.9815 1.312-1.294.55-.3126 1.176-.4689 1.876-.4689v2.7568h-.694c-.825 0-1.45.1938-1.876.5814-.412.3875-.618 1.0627-.618 2.0253V72h-2.626V61.6106h2.626v1.6128ZM31.9195 91.1108c.3375-.475.8001-.8689 1.3877-1.1814.6001-.3251 1.2815-.4876 2.0442-.4876.8876 0 1.6878.2188 2.4004.6564.7251.4375 1.294 1.0627 1.7066 1.8753.4251.8002.6376 1.7316.6376 2.7943 0 1.0627-.2125 2.0066-.6376 2.8318-.4126.8126-.9815 1.444-1.7066 1.8941-.7126.45-1.5128.6753-2.4004.6753-.7627 0-1.4378-.156-2.0254-.4691-.5751-.3125-1.044-.7063-1.4065-1.1814v6.4325H29.294V89.6106h2.6255v1.5002Zm5.4948 3.657c0-.6251-.1313-1.1627-.3939-1.6128-.25-.4626-.5876-.8127-1.0127-1.0502-.4125-.2376-.8626-.3563-1.3502-.3563-.4751 0-.9252.125-1.3503.375-.4125.2376-.7501.5876-1.0127 1.0502-.25.4626-.375 1.0065-.375 1.6316s.125 1.169.375 1.6315c.2626.4626.6002.8189 1.0127 1.069.4251.2375.8752.3563 1.3503.3563.4876 0 .9377-.125 1.3502-.3751.4251-.25.7627-.6063 1.0127-1.0689.2626-.4626.3939-1.0127.3939-1.6503Zm7.2151-3.5444c.3375-.5501.7751-.9815 1.3127-1.294.5501-.3126 1.1752-.4689 1.8754-.4689v2.7568h-.6939c-.8252 0-1.4503.1938-1.8754.5814-.4125.3875-.6188 1.0627-.6188 2.0253V100h-2.6255V89.6106h2.6255v1.6128Zm9.5698 8.9456c-1.0002 0-1.9003-.219-2.7005-.6566-.8001-.4501-1.4315-1.0814-1.8941-1.8941-.4501-.8126-.6751-1.7503-.6751-2.813 0-1.0627.2313-2.0004.6939-2.813.475-.8127 1.1189-1.4378 1.9316-1.8754.8126-.4501 1.719-.6751 2.7192-.6751 1.0002 0 1.9066.225 2.7193.6751.8126.4376 1.4502 1.0627 1.9128 1.8754.4751.8126.7127 1.7503.7127 2.813 0 1.0627-.2438 2.0004-.7314 2.813-.4751.8127-1.1252 1.444-1.9504 1.8941-.8126.4376-1.7253.6566-2.738.6566Zm0-2.2881c.4751 0 .9189-.1126 1.3315-.3376.4251-.2376.7626-.5876 1.0127-1.0502.25-.4626.3751-1.0252.3751-1.6878 0-.9877-.2626-1.7441-.7877-2.2692-.5126-.5376-1.1439-.8064-1.8941-.8064-.7501 0-1.3815.2688-1.8941.8064-.5001.5251-.7501 1.2815-.7501 2.2692s.2438 1.7503.7314 2.2879c.5001.5251 1.1252.7877 1.8753.7877Zm6.6705-3.1131c0-1.0502.2063-1.9816.6189-2.7943.4251-.8126 1.0002-1.4378 1.7253-1.8753.7252-.4376 1.5316-.6564 2.4192-.6564.6752 0 1.319.15 1.9316.4501.6126.2875 1.1002.6751 1.4628 1.1627v-4.9322h2.663V100h-2.663v-1.5378c-.3251.5126-.7814.9252-1.369 1.2377-.5876.3131-1.269.4691-2.0441.4691-.8752 0-1.6753-.2253-2.4005-.6753-.7251-.4501-1.3002-1.0815-1.7253-1.8941-.4126-.8252-.6189-1.7691-.6189-2.8318Zm8.1766.0375c0-.6376-.1251-1.1815-.3751-1.6316-.2501-.4626-.5876-.8126-1.0127-1.0502-.4251-.25-.8814-.375-1.369-.375-.4876 0-.9377.1187-1.3503.3563-.4125.2375-.7501.5876-1.0126 1.0502-.2501.4501-.3751.9877-.3751 1.6128s.125 1.1752.3751 1.6503c.2625.4626.6001.8189 1.0126 1.0689.4251.2501.8752.3751 1.3503.3751.4876 0 .9439-.1188 1.369-.3563.4251-.2501.7626-.6001 1.0127-1.0502.25-.4626.3751-1.0127.3751-1.6503Zm15.0165-5.1947V100h-2.6442v-1.3127c-.3376.45-.7814.8064-1.3315 1.0689-.5376.2498-1.1252.3748-1.7628.3748-.8127 0-1.5316-.1685-2.1567-.5061-.6251-.35-1.119-.8564-1.4815-1.519-.3501-.6751-.5251-1.4753-.5251-2.4004v-6.0949h2.6255v5.7198c0 .8251.2063 1.4628.6188 1.9128.4126.4376.9752.6564 1.6878.6564.7252 0 1.294-.2188 1.7066-.6564.4126-.45.6189-1.0877.6189-1.9128v-5.7198h2.6442Zm1.9154 5.1947c0-1.0752.2188-2.0129.6563-2.813.4376-.8127 1.044-1.4378 1.8191-1.8754.7752-.4501 1.6628-.6751 2.663-.6751 1.2878 0 2.3505.325 3.1881.9752.8502.6376 1.419 1.5378 1.7066 2.7005h-2.8318c-.15-.4501-.4063-.8002-.7689-1.0502-.3501-.2626-.7876-.3938-1.3127-.3938-.7502 0-1.344.275-1.7816.8251-.4376.5376-.6564 1.3065-.6564 2.3067 0 .9877.2188 1.7566.6564 2.3067.4376.5376 1.0314.8064 1.7816.8064 1.0627 0 1.7565-.4751 2.0816-1.4253h2.8318c-.2876 1.1252-.8564 2.0191-1.7066 2.6817-.8501.6627-1.9128.9942-3.1881.9942-1.0002 0-1.8878-.219-2.663-.6566-.7751-.4501-1.3815-1.0752-1.8191-1.8753-.4375-.8127-.6563-1.7566-.6563-2.8318Zm15.0138-3.0381v5.026c0 .35.081.6063.243.7688.175.1501.463.2251.863.2251h1.219V100h-1.65c-2.2133 0-3.3197-1.0752-3.3197-3.2256v-5.0072h-1.2378v-2.1566h1.2378v-2.5693h2.6447v2.5693h2.325v2.1566h-2.325Zm8.189 8.4018c-.85 0-1.613-.15-2.288-.4503-.675-.3126-1.213-.7314-1.613-1.2565-.387-.5251-.6-1.1064-.637-1.7441h2.644c.05.4001.244.7314.581.994.35.2625.782.3938 1.294.3938.5 0 .888-.1 1.163-.3001.288-.2.431-.4563.431-.7689 0-.3375-.175-.5876-.525-.7501-.337-.175-.881-.3626-1.631-.5626-.775-.1875-1.413-.3813-1.913-.5814-.488-.2-.913-.5063-1.275-.9189-.35-.4126-.525-.9689-.525-1.669 0-.5751.162-1.1002.487-1.5753.338-.4751.813-.8502 1.425-1.1252.625-.2751 1.357-.4126 2.195-.4126 1.237 0 2.225.3125 2.963.9377.737.6126 1.144 1.444 1.219 2.4942h-2.513c-.038-.4126-.213-.7377-.526-.9752-.3-.2501-.706-.3751-1.218-.3751-.476 0-.844.0875-1.107.2626-.25.175-.375.4188-.375.7314 0 .35.175.6188.525.8064.35.175.894.3563 1.632.5438.75.1875 1.369.3813 1.856.5814.488.2.907.5126 1.257.9376.362.4126.55.9627.562 1.6503 0 .6002-.168 1.1378-.506 1.6128-.325.4751-.8.8502-1.425 1.1253-.613.263-1.332.394-2.157.394Zm-75.1236 19.598h-1.8191V128h-2.663v-8.233h-1.1815v-2.156h1.1815v-.526c0-1.275.3626-2.212 1.0877-2.813.7251-.6 1.8191-.881 3.2819-.843v2.212c-.6377-.012-1.0815.094-1.3315.319-.2501.225-.3751.632-.3751 1.219v.432h1.8191v2.156Zm6.3148 8.402c-1.0002 0-1.9004-.219-2.7005-.657-.8002-.45-1.4315-1.081-1.8941-1.894-.4501-.812-.6752-1.75-.6752-2.813 0-1.062.2313-2 .6939-2.813.4751-.812 1.119-1.438 1.9316-1.875.8127-.45 1.7191-.675 2.7193-.675s1.9066.225 2.7192.675c.8127.437 1.4503 1.063 1.9129 1.875.4751.813.7126 1.751.7126 2.813 0 1.063-.2438 2.001-.7314 2.813-.475.813-1.1252 1.444-1.9503 1.894-.8127.438-1.7253.657-2.738.657Zm0-2.288c.4751 0 .9189-.113 1.3315-.338.4251-.237.7626-.587 1.0127-1.05.25-.462.375-1.025.375-1.688 0-.987-.2625-1.744-.7876-2.269-.5126-.537-1.144-.806-1.8941-.806-.7502 0-1.3815.269-1.8941.806-.5001.525-.7502 1.282-.7502 2.269 0 .988.2438 1.751.7314 2.288.5001.525 1.1252.788 1.8754.788Zm9.9711-6.658c.3376-.55.7752-.981 1.3128-1.294.5501-.312 1.1752-.468 1.8753-.468v2.756h-.6939c-.8251 0-1.4502.194-1.8753.582-.4126.387-.6189 1.062-.6189 2.025V128h-2.6255v-10.389h2.6255v1.612Zm18.6571.544h-1.8191V128h-2.663v-8.233h-1.1815v-2.156h1.1815v-.526c0-1.275.3626-2.212 1.0877-2.813.7252-.6 1.8191-.881 3.2819-.843v2.212c-.6376-.012-1.0815.094-1.3315.319-.2501.225-.3751.632-.3751 1.219v.432h1.8191v2.156Zm4.3269-.544c.3376-.55.7752-.981 1.3128-1.294.5501-.312 1.1752-.468 1.8753-.468v2.756h-.6939c-.8251 0-1.4502.194-1.8753.582-.4126.387-.6189 1.062-.6189 2.025V128h-2.6255v-10.389h2.6255v1.612Zm14.6146 3.357c0 .375-.025.713-.075 1.013h-7.5952c.0625.75.325 1.338.7876 1.763.4626.425 1.0315.637 1.7066.637.9752 0 1.6691-.418 2.0816-1.256h2.8318c-.3 1-.8751 1.825-1.7253 2.475-.8502.638-1.8941.957-3.1318.957-1.0002 0-1.9004-.219-2.7005-.657-.7877-.45-1.4066-1.081-1.8566-1.894-.4376-.812-.6564-1.75-.6564-2.813 0-1.075.2188-2.019.6564-2.831.4375-.813 1.0502-1.438 1.8378-1.876.7877-.437 1.6941-.656 2.7193-.656.9876 0 1.8691.212 2.6442.637.7877.425 1.394 1.032 1.8191 1.819.4376.776.6564 1.67.6564 2.682Zm-2.7193-.75c-.0125-.675-.2563-1.213-.7314-1.613-.4751-.412-1.0564-.619-1.7441-.619-.6501 0-1.2002.2-1.6503.601-.4375.387-.7063.931-.8064 1.631h4.9322Zm14.2937.75c0 .375-.025.713-.075 1.013h-7.5952c.0625.75.3251 1.338.7877 1.763.4625.425 1.0314.637 1.7065.637.9752 0 1.6691-.418 2.0817-1.256h2.8317c-.3 1-.8751 1.825-1.7253 2.475-.8501.638-1.8941.957-3.1318.957-1.0002 0-1.9004-.219-2.7005-.657-.7877-.45-1.4065-1.081-1.8566-1.894-.4376-.812-.6564-1.75-.6564-2.813 0-1.075.2188-2.019.6564-2.831.4376-.813 1.0502-1.438 1.8378-1.876.7877-.437 1.6941-.656 2.7193-.656.9877 0 1.8691.212 2.6442.637.7877.425 1.394 1.032 1.8191 1.819.4376.776.6564 1.67.6564 2.682Zm-2.7193-.75c-.0125-.675-.2563-1.213-.7314-1.613-.475-.412-1.0564-.619-1.744-.619-.6502 0-1.2003.2-1.6503.601-.4376.387-.7064.931-.8064 1.631h4.9321Z" fill="#2C3141"/></svg>