<svg width="174" height="48" fill="none" xmlns="http://www.w3.org/2000/svg"><path d="M23.0894 36.4364c3.2416 1.7454 7.4182 3.2104 7.4182 3.2104s-2.587-6.3273-5.9533-13.6208c1.1845-6.5766-1.5896-9.3507-4.0207-11.7507-2.9922-2.961-3.4286-5.64153-3.4286-5.64153s-1.1844 1.12208-1.6831 2.27533C11.6193 8.88312 9.06343 5.14286 8.96993 0c-.06234.0311688-5.82857 2.55584-6.10909 9.69351-.03117.81039.03116 1.58959.18701 2.33769l-.59221.7792c-1.15325 1.5273-1.34026 3.5221-1.02857 5.174l-.15584.7792c-.09351.4987-.06234 1.4338.52987 2.213-1.80779628 2.8676-2.275328 6.3585-1.309094 9.9429.935064 3.3974 3.459734 6.8571 5.859734 8.6026 2.58702 1.9013 4.70646 2.8052 7.82336 3.7714 2.774.8727 7.3559 1.2156 7.6052 4.7065.6234-.0312 1.1533-.3429 1.1533-.3429 1.2779-.748 1.7142-2.1506 1.8701-3.2415.3428.2493.5299.9662.5299.9662.8104-1.7766.0311-3.7714.0311-3.7714l.4676.2493c-.4987-2.6181-1.5896-4.2701-2.7429-5.4233Z" fill="#fff"/><path opacity=".98" d="M20.3776 25.8103s-1.3715.0935-1.3091-1.1533c.0623-1.2467.5922-4.2389-2.9922-6.9506.0623.7792-.2806 1.4338-.2806 1.4338s-.5298-1.3715-2.1506-2.3065c-.9039-.4987-2.0571-.8728-3.74027-.8728-.24935 0-.62337 0-1.05974.0624-.12467 0-.24935.0311-.37402.0623-.15584.0312-.34286.0935-.43636.1559-.31169.1246-.37403.2181-.37403.2181s2.77402-.2181 3.83372.8104c-1.0909 0-1.99476.4052-1.99476.4052h.12467c.68569-.0623 3.80259-.1247 3.86499 2.4.3428-.3117.4675-1.0285.4675-1.0285s.374.748.3117 1.6831c.2493-.0935.561-.6857.561-.8728.4987.5922.187 1.6832.187 1.6832s.4676.3428.6857.5922c.2182-.3741.6234-.6546 1.0909-.6546.2182 0 .4052.0624.5923.1559-.3429-.4052-.9039-.7169-1.7143-.9663 1.7454-.3117 3.4285 1.1844 2.2441 2.6494-.0935.0935-.1558.187-.2493.2805h-.0312c-.0935.0935-.187.1558-.3117.2182.1247.1247.9663 1.1532.8104 2.6493-.3117-1.122-1.839-2.6181-1.839-2.6181-.3428-.1559-.6233-.4364-.7168-.8104-.3429-.3117-.7793-.6858-1.1533-.9663-6.54544-2.9298-10.2857.5922-10.41037.9039.12467-.1247.84155-.3117 1.02857-.2493-.09351.0311-1.18442.7792-1.55844 1.6831.15584-.1559.56104-.3117.71688-.2805-.84156 1.0909-1.18442 3.522-1.18442 3.522s-.37402.5299-.40519 1.091c.12467-.1871.34286-.4364.4987-.4987-.18701 5.1116 3.64675 10.2857 3.77143 10.535.03117.0312 2.05714 1.8078 4.05194 2.587-.9039-.748-1.71428-1.5272-2.39999-2.3065-5.67273-6.3896-4.64416-13.8078-.4987-15.6467 3.58439-1.652 8.47789 1.3091 9.25709 3.3974 0 .0312.0312.0312.0312.0623.9039 1.0286 1.8078.6546 2.0883-.1558.187-.4675.5922-.7481.9663-.9039Z" fill="#D0D2D3"/><path d="m25.5208 32.1652-2.6805-5.1117s-.4364-.8415-2.5247-.561l5.0182 6.9506-3.1793-6.1714 3.3663 4.8935Zm-5.1429-4.0831c-.0623-.187-.6857-.374-.9039-.0623-.2493.374.5922 1.0909 1.4026 1.309-1.0286-.6545-1.2779-1.3402-.4987-1.2467ZM9.25064 20.1029c-.4987-.0312-.84156-.4987-.84156-.4987s.03117.5922.15585.935c-1.74546-.187-2.68052-1.4337-2.68052-1.4337s.0935.7169.31168 1.1844c-3.77142.374-7.63636 9.1636.68572 18.4831-.12468-.2182-3.95844-5.4234-3.77143-10.5351-.15584.0624-.37403.2806-.4987.4987.03117-.5298.40519-1.0909.40519-1.0909s.31169-2.4311 1.15325-3.5532c-.15584-.0312-.56104.1247-.71688.2805.40519-.9039 1.4961-1.6519 1.55844-1.6831-.18701-.0624-.87273.1247-1.02857.2493.12467-.3117 3.86493-3.8337 10.41039-.9039h.0312c-2.3689-2.2441-5.20523-2.6493-5.20523-2.6493s-.06234.3428.03117.7169Z" fill="#555658"/><path d="M16.6998 13.1222c-.1559.3117-.1559.7169-.1559.7169s-7.7922-2.8052-9.13246-9.28832c-.77922 1.65195-.06234 3.61558-.06234 3.61558S6.22702 6.85727 6.13352 5.98455C2.73612 12.8417 8.253 16.0832 8.47118 16.1768c.12468-.0312.24935-.0312.4052-.0624 5.51692-.5922 6.98182 3.0857 6.98182 3.0857s.3428-.6545.2805-1.4337c3.5533 2.7117 3.0234 5.735 2.9922 6.9506-.0623 1.2468 1.3091 1.1533 1.3091 1.1533.1559-.0312 1.2779-.2806 1.9636.0311 1.465-8.3221-3.709-9.1948-5.7038-12.7792Z" fill="#EC1940"/><path d="M23.6504 40.6135c.1246-.0312.5922.0311.8727.2181-.9351-4.4883-9.0701-9.7558-9.0701-9.7558s.561.187 1.0285-.0312c5.9221 4.3948 12.4052 7.0754 12.4052 7.0754s-1.8078-4.4572-5.2987-11.9689c1.9013-9.787-5.2987-10.5039-6.8883-15.6156-.187.2182-.748 1.1845-.7792 1.6832-.8727-.4364-7.04416-2.86757-7.79222-10.53511C3.0166 5.33035 2.29971 12.7485 6.5075 16.2394c-1.74545.0935-3.14805-1.9324-3.33506-2.8987-1.80779 2.4-.71688 5.9221.15584 6.7325-.81039-.3117-1.15324-1.1532-1.15324-1.1532s-.24935 1.1844.81039 1.9013c-4.39481 5.9844-1.18442 14.2441 3.8961 17.922-8.32208-9.3506-4.45714-18.1402-.68572-18.4831-.21818-.4363-.31168-1.1844-.31168-1.1844s.93506 1.2468 2.68052 1.4338c-.12468-.3429-.15585-.9351-.15585-.9351s.34286.4675.84156.4987c-.09351-.374-.03117-.6857-.03117-.6857s2.80521.4052 5.20521 2.6493h-.0312c.374.2806.8104.6546 1.1533.9663-.0312-.0935-.0624-.2182-.0624-.3429 0-.2182.0624-.4052.1559-.5922-.2182-.2493-.6857-.5922-.6857-.5922s.2805-1.0909-.1871-1.6831c0 .2182-.3116.8104-.561.8727.0623-.9351-.3117-1.6831-.3117-1.6831s-.1247.7169-.4675 1.0286c-.0624-2.587-3.2727-2.4624-3.89612-2.4h-.09351s.90393-.4052 1.99483-.4052c-1.0598-1.0598-3.83379-.8104-3.83379-.8104s.15585-.1559.59221-.2805c.06234-.0312.15585-.0312.24935-.0624-.21818-.0935-5.73506-3.335-2.33766-10.19218.09351.87272 1.21558 2.18181 1.21558 2.18181s-.71688-1.96363.06234-3.61558c1.34026 6.48315 9.13247 9.28835 9.13247 9.28835s0-.4052.1558-.7169c1.9637 3.6156 7.1689 4.4571 5.6416 12.748-.6545-.3117-1.8078-.0623-1.9636-.0311-.4052.1558-.8104.4363-.9663.8727-.2805.8104-1.1844 1.2156-2.0883.187l-.0312.0312s0 .0311-.0311.0311c-.2182.4052-.9663 2.1195.7792 3.2416-.6234.0312-.9974-.3117-.9974-.3117s.187.8104.6545 1.2156c-.8103-.6234-1.4961-1.1844-1.4961-1.1844H16.1075c-.2805.0311-1.9013.0935-3.0545-.8104-.0935 2.3377 2.8052 2.774 5.2363 5.4545-13.02855-3.3662-10.34803-9.787-10.31686-9.9117-4.20779 2.9923-.37403 9.6624.34286 10.5663 5.8597 7.4493 13.5896 6.2649 14.1195 11.5948 1.6208-1.0286 1.4026-3.8338 1.4026-3.8338s.5922.2805.9039.7481c.1558-1.7455-.9974-2.8987-1.0909-2.9922ZM22.84 27.055l2.6805 5.1117-3.3662-4.8935 3.1792 6.1714-5.0182-6.9506c2.0883-.3117 2.5247.561 2.5247.561Zm-3.3351.9663c.2182-.3117.8104-.1247.9039.0623-.7792-.0935-.5299.5922.4987 1.2467-.8104-.2181-1.6519-.935-1.4026-1.309ZM15.64 20.6654c.7792.2182 1.3402.5299 1.7143.9662.0935.1247.187.2494.2493.3741v.0311c.0623.1559 0 .3429-.187.4364-.187.0935-.4052 0-.4675-.1558-.0624-.0935-.0312-.2182 0-.3117-.2182.1246-.3429.3428-.3429.5922 0 .374.3117.6857.6857.6857.1559 0 .3117-.0623.4364-.1558-.0312.1558-.0624.3116-.0935.4675.1247-.1247.187-.187.2805-.3117 1.1532-1.4649-.5299-2.9299-2.2753-2.6182Zm1.122 3.2727c-.1558 0-.3116-.0311-.4675-.0935l.1247.1247c.374.4052 1.4649 1.5585 1.7143 2.4623.1558-1.4961-.6857-2.4935-.8104-2.6493-.187.0935-.374.1558-.5611.1558ZM37.456 33.016 39.504 33l2.48-8.416L44.32 33h2.064l3.296-11.12h-1.952l-2.32 9.008-2.32-9.008H41.04l-2.496 9.056-2.304-9.056h-1.936l3.152 11.136Zm22.1284-4.432c0-2.768-1.984-4.544-4.496-4.544-2.512 0-4.496 1.776-4.496 4.544s1.904 4.56 4.416 4.56c2.528 0 4.576-1.792 4.576-4.56Zm-7.136 0c0-2 1.232-2.96 2.608-2.96 1.36 0 2.656.96 2.656 2.96s-1.344 2.976-2.704 2.976c-1.376 0-2.56-.976-2.56-2.976Zm10.7631-.224c0-1.872.832-2.432 2.176-2.432h.464V24.04c-1.248 0-2.128.544-2.64 1.424v-1.28h-1.824V33h1.824v-4.64Zm3.7086.192c0 2.72 1.84 4.592 4.16 4.592 1.44 0 2.496-.672 3.056-1.472V33h1.84V21.16h-1.84v4.256c-.672-.832-1.888-1.376-3.04-1.376-2.336 0-4.176 1.792-4.176 4.512Zm7.216.032c0 1.904-1.296 2.976-2.672 2.976-1.36 0-2.672-1.104-2.672-3.008s1.312-2.928 2.672-2.928c1.376 0 2.672 1.072 2.672 2.96ZM80.1959 27v-3.632h2.016c1.424 0 2.064.672 2.064 1.824 0 1.12-.64 1.808-2.064 1.808h-2.016Zm5.952-1.808c0-1.808-1.296-3.312-3.936-3.312h-3.84V33h1.824v-4.512h2.016c2.896 0 3.936-1.712 3.936-3.296Zm3.5636 3.168c0-1.872.832-2.432 2.176-2.432h.464V24.04c-1.248 0-2.128.544-2.64 1.424v-1.28h-1.824V33h1.824v-4.64Zm8.0286-2.784c1.36 0 2.4319.864 2.4639 2.224h-4.8799c.192-1.392 1.184-2.224 2.416-2.224Zm4.1279 4.8h-1.9679c-.336.688-.96 1.232-2.08 1.232-1.344 0-2.384-.88-2.512-2.336h6.7359c.048-.304.064-.592.064-.896 0-2.592-1.776-4.336-4.2879-4.336-2.608 0-4.4 1.776-4.4 4.544s1.872 4.56 4.4 4.56c2.16 0 3.5519-1.232 4.0479-2.768Zm8.611.16c-.096-3.184-5.072-2.192-5.072-3.968 0-.592.512-.992 1.488-.992.992 0 1.584.528 1.648 1.296h1.824c-.096-1.76-1.408-2.832-3.408-2.832-2.08 0-3.392 1.136-3.392 2.544 0 3.232 5.12 2.24 5.12 3.968 0 .608-.56 1.056-1.616 1.056-1.008 0-1.696-.592-1.76-1.312h-1.888c.08 1.6 1.568 2.848 3.68 2.848 2.08 0 3.376-1.12 3.376-2.608Zm8.547 0c-.096-3.184-5.072-2.192-5.072-3.968 0-.592.512-.992 1.488-.992.992 0 1.584.528 1.648 1.296h1.824c-.096-1.76-1.408-2.832-3.408-2.832-2.08 0-3.392 1.136-3.392 2.544 0 3.232 5.12 2.24 5.12 3.968 0 .608-.56 1.056-1.616 1.056-1.008 0-1.696-.592-1.76-1.312h-1.888c.08 1.6 1.568 2.848 3.68 2.848 2.08 0 3.376-1.12 3.376-2.608ZM126.977 27v-3.632h2.016c1.424 0 2.064.672 2.064 1.824 0 1.12-.64 1.808-2.064 1.808h-2.016Zm5.952-1.808c0-1.808-1.296-3.312-3.936-3.312h-3.84V33h1.824v-4.512h2.016c2.896 0 3.936-1.712 3.936-3.296Zm1.74 7.808h1.824V21.16h-1.824V33Zm12.203-8.816h-1.824v4.912c0 1.616-.88 2.448-2.224 2.448-1.328 0-2.208-.832-2.208-2.448v-4.912h-1.808v5.184c0 2.464 1.568 3.76 3.632 3.76 1.04 0 2.032-.432 2.608-1.184V33h1.824v-8.816Zm1.798 4.368c0 2.72 1.84 4.592 4.16 4.592 1.44 0 2.496-.72 3.056-1.472v1.472c0 1.76-1.056 2.624-2.464 2.624-1.264 0-2.24-.624-2.512-1.536h-1.808c.224 1.952 1.968 3.12 4.32 3.12 2.752 0 4.304-1.808 4.304-4.208v-8.96h-1.84v1.28c-.544-.752-1.616-1.424-3.056-1.424-2.32 0-4.16 1.792-4.16 4.512Zm7.216.032c0 1.904-1.296 2.976-2.672 2.976-1.36 0-2.672-1.104-2.672-3.008s1.312-2.928 2.672-2.928c1.376 0 2.672 1.072 2.672 2.96ZM160.122 33h1.824v-8.816h-1.824V33Zm.928-9.984c.64 0 1.152-.512 1.152-1.168 0-.656-.512-1.168-1.152-1.168-.656 0-1.168.512-1.168 1.168 0 .656.512 1.168 1.168 1.168ZM170.597 33h1.808v-5.2c0-2.464-1.552-3.76-3.616-3.76-1.056 0-2.032.432-2.624 1.152v-1.008h-1.824V33h1.824v-4.928c0-1.616.88-2.448 2.224-2.448 1.328 0 2.208.832 2.208 2.448V33Z" fill="#0B0204"/></svg>