<svg width="31" height="48" viewBox="0 0 31 48" fill="none" xmlns="http://www.w3.org/2000/svg">
<path d="M23.0894 36.4364C26.331 38.1818 30.5076 39.6468 30.5076 39.6468C30.5076 39.6468 27.9206 33.3195 24.5543 26.026C25.7388 19.4494 22.9647 16.6753 20.5336 14.2753C17.5414 11.3143 17.105 8.63377 17.105 8.63377C17.105 8.63377 15.9206 9.75585 15.4219 10.9091C11.6193 8.88312 9.06343 5.14286 8.96993 0C8.90759 0.0311688 3.14136 2.55585 2.86084 9.69351C2.82967 10.5039 2.892 11.2831 3.04785 12.0312L2.45564 12.8104C1.30239 14.3377 1.11538 16.3325 1.42707 17.9844L1.27123 18.7636C1.17772 19.2623 1.20889 20.1974 1.8011 20.9766C-0.00669628 23.8442 -0.474228 27.3351 0.492006 30.9195C1.42707 34.3169 3.95174 37.7766 6.35174 39.5221C8.93876 41.4234 11.0582 42.3273 14.1751 43.2935C16.9491 44.1662 21.531 44.5091 21.7803 48C22.4037 47.9688 22.9336 47.6571 22.9336 47.6571C24.2115 46.9091 24.6478 45.5065 24.8037 44.4156C25.1465 44.6649 25.3336 45.3818 25.3336 45.3818C26.144 43.6052 25.3647 41.6104 25.3647 41.6104L25.8323 41.8597C25.3336 39.2416 24.2427 37.5896 23.0894 36.4364Z" fill="white"/>
<path opacity="0.98" d="M20.3776 25.8078C20.3776 25.8078 19.0061 25.9014 19.0685 24.6546C19.1308 23.4078 19.6607 20.4156 16.0763 17.704C16.1386 18.4832 15.7957 19.1377 15.7957 19.1377C15.7957 19.1377 15.2659 17.7663 13.6451 16.8312C12.7412 16.3325 11.588 15.9585 9.90483 15.9585C9.65548 15.9585 9.28146 15.9585 8.84509 16.0208C8.72042 16.0208 8.59574 16.052 8.47107 16.0832C8.31523 16.1143 8.12821 16.1767 8.03471 16.239C7.72302 16.3637 7.66068 16.4572 7.66068 16.4572C7.66068 16.4572 10.4347 16.239 11.4944 17.2676C10.4035 17.2676 9.49964 17.6728 9.49964 17.6728C9.49964 17.6728 9.56198 17.6728 9.62431 17.6728C10.31 17.6104 13.4269 17.5481 13.4893 20.0728C13.8321 19.7611 13.9568 19.0442 13.9568 19.0442C13.9568 19.0442 14.3308 19.7923 14.2685 20.7273C14.5178 20.6338 14.8295 20.0416 14.8295 19.8546C15.3282 20.4468 15.0165 21.5377 15.0165 21.5377C15.0165 21.5377 15.4841 21.8806 15.7022 22.1299C15.9204 21.7559 16.3256 21.4754 16.7931 21.4754C17.0113 21.4754 17.1983 21.5377 17.3854 21.6312C17.0425 21.226 16.4815 20.9143 15.6711 20.665C17.4165 20.3533 19.0996 21.8494 17.9152 23.3143C17.8217 23.4078 17.7594 23.5014 17.6659 23.5949C17.6659 23.5949 17.6659 23.5949 17.6347 23.5949C17.5412 23.6884 17.4477 23.7507 17.323 23.813C17.4477 23.9377 18.2893 24.9663 18.1334 26.4624C17.8217 25.3403 16.2944 23.8442 16.2944 23.8442C15.9516 23.6884 15.6711 23.4078 15.5776 23.0338C15.2347 22.7221 14.7983 22.3481 14.4243 22.0676C7.87886 19.1377 4.1386 22.6598 4.01393 22.9715C4.1386 22.8468 4.85548 22.6598 5.0425 22.7221C4.94899 22.7533 3.85808 23.5014 3.48406 24.4053C3.6399 24.2494 4.0451 24.0936 4.20094 24.1247C3.35938 25.2156 3.01652 27.6468 3.01652 27.6468C3.01652 27.6468 2.6425 28.1767 2.61133 28.7377C2.736 28.5507 2.95419 28.3014 3.11003 28.239C2.92302 33.3507 6.75678 38.5247 6.88146 38.7741C6.91263 38.8052 8.9386 40.5819 10.9334 41.3611C10.0295 40.613 9.21912 39.8338 8.53341 39.0546C2.86068 32.665 3.88925 25.2468 8.03471 23.4078C11.6191 21.7559 16.5126 24.7169 17.2918 26.8053C17.2918 26.8364 17.323 26.8364 17.323 26.8676C18.2269 27.8962 19.1308 27.5221 19.4113 26.7117C19.5983 26.2442 20.0035 25.9637 20.3776 25.8078Z" fill="#D0D2D3"/>
<path d="M25.5208 32.1662L22.8403 27.0545C22.8403 27.0545 22.4039 26.2129 20.3156 26.4935L25.3338 33.4441L22.1545 27.2727L25.5208 32.1662ZM20.3779 28.0831C20.3156 27.8961 19.6922 27.709 19.474 28.0207C19.2247 28.3948 20.0662 29.1116 20.8766 29.3298C19.848 28.6753 19.5987 27.9896 20.3779 28.0831ZM9.25064 20.1038C8.75194 20.0727 8.40908 19.6051 8.40908 19.6051C8.40908 19.6051 8.44025 20.1974 8.56493 20.5402C6.81947 20.3532 5.88441 19.1064 5.88441 19.1064C5.88441 19.1064 5.97791 19.8233 6.19609 20.2909C2.42467 20.6649 -1.44027 29.4545 6.88181 38.774C6.75713 38.5558 2.92337 33.3506 3.11038 28.2389C2.95454 28.3012 2.73635 28.5194 2.61168 28.7376C2.64285 28.2077 3.01687 27.6467 3.01687 27.6467C3.01687 27.6467 3.32856 25.2155 4.17012 24.0935C4.01428 24.0623 3.60908 24.2181 3.45324 24.374C3.85843 23.4701 4.94934 22.722 5.01168 22.6909C4.82467 22.6285 4.13895 22.8155 3.98311 22.9402C4.10778 22.6285 7.84804 19.1064 14.3935 22.0363C14.3935 22.0363 14.3935 22.0363 14.4247 22.0363C12.0558 19.7922 9.21947 19.387 9.21947 19.387C9.21947 19.387 9.15713 19.7298 9.25064 20.1038Z" fill="#555658"/>
<path d="M16.6998 13.1222C16.5439 13.4339 16.5439 13.8391 16.5439 13.8391C16.5439 13.8391 8.7517 11.0339 7.41144 4.55078C6.63222 6.20273 7.3491 8.16636 7.3491 8.16636C7.3491 8.16636 6.22702 6.85727 6.13352 5.98455C2.73612 12.8417 8.253 16.0832 8.47118 16.1768C8.59586 16.1456 8.72053 16.1456 8.87638 16.1144C14.3933 15.5222 15.8582 19.2001 15.8582 19.2001C15.8582 19.2001 16.201 18.5456 16.1387 17.7664C19.692 20.4781 19.1621 23.5014 19.1309 24.717C19.0686 25.9638 20.44 25.8703 20.44 25.8703C20.5959 25.8391 21.7179 25.5897 22.4036 25.9014C23.8686 17.5793 18.6946 16.7066 16.6998 13.1222Z" fill="#EC1940"/>
<path d="M23.6504 40.6135C23.775 40.5823 24.2426 40.6446 24.5231 40.8316C23.588 36.3433 15.453 31.0758 15.453 31.0758C15.453 31.0758 16.014 31.2628 16.4815 31.0446C22.4036 35.4394 28.8867 38.12 28.8867 38.12C28.8867 38.12 27.0789 33.6628 23.588 26.1511C25.4893 16.3641 18.2893 15.6472 16.6997 10.5355C16.5127 10.7537 15.9517 11.72 15.9205 12.2187C15.0478 11.7823 8.87634 9.35113 8.12828 1.68359C3.0166 5.33035 2.29971 12.7485 6.5075 16.2394C4.76205 16.3329 3.35945 14.307 3.17244 13.3407C1.36465 15.7407 2.45556 19.2628 3.32828 20.0732C2.51789 19.7615 2.17504 18.92 2.17504 18.92C2.17504 18.92 1.92569 20.1044 2.98543 20.8213C-1.40938 26.8057 1.80101 35.0654 6.88153 38.7433C-1.44055 29.3927 2.42439 20.6031 6.19581 20.2602C5.97763 19.8239 5.88413 19.0758 5.88413 19.0758C5.88413 19.0758 6.81919 20.3226 8.56465 20.5096C8.43997 20.1667 8.4088 19.5745 8.4088 19.5745C8.4088 19.5745 8.75166 20.042 9.25036 20.0732C9.15685 19.6992 9.21919 19.3875 9.21919 19.3875C9.21919 19.3875 12.0244 19.7927 14.4244 22.0368C14.4244 22.0368 14.4244 22.0368 14.3932 22.0368C14.7672 22.3174 15.2036 22.6914 15.5465 23.0031C15.5153 22.9096 15.4841 22.7849 15.4841 22.6602C15.4841 22.442 15.5465 22.255 15.64 22.068C15.4218 21.8187 14.9543 21.4758 14.9543 21.4758C14.9543 21.4758 15.2348 20.3849 14.7672 19.7927C14.7672 20.0109 14.4556 20.6031 14.2062 20.6654C14.2685 19.7303 13.8945 18.9823 13.8945 18.9823C13.8945 18.9823 13.7698 19.6992 13.427 20.0109C13.3646 17.4239 10.1543 17.5485 9.53088 17.6109C9.49971 17.6109 9.46854 17.6109 9.46854 17.6109C9.43737 17.6109 9.43737 17.6109 9.43737 17.6109C9.43737 17.6109 10.3413 17.2057 11.4322 17.2057C10.3724 16.1459 7.59841 16.3953 7.59841 16.3953C7.59841 16.3953 7.75426 16.2394 8.19062 16.1148C8.25296 16.0836 8.34647 16.0836 8.43997 16.0524C8.22179 15.9589 2.70491 12.7174 6.10231 5.86022C6.19582 6.73294 7.31789 8.04203 7.31789 8.04203C7.31789 8.04203 6.60101 6.0784 7.38023 4.42645C8.72049 10.9096 16.5127 13.7148 16.5127 13.7148C16.5127 13.7148 16.5127 13.3096 16.6685 12.9979C18.6322 16.6135 23.8374 17.455 22.3101 25.7459C21.6556 25.4342 20.5023 25.6836 20.3465 25.7148C19.9413 25.8706 19.5361 26.1511 19.3802 26.5875C19.0997 27.3979 18.1958 27.8031 17.2919 26.7745L17.2607 26.8057C17.2607 26.8057 17.2607 26.8368 17.2296 26.8368C17.0114 27.242 16.2633 28.9563 18.0088 30.0784C17.3854 30.1096 17.0114 29.7667 17.0114 29.7667C17.0114 29.7667 17.1984 30.5771 17.6659 30.9823C16.8556 30.3589 16.1698 29.7979 16.1698 29.7979C16.1698 29.7979 16.1698 29.7979 16.1387 29.7979C16.1387 29.7979 16.1387 29.7979 16.1075 29.7979C15.827 29.829 14.2062 29.8914 13.053 28.9875C12.9595 31.3252 15.8582 31.7615 18.2893 34.442C5.26075 31.0758 7.94127 24.655 7.97244 24.5303C3.76465 27.5226 7.59841 34.1927 8.3153 35.0966C14.175 42.5459 21.9049 41.3615 22.4348 46.6914C24.0556 45.6628 23.8374 42.8576 23.8374 42.8576C23.8374 42.8576 24.4296 43.1381 24.7413 43.6057C24.8971 41.8602 23.7439 40.707 23.6504 40.6135ZM22.84 27.055L25.5205 32.1667L22.1543 27.2732L25.3335 33.4446L20.3153 26.494C22.4036 26.1823 22.84 27.055 22.84 27.055ZM19.5049 28.0213C19.7231 27.7096 20.3153 27.8966 20.4088 28.0836C19.6296 27.9901 19.8789 28.6758 20.9075 29.3303C20.0971 29.1122 19.2556 28.3953 19.5049 28.0213ZM15.64 20.6654C16.4192 20.8836 16.9802 21.1953 17.3543 21.6316C17.4478 21.7563 17.5413 21.881 17.6036 22.0057V22.0368C17.6659 22.1927 17.6036 22.3797 17.4166 22.4732C17.2296 22.5667 17.0114 22.4732 16.9491 22.3174C16.8867 22.2239 16.9179 22.0992 16.9491 22.0057C16.7309 22.1303 16.6062 22.3485 16.6062 22.5979C16.6062 22.9719 16.9179 23.2836 17.2919 23.2836C17.4478 23.2836 17.6036 23.2213 17.7283 23.1278C17.6971 23.2836 17.6659 23.4394 17.6348 23.5953C17.7595 23.4706 17.8218 23.4083 17.9153 23.2836C19.0685 21.8187 17.3854 20.3537 15.64 20.6654ZM16.762 23.9381C16.6062 23.9381 16.4504 23.907 16.2945 23.8446C16.2945 23.8446 16.3569 23.907 16.4192 23.9693C16.7932 24.3745 17.8841 25.5278 18.1335 26.4316C18.2893 24.9355 17.4478 23.9381 17.3231 23.7823C17.1361 23.8758 16.9491 23.9381 16.762 23.9381Z" fill="#0B0204"/>
</svg>
