<svg width="267" height="118" fill="none" xmlns="http://www.w3.org/2000/svg"><rect width="267" height="118" rx="10" fill="#fff"/><path d="M29.2093 24.5002c-1.4963 0-2.7093 1.213-2.7093 2.7093v13.2559c0 1.4963 1.213 2.7093 2.7093 2.7093h52.5814c1.4963 0 2.7093-1.213 2.7093-2.7093V27.2095c0-1.4963-1.213-2.7093-2.7093-2.7093H29.2093Z" fill="#fff" stroke="#DFE0E2"/><rect x="29.209" y="27.2092" width="13.2558" height="13.2558" rx="2.2093" fill="#ADE2BF"/><rect x="47.7676" y="30.9651" width="30.9302" height="5.74419" rx="2.2093" fill="#EAEAEC"/><path d="M29.2093 50.5002c-1.4963 0-2.7093 1.213-2.7093 2.7093v13.2559c0 1.4963 1.213 2.7093 2.7093 2.7093h52.5814c1.4963 0 2.7093-1.213 2.7093-2.7093V53.2095c0-1.4963-1.213-2.7093-2.7093-2.7093H29.2093Z" fill="#fff" stroke="#DFE0E2"/><rect x="29.209" y="53.2092" width="13.2558" height="13.2558" rx="2.2093" fill="#EBF5EE"/><rect x="47.7676" y="56.9651" width="30.9302" height="5.74419" rx="2.2093" fill="#EAEAEC"/><path d="M29.2093 75.5002c-1.4963 0-2.7093 1.213-2.7093 2.7093v13.2559c0 1.4963 1.213 2.7093 2.7093 2.7093h52.5814c1.4963 0 2.7093-1.213 2.7093-2.7093V78.2095c0-1.4963-1.213-2.7093-2.7093-2.7093H29.2093Z" fill="#fff" stroke="#DFE0E2"/><rect x="29.209" y="78.2092" width="13.2558" height="13.2558" rx="2.2093" fill="#DFE6FF"/><rect x="47.7676" y="81.9651" width="30.9302" height="5.74419" rx="2.2093" fill="#EAEAEC"/><path d="M112.209 24.5c-1.496 0-2.709 1.213-2.709 2.7093v13.2558c0 1.4963 1.213 2.7093 2.709 2.7093h121.582c1.496 0 2.709-1.213 2.709-2.7093V27.2093c0-1.4963-1.213-2.7093-2.709-2.7093H112.209Z" fill="#fff" stroke="#DFE0E2"/><rect x="114" y="30.8372" width="92" height="6" rx="2.2093" fill="#EAEAEC"/><path d="M112.209 50.5c-1.496 0-2.709 1.213-2.709 2.7093v13.2558c0 1.4963 1.213 2.7093 2.709 2.7093h121.582c1.496 0 2.709-1.213 2.709-2.7093V53.2093c0-1.4963-1.213-2.7093-2.709-2.7093H112.209Z" fill="#fff" stroke="#DFE0E2"/><rect x="114" y="56.8372" width="67" height="6" rx="2.2093" fill="#EAEAEC"/><path d="M110 78.2093c0-1.2202.989-2.2093 2.209-2.2093h121.582c1.22 0 2.209.9891 2.209 2.2093v13.2558c0 1.2202-.989 2.2093-2.209 2.2093H112.209c-1.22 0-2.209-.9891-2.209-2.2093V78.2093Z" fill="#ADE2BF"/></svg>