<svg width="193" height="131" fill="none" xmlns="http://www.w3.org/2000/svg"><g clip-path="url(#a)"><path d="M47.5 12 0 41l76 44.5L126 57 47.5 12Z" fill="#fff"/><path d="M8.15457 38.2188 73.5078 82.6003" stroke="#000" stroke-width="2.3" stroke-linecap="round"/><path d="M75.5688 81.2891c4.7205-1.9791 9.2419-4.0885 13.8534-6.1579 3.3491-1.5029 6.8079-2.8921 10.221-4.3341 4.5498-1.9224 8.9418-3.9818 13.2718-6.0762 1.309-.6334 3.483-1.4257 4.195-2.229" stroke="#000" stroke-width="2.5" stroke-linecap="round"/><path d="M51.825 16.5117c1.1881.4813 2.0615.9847 3.0471 1.6275 3.1765 2.072 6.2408 4.2028 9.3446 6.3107l13.8108 9.3789c9.2769 6.3 18.5539 12.6 27.8305 18.9001 2.779 1.8871 5.558 3.7743 8.337 5.6614M6.67966 36.7398c3.51694-2.2053 7.95714-3.9953 11.92434-5.9144 5.9895-2.8975 11.9978-5.776 17.8353-8.774 3.2273-1.6574 6.3603-3.369 9.6713-4.9707" stroke="#000" stroke-width="1.5" stroke-linecap="round"/><g clip-path="url(#b)"><path d="m42.1048 55.1492 6.0459 3.4904c.2897.1967.7843-.0373.4901-.2371l-6.0459-3.4903c-.3188-.188-.8137.0515-.4901.237ZM42.9081 54.5913l14.6284-7.162c.065-.0314.1031-.078.1059-.1295.0029-.0515-.0298-.1037-.0907-.1451-.061-.0414-.1453-.0686-.2343-.0757-.0891-.007-.1756.0067-.2406.0381l-14.6285 7.162c-.0649.0314-.103.078-.1059.1295-.0028.0515.0298.1037.0908.1451.0609.0414.1452.0686.2343.0757.089.007.1756-.0067.2406-.0381Z" fill="#131313"/><path d="M48.864 58.5012c5.0732-2.3864 9.9592-4.8943 14.6579-7.5237.3137-.1517-.146-.4639-.4597-.3122-4.6987 2.6294-9.5847 5.1373-14.6579 7.5237-.065.0315-.1031.0781-.106.1296-.0028.0515.0298.1037.0908.1451.061.0414.1452.0686.2343.0756.0891.0071.1756-.0066.2406-.0381ZM57.8719 47.5612c1.7575 1.0956 3.6449 2.1183 5.6453 3.0587.3533.1658.7043-.1429.3705-.3183-1.9558-.916-3.8032-1.9114-5.5257-2.9775-.2942-.1998-.7889.0342-.4901.2371ZM44.1051 54.667c6.1945-1.0684 12.0636-2.5882 17.4781-4.5258.355-.1236-.1096-.4334-.4597-.3122-5.3774 1.9112-11.2017 3.4094-17.3458 4.4618-.4044.0673-.0859.4318.3274.3762Z" fill="#131313"/><path d="M49.9078 57.2021c2.1266-3.1187 4.8724-6.0518 8.1862-8.7446.2397-.1961-.3339-.4318-.5921-.2481-3.3397 2.7245-6.102 5.6926-8.2348 8.8482-.1506.2226.4944.3757.6453.1476l-.0046-.0031ZM60.573 45.8089l4.4574 2.4572c.324.1801.8186-.0538.4901-.237l-4.4575-2.4572c-.3334-.1809-.8234.0562-.49.237ZM65.1797 49.2818l14.7634-7.4465c.065-.0314.1031-.078.1059-.1295.0029-.0515-.0298-.1037-.0908-.1451-.0609-.0414-.1452-.0686-.2343-.0757-.089-.007-.1756.0067-.2406.0381L64.72 48.9696c-.065.0314-.1031.078-.106.1295-.0028.0515.0298.1037.0908.1451.061.0414.1452.0686.2343.0757.0891.007.1756-.0067.2406-.0381ZM61.5918 45.4246l12.1441-6.5696c.3137-.1518-.146-.464-.4597-.3122l-12.1441 6.5696c-.3136.1517.1461.4639.4597.3122Z" fill="#131313"/><path d="M73.8072 38.4923c2.2425 1.1224 4.3295 2.349 6.2366 3.6654.061.0414.1452.0686.2343.0756.0891.0071.1756-.0066.2406-.0381.065-.0314.1031-.078.1059-.1295.0029-.0515-.0298-.1037-.0907-.1451-1.946-1.3455-4.0744-2.6003-6.3608-3.7497-.3435-.1706-.6898.1413-.3659.3214ZM61.8135 45.9801c5.4212-1.6373 11.1416-2.964 17.0893-3.9635.4044-.0673.0859-.4318-.3274-.3762-5.9441 1.0037-11.6587 2.3365-17.0713 3.9815-.3685.1087-.05.4732.3323.3738l-.0229-.0156Z" fill="#131313"/><path d="M65.3359 48.6119c2.4633-2.6294 4.6445-5.3571 6.5326-8.1692.1555-.2249-.4944-.3756-.6404-.1499-1.871 2.78-4.0298 5.4772-6.4656 8.078-.1929.2109.3755.4544.5871.2505l-.0137-.0094ZM52.6323 61.1575l23.8865-11.9132 6.7736-3.3783c.065-.0314.1031-.078.106-.1295.0028-.0515-.0299-.1037-.0908-.1451-.061-.0414-.1453-.0686-.2343-.0757-.0891-.007-.1756.0067-.2406.0381L58.9461 57.467l-6.7735 3.3783c-.065.0314-.1031.078-.106.1295-.0028.0515.0298.1037.0908.1451.061.0414.1452.0686.2343.0757.0891.007.1756-.0067.2406-.0381ZM66.1413 70.3293l23.8866-11.9131 6.7735-3.3783c.065-.0314.1031-.078.106-.1295.0028-.0515-.0298-.1037-.0908-.1451-.0609-.0414-.1452-.0686-.2343-.0757-.089-.007-.1756.0067-.2406.0381L72.4552 66.6389l-6.7736 3.3782c-.065.0315-.1031.0781-.1059.1296-.0029.0515.0298.1037.0907.1451.061.0414.1453.0686.2343.0756.0891.0071.1756-.0066.2406-.0381Z" fill="#131313"/><path d="m52.3885 61.1866 2.4852 1.6364c.0609.0414.1452.0686.2343.0757.089.007.1756-.0067.2406-.0381.065-.0315.1031-.0781.1059-.1296.0029-.0515-.0298-.1037-.0908-.1451l-2.499-1.6458c-.2942-.1998-.7843.0373-.49.2371l.0138.0094ZM20.1862 39.0765l12.5269-5.8653 12.5264-5.8598 7.0682-3.3094c.0667-.0302.1074-.076.1129-.1273.0056-.0513-.0244-.1039-.0833-.1463-.0589-.0423-.1419-.071-.2308-.0796-.0889-.0086-.1763.0035-.2431.0337l-12.5041 5.8759-12.527 5.8653-7.0904 3.2934c-.0668.0302-.1074.076-.113.1273-.0055.0513.0244.1039.0834.1462.0589.0424.1419.071.2308.0796.0888.0087.1763-.0035.2431-.0337ZM82.96 45.678l.6518-.3153c.0634-.032.1004-.0785.1032-.1297.0029-.0512-.0287-.1031-.088-.1449-.061-.0414-.1453-.0686-.2343-.0757-.0891-.007-.1756.0067-.2406.0381l-.6518.3153c-.0634.0321-.1004.0786-.1033.1298-.0028.0512.0288.1031.0881.1449.061.0414.1453.0686.2343.0756.0891.0071.1756-.0066.2406-.0381Z" fill="#131313"/><path d="m83.6865 45.3923 2.4937 2.0012c.2648.2141.7548-.023.49-.237l-2.4937-2.0013c-.2648-.214-.7549.0231-.49.2371ZM55.5922 63.3804c2.9049 2.1223 6.052 4.1721 9.2879 6.0493.176.101.351.1749.4865.2055.0671.0151.1225.0191.163.0118.0405-.0073.0653-.0258.0731-.0545.0078-.0286-.0017-.0668-.0279-.1124s-.0686-.0977-.1247-.1533c-.0561-.0557-.1249-.1137-.2025-.1709-.0775-.0572-.1622-.1123-.2494-.1624-3.1189-1.8107-6.1514-3.7878-8.9487-5.8343-.1601-.1088-.337-.2017-.4918-.2584-.1548-.0568-.2749-.0726-.3338-.0441-.0554.0304-.0467.1012.0245.1977.0711.0964.1991.211.3571.3196l-.0133.0064Z" fill="#131313"/><path d="M85.3678 46.2731c3.1611 2.5771 6.7547 5.0741 10.6706 7.4147.113.0674.2454.1185.368.1421.1226.0236.2253.0177.2856-.0163.0602-.034.0731-.0935.0358-.1652-.0374-.0717-.1219-.1498-.2349-.2172-3.835-2.3007-7.3536-4.753-10.4489-7.2825-.0482-.0378-.1047-.0735-.1663-.1053-.0615-.0317-.1269-.0589-.1924-.0798-.1323-.0422-.257-.0567-.3467-.0402-.0896.0165-.1369.0627-.1315.1282.0055.0656.0633.1453.1607.2215Z" fill="#131313"/><path d="M33.7249 40.9414c-.9224.9449-1.2303 1.8467-.9225 2.9901.3494 1.2976 2.3586 2.0566 4.3182 2.513 2.915.6788 5.1625-.0316 7.0856-1.0975 1.6227-.8992 2.3092-1.5918 2.2585-2.9265-.0475-1.2516-1.1541-2.8504-2.8549-3.7456-.957-.5037-1.8151-.4533-2.9504-.4533-1.7807 0-3.7668.2731-5.185.8589-.672.2776-.8034.8007-1.3201 1.1452M47.1805 35.9283c1.8486-1.1388 3.618-2.3514 5.7894-3.2923.6003-.2602 1.21-.4577 1.5109-.8589M48.755 37.5052c1.5051-1.0387 2.998-1.9188 4.8669-2.7197" stroke="#000" stroke-width=".5" stroke-linecap="round"/></g><path d="M73.8835 78.9566C87.036 73.4179 99.995 67.6198 112.439 61.6c.441-.213-.277-.5721-.607-.4123-12.5544 6.073-25.4032 11.8178-38.5557 17.3565-.3303.1598.2769.5722.6072.4124Z" fill="#010101"/><path d="M73.1649 78.5988c-4.9857-3.0016-9.641-6.1631-13.8647-9.4156-.4048-.2749-.8542.0602-.6607.3197 4.3249 3.3212 8.9802 6.4826 13.8647 9.4155.5149.2217 1.1757-.098.6607-.3196Z" fill="#010101"/><path d="M61.0304 70.231c-4.563-2.9707-9.0159-5.9947-13.2486-9.1252-.4048-.2749-.8542.0602-.6607.3196 4.2326 3.1306 8.5754 6.2078 13.2486 9.1252.4048.2749 1.0655-.0447.6607-.3196Z" fill="#010101"/><path d="M49.0873 62.1189c-2.8069-2.2904-6.0454-4.4896-9.4029-6.5136-.4048-.2749-.9644.1134-.6608.3196 3.5689 2.0395 6.596 4.2233 9.4029 6.5136.4048.2749 1.0656-.0447.6608-.3196Z" fill="#010101"/><path d="M40.9926 56.6225c-5.0691-3.3143-9.8166-6.6665-14.6654-10.0874-.4048-.2749-.8543.0602-.6608.3197 4.7387 3.4741 9.5964 6.773 14.6654 10.0873.515.2217.9644-.1134.6608-.3196Z" fill="#010101"/><path d="M27.4854 46.6823c-1.7204-1.1684-3.4498-2.2148-5.1702-3.3831-.4048-.2749-.9643.1134-.6607.3196 1.7204 1.1684 3.4498 2.2147 5.1702 3.3831.4048.2749 1.0656-.0447.6607-.3196Z" fill="#010101"/><path d="M11.8008 37.4366c7.3967 4.8951 14.5821 9.7747 21.8687 14.723.4048.2749.8542-.0602.6607-.3196-7.1764-5.0016-14.3618-9.8812-21.8686-14.723-.4048-.2749-1.0656.0447-.6608.3196Z" fill="#010101"/><path d="M12.1314 37.2808c12.8845-6.2329 25.8614-12.275 39.0495-18.3016.4405-.2131-.1756-.5035-.6072-.4124-13.2894 5.9579-26.165 12.0688-39.0495 18.3016-.2292.2286.2768.5722.6072.4124Z" fill="#010101"/><path d="M50.7585 18.9469c14.719 9.3553 28.7772 19.0304 41.9544 29.1315.4048.275.8542-.0601.6607-.3196-13.2873-10.0479-27.2354-19.7762-41.9543-29.1316-.3036-.2061-.9644.1135-.6608.3197Z" fill="#010101"/><path d="M91.8379 46.9732c5.9918 5.2216 15.1681 9.0203 20.7281 14.333.194.2594 1.057.0772.652-.1977-5.551-5.4346-14.7365-9.1114-20.7283-14.3329-.1935-.2595-.9465-.1306-.6518.1976Z" fill="#010101"/><path d="M65.5476 44 9 78.5238 99.4762 131.5 159 97.5714 65.5476 44Z" fill="#fff"/><path d="m17.9283 79.9648 81.4479 47.0202" stroke="#000" stroke-width="2.3" stroke-linecap="round"/><path d="M101.709 125.25c5.433-2.76 10.618-5.657 15.914-8.514 3.846-2.075 7.832-4.025 11.759-6.034 5.236-2.677 10.272-5.504 15.23-8.366 1.5-.866 4.012-1.995 4.787-3.011" stroke="#000" stroke-width="2.5" stroke-linecap="round"/><path d="M67.8934 50.3945c1.4524.4683 2.5332.9901 3.7592 1.6678 3.9514 2.1843 7.7746 4.4481 11.6428 6.6813 5.7373 3.3121 11.4747 6.6243 17.2116 9.9364 11.562 6.6746 23.124 13.3491 34.685 20.0236 3.464 1.9994 6.927 3.9987 10.39 5.9981M16.0488 78.3343c3.9842-2.9238 9.1006-5.4346 13.6442-8.0576 6.8599-3.9602 13.7437-7.8996 20.4142-11.966 3.6878-2.248 7.259-4.5523 11.0512-6.7415" stroke="#000" stroke-width="3" stroke-linecap="round"/><g clip-path="url(#c)" fill="#131313"><path d="m59.7074 97.115 7.4814 3.619c.3609.208.9279-.112.5613-.324l-7.4815-3.6191c-.3947-.1954-.9616.1318-.5612.3241ZM60.613 96.3857l16.7466-9.7736c.0744-.043.1156-.1016.1145-.163-.0011-.0614-.0444-.1205-.1204-.1644-.0759-.0438-.1784-.0688-.2847-.0695-.1064-.0006-.2079.0232-.2824.0661L60.0401 96.055c-.0744.0429-.1156.1016-.1145.163.0011.0614.0443.1205.1203.1644.076.0438.1784.0688.2848.0695.1063.0006.2079-.0232.2823-.0662Z"/><path d="M68.0238 100.507c5.8162-3.274 11.3996-6.6759 16.7502-10.2057.3592-.2074-.2138-.5382-.573-.3308-5.3505 3.5299-10.9339 6.9318-16.7502 10.2055-.0744.043-.1156.102-.1145.163.0011.062.0444.121.1204.165.0759.043.1784.068.2847.069.1064.001.2079-.023.2824-.066ZM77.7691 86.7381c2.1817 1.1483 4.5115 2.1986 6.9682 3.1415.434.1662.8238-.2309.4124-.4101-2.4018-.9177-4.6816-1.9392-6.8193-3.0554-.3667-.2117-.9337.109-.5613.324ZM62.0404 96.3644c7.2621-1.8065 14.0985-4.1205 20.359-6.8911.4108-.1776-.1678-.5051-.573-.3308-6.2186 2.7361-13.0038 5.0206-20.2074 6.8036-.4742.1151-.0644.5201.4214.4183Z"/><path d="M69.1505 98.8754c2.2542-3.8875 5.2596-7.6084 8.9602-11.0932.2677-.2538-.4339-.4838-.7245-.2433-3.7287 3.5249-6.7506 7.2887-9.0089 11.2206-.1595.2773.6196.4031.7789.1192l-.0057-.0033ZM72.7286 103.332l27.3264-16.2185 7.749-4.5992c.074-.043.115-.1016.114-.163-.001-.0614-.044-.1205-.12-.1644-.076-.0439-.178-.0689-.285-.0695-.106-.0006-.208.0232-.282.0661L79.9046 98.4022l-7.749 4.5988c-.0744.043-.1156.102-.1145.163.0011.062.0444.121.1204.165.0759.044.1784.069.2847.069.1064.001.2079-.023.2824-.066ZM89.5644 113.055l27.3266-16.2189 7.749-4.5992c.074-.0429.115-.1016.114-.163-.001-.0613-.044-.1205-.12-.1643-.076-.0439-.179-.0689-.285-.0695-.106-.0007-.208.0231-.282.0661L96.7405 108.125l-7.749 4.599c-.0744.043-.1156.102-.1145.163.0011.061.0444.121.1203.164.076.044.1784.069.2848.07.1064.001.2079-.023.2823-.066Z"/><path d="m72.4415 103.387 3.0928 1.728c.076.043.1784.068.2848.069.1063.001.2079-.023.2823-.066.0744-.043.1156-.102.1145-.163-.0011-.061-.0443-.121-.1203-.164l-3.11-1.738c-.3667-.211-.928.113-.5613.325l.0172.009ZM32.2877 79.9311l14.364-8.0516 14.3638-8.0451 8.1048-4.543c.0766-.0416.1209-.0995.1231-.1609.0021-.0614-.038-.1213-.1117-.1664-.0736-.0452-.1747-.072-.2809-.0745-.1063-.0025-.2091.0195-.2857.0611L54.229 67.0128l-14.364 8.0517-8.1325 4.5259c-.0767.0417-.121.0996-.1231.161-.0022.0613.038.1212.1116.1664.0736.0452.1747.072.281.0745.1062.0025.209-.0195.2857-.0612ZM107.393 82.3211l.746-.431c.073-.0435.113-.1019.112-.163-.001-.061-.043-.1199-.117-.1644-.076-.0438-.179-.0688-.285-.0694-.107-.0007-.208.0231-.283.0661l-.746.4309c-.073.0436-.112.102-.111.163.001.0611.043.12.117.1644.076.0439.178.0689.285.0695.106.0006.207-.0231.282-.0661Z"/><path d="m108.23 81.9165 3.135 2.1596c.333.2311.894-.0929.561-.3241l-3.134-2.1595c-.333-.2311-.895.0929-.562.324ZM76.436 105.718c3.6333 2.268 7.5479 4.428 11.5528 6.376.2178.105.4319.177.5955.202.081.012.1471.012.1945 0 .0475-.013.0754-.037.0821-.071.0067-.035-.0078-.08-.0429-.131-.035-.052-.0898-.11-.1613-.172-.0715-.061-.1582-.124-.2552-.185-.0971-.061-.2025-.119-.3103-.171-3.8604-1.879-7.6325-3.963-11.1314-6.15-.1995-.115-.4176-.21-.6064-.264-.1888-.054-.3327-.063-.4001-.024-.0632.041-.0467.125.0462.233.0928.108.2547.233.4517.348l-.0152.009Z"/><path d="M110.303 82.8211c3.977 2.7852 8.461 5.438 13.313 7.8769.14.0702.302.1194.45.1368.147.0174.269.0015.337-.0442.069-.0456.079-.1172.028-.1991-.05-.0819-.157-.1674-.297-.2376-4.753-2.3986-9.144-5.0047-13.039-7.7393-.06-.0406-.13-.0782-.206-.1105-.076-.0324-.156-.0589-.236-.078-.16-.0387-.31-.045-.415-.0177-.105.0274-.157.0863-.145.1637.012.0774.088.1669.21.249Z"/></g><path d="M99.5061 122.625c15.1349-7.718 30.0179-15.728 44.2699-23.9556.505-.2913-.378-.6553-.757-.4369-14.378 8.3005-29.135 16.2375-44.2696 23.9555-.3784.218.3783.655.7567.437Z" fill="#010101"/><path d="M98.6217 122.262c-6.1801-3.131-11.9819-6.48-17.2792-9.975-.5045-.292-1.009.145-.7567.437 5.4234 3.567 11.2252 6.917 17.2792 9.975.6306.218 1.3874-.219.7567-.437Z" fill="#010101"/><path d="M83.4877 113.381c-5.6756-3.131-11.2252-6.335-16.5224-9.684-.5046-.291-1.0091.145-.7568.437 5.2973 3.349 10.7207 6.626 16.5224 9.684.5045.291 1.2613-.146.7568-.437Z" fill="#010101"/><path d="M68.6033 104.787c-3.5315-2.476-7.5676-4.8055-11.7297-6.9171-.5045-.2912-1.1351.2184-.7568.4369 4.4144 2.1112 8.1982 4.4412 11.7297 6.9172.5045.291 1.2613-.146.7568-.437Z" fill="#010101"/><path d="M58.515 98.963c-6.3063-3.495-12.2342-7.0628-18.2882-10.7034-.5045-.2913-1.009.1456-.7567.4369 5.9279 3.7134 11.9819 7.2084 18.2882 10.7034.6306.2184 1.1351-.2185.7567-.4369Z" fill="#010101"/><path d="M41.6148 88.3308c-2.1441-1.2378-4.2882-2.33-6.4324-3.5678-.5045-.2912-1.1351.2185-.7567.4369 2.1441 1.2378 4.2882 2.33 6.4324 3.5678.5045.2913 1.2612-.1456.7567-.4369Z" fill="#010101"/><path d="M22.1899 78.7223c9.2071 5.1697 18.162 10.3394 27.2431 15.5819.5045.2912 1.009-.1457.7567-.4369-8.9549-5.3153-17.9098-10.485-27.2431-15.5818-.5045-.2913-1.2612.1456-.7567.4368Z" fill="#010101"/><path d="M22.5685 78.4996C37.3252 69.9806 52.208 61.68 67.3431 53.3794c.5045-.2913-.2523-.5825-.7568-.4369-15.2612 8.2278-30.0179 16.6012-44.7746 25.1202-.2522.2913.3784.6553.7568.4369Z" fill="#010101"/><path d="M66.8388 53.3818C85.127 63.2115 102.658 73.478 119.181 84.327c.504.2913 1.009-.1456.757-.4369-16.649-10.7762-34.0542-21.1155-52.3424-30.9452-.3784-.2184-1.1351.2185-.7568.4369Z" fill="#010101"/><path d="M118.046 83.0895c7.568 5.6793 18.793 9.3928 25.856 15.2178.252.2912 1.261 0 .757-.2913-7.064-5.9706-18.289-9.5384-25.856-15.2178-.252-.2912-1.135-.0728-.757.2913Z" fill="#010101"/><path d="M116.427 78.1426c4.282-10.3877 10.417-19.8921 16.525-29.3287l19.293-29.8377c1.165-2.0631 2.695-3.8978 4.515-5.415 1.065-.7927 2.277-1.3487 3.327-2.1562 1.921-1.47695 3.165-3.63505 4.647-5.54736 1.483-1.91231 3.452-3.71953 5.869-3.89634 2.869-.23707 6.477 2.27857 6.637 5.24156-.056 1.53918-.377 3.05714-.949 4.48724-.914 2.9235-1.56 5.916-2.214 8.9113-.19.7583-.264 1.5409-.219 2.3213.12.7336.305 1.4552.553 2.156 1.364 4.5313-.628 9.3421-2.789 13.5504-3.016 5.8971-6.432 11.5804-10.226 17.0101-1.48 2.1277-3.076 4.2638-5.293 5.5832-2.218 1.3195-5.235 1.6445-7.321.1112l-14.445 24.8133c-2.504 4.3309-5.422 8.9848-10.134 10.7522-2.825 1.0575-3.693 4.2699-6.685 4.9999-.88.214-1.799.224-2.684.028-.885-.195-1.713-.591-2.422-1.157-2.012-1.636-1.868-3.7068-.948-5.8661.503-.9549.95-1.9385 1.338-2.9456.625-2.1899.167-4.4164.896-6.6207.728-2.2043 1.78-4.8883 2.729-7.195Z" fill="#fff"/><path d="m117.735 97.5469.051-.1149.122-.2267.276-.4445c.095-.159.202-.312.303-.4533l.177-.2354c.087-.1265-.062.0205-.071.0824l.107-.1235c.231-.2824.48-.5411.72-.7969l-.104.1028.098-.091.213-.1881.45-.3642c.241-.1781.43-.4166.549-.6913.05-.1739.048-.3893-.155-.4697-.548-.2322-1.276.2725-1.684.5543-1.457 1.134-2.628 2.5926-3.421 4.2596-.04.083-.047.1785-.018.2662.029.0878.091.1608.173.2035.244.0763.508.0594.74-.0474.635-.2006 1.166-.6397 1.483-1.2248l-.009.0029Z" fill="#1A1512"/><path d="M119.685 94.5451c3.824-.7085 6.525-3.6017 8.779-6.5733 2.258-2.9652 4.185-6.1686 5.745-9.5531.661-1.4256-1.818-.5409-2.19.2691-1.303 2.8278-2.872 5.5251-4.686 8.0552-1.593 2.2335-3.638 5.3328-6.537 5.8648-.337.0543-.659.179-.944.3661-.286.187-.528.4322-.713.7194-.24.4624-.068.9263.531.8075l.015.0443Z" fill="#1A1512"/><path d="m133.717 80.0549 31.528-50.6523c.3-.4917.062-.7375-.458-.704-.656.1329-1.235.5172-1.612 1.0709L131.6 80.4275c-.3.4916-.062.7374.457.704.674-.1304 1.268-.5203 1.657-1.0855l.003.0089ZM169.938 22.6221c-.248-1.5883 1.25-2.7688 1.659-4.2101.128-.3464.173-.7175.134-1.0845-.039-.3669-.162-.72-.359-1.0319-.235-.296-.715-.5309-.764-.9176-.048-.3867.367-.9162.566-1.2666.808-1.6021 4.032-8.37042.215-8.47918-.65.0688-1.249.38191-1.677.87593-.225.2411-.688.8944-.009.89694.803.02072 1.15.92786 1.133 1.59167-.057.83368-.237 1.65434-.534 2.43514-.25.7943-.54 1.5752-.871 2.3395-.336.7689-.843 1.4958-1.135 2.2795-.292.7838.302 1.1578.766 1.7614.199.3261.302.7017.298 1.0836-.005.382-.117.7549-.324 1.0762-.562 1.2755-1.741 2.3805-1.502 3.9127.121.8148 2.537-.4714 2.413-1.2361l-.009-.0266Z" fill="#1A1512"/><path d="M164.631 14.3802c.821-1.6846 1.621-3.3723 2.465-5.04504.562-1.09846 1.637-2.84707 3.137-2.4077.392.11654.991-.57165.49-.72106-1.736-.52877-3.158.97069-3.98 2.29241-.526.85075-.925 1.78749-1.368 2.67989l-1.54 3.1395c-.018.0423-.025.0883-.02.1339.004.0456.019.0895.045.1277.025.0383.059.0698.099.0917.04.022.085.0337.131.0342.118-.0003.234-.0344.333-.0984.099-.0639.177-.155.226-.2624l-.018.0353Z" fill="#1A1512"/><path d="m164.506 14.8036 2.684-5.12689c.331-.79054.772-1.53078 1.309-2.19917.109-.13336.246-.24144.402-.31681.155-.07537.324-.11624.497-.1198.172-.00356.343.03028.502.09919.158.06891.299.17125.414.29998.235.29594 1.004-.23228.81-.52216-.261-.28149-.605-.47216-.982-.54417-.377-.07202-.768-.02161-1.114.14387-.856.38021-1.541 1.06405-1.922 1.91951-1.165 2.10235-2.238 4.27285-3.356 6.39905-.095.1885.017.3187.206.3253.114-.0085.225-.0457.321-.1083.096-.0626.175-.1484.229-.2496ZM163.453 16.0226c.91-.0238 1.811.1854 2.617.6077.806.4224 1.491 1.0439 1.989 1.8054.235.355 1.021-.1496.81-.5221-.556-.8325-1.314-1.5108-2.202-1.9722-.889-.4614-1.88-.6909-2.881-.667-.115.0061-.227.0435-.324.108-.096.0646-.173.154-.223.2587-.022.0399-.032.0849-.031.1303.002.0455.016.0897.04.1279.025.0382.059.069.1.0892.041.0201.086.0289.132.0253l-.027.0088Z" fill="#1A1512"/><path d="M162.673 17.2322c1.275.0797 2.502.5164 3.541 1.2601 1.038.7438 1.847 1.7646 2.333 2.9459.105.319.501.1789.699.0055.502-.5002.812-1.1602.878-1.8654.065-.7053-.118-1.4113-.518-1.9955-.892-1.4551-2.728-2.0491-4.269-2.524-.38-.1106-.994.5627-.504.7062 1.364.4153 2.95.8756 3.839 2.0857.652.8759.942 2.3817.062 3.1721l.691.0085c-.525-1.2949-1.408-2.4137-2.545-3.2257-1.137-.812-2.481-1.2837-3.876-1.36-.407-.0133-.876.7108-.307.7395l-.024.0471ZM168.651 23.4875c-.611-.7813-1.674-.4312-2.384.0087-.947.6606-1.748 1.5093-2.352 2.4933-1.525 2.1683-2.568 4.6385-3.058 7.244-.078.3892.738.0028.789-.2596.399-2.1432 1.181-4.1971 2.307-6.0637.493-.8007 2.669-4.5132 3.95-2.921.188.2427.948-.3121.81-.5221l-.062.0204Z" fill="#1A1512"/><path d="m161.985 29.886-.505 1.6593c-.098.3271.416.1284.522.0639 1.392-.8213 2.48-2.0721 3.1-3.5645.08-.2033-.197-.2102-.312-.1723-.108.0296-.207.0823-.292.1543-.085.0721-.153.1618-.2.2629-.525 1.231-1.433 2.2601-2.589 2.9349l.522.0639.507-1.6504c.06-.2063-.188-.2131-.312-.1723-.109.0265-.21.078-.295.1504-.085.0724-.152.1638-.196.2667l.05.0032Z" fill="#1A1512"/><path d="M163.589 30.3122c.59-.7643 1.253-1.4694 1.979-2.1052l-.567.1867 2.166 1.389c.265.178.987-.4035.687-.5993l-2.166-1.389c-.162-.1039-.458.072-.568.1867-.787.6852-1.503 1.4476-2.139 2.2757-.088.1177-.169.321.04.3601.112.0053.223-.0174.324-.066.101-.0486.187-.1215.253-.2121l-.009-.0266Z" fill="#1A1512"/><path d="M164.096 29.7618c1.132.2365 2.189.7448 3.081 1.481.232.1986.939-.3682.81-.5222-.922-.7538-2.015-1.2678-3.184-1.4961-.101-.013-.203-.0032-.3.0286-.097.0318-.185.0849-.258.1552-.053.0175-.332.3352-.143.3713l-.006-.0178Z" fill="#1A1512"/><path d="M167.216 31.7791c-.06-.2858-.041-.5825.055-.8583.096-.2757.266-.5199.491-.7064l-.651.2631c-2.208 5.8133-4.908 11.4277-8.07 16.7821-.767 1.2934-1.561 2.57-2.384 3.8298-.413.6269-.825 1.2538-1.249 1.8748-.253.3679-.615 1.116-1.152.9782-.106-.024-.267-.2459-.394-.3024-.302-.0906-.623-.0964-.927-.0169-.305.0795-.582.2413-.801.4677-.338.3303-.584.743-.713 1.1974-.13.4543-.138.9347-.025 1.3934.049.1507.797-.2625.789-.4366-.062-.6966-.23-1.5057.453-1.8779.683-.3721.465.1316 1.075.2844.113.0247.228.0331.343.0249.562-.1577 1.046-.52 1.355-1.0158 1.778-2.4333 3.402-4.9756 4.861-7.612 2.983-5.1117 5.546-10.4561 7.667-15.9811.057-.1561-.611.2013-.665.2188-.286.2185-.513.5059-.659.8355-.145.3296-.205.6908-.174 1.0498.05.1506.804-.2154.834-.4513l-.059.0588Z" fill="#1A1512"/><path d="M151.651 57.9346c-.288-.4118-.465-.8906-.514-1.3904-.049-.4998.031-1.0039.232-1.4639.099-.22.221-.4283.366-.6212.068-.0846.144-.1623.228-.2323.062-.0204.124-.0408.186-.1497.062-.109-.142.0466-.071.0233.074-.0002.148-.0049.221-.0139.427.0117.834.1827 1.141.4793.208.1867.922-.3919.81-.5222-.396-.3468-.909-.5293-1.435-.5099-.597.0662-1.144.3627-1.526.8263-.338.3461-.6.7601-.767 1.2147-.167.4546-.236.9394-.201 1.4225.017.5362.188 1.0561.493 1.4978.143.1982.886-.2918.81-.5222l.027-.0382Z" fill="#1A1512"/><path d="M151.704 55.2028c-.333.1705-.595.4541-.739.8001-.143.346-.159.7318-.044 1.0883.409 1.0932 1.737 1.0982 2.647.7299.938-.4417 1.73-1.142 2.283-2.0185 1.103-1.542 2.142-3.1314 3.207-4.7 4.142-6.1571 8.5-12.5228 11.338-19.449 1.102-2.6219 1.433-6.7485-2.033-7.7293-.239-.0688-.816.5044-.71.5579 3.519.9928 2.969 5.2603 1.844 7.8407-1.48 3.2799-3.169 6.4609-5.058 9.5232-1.838 3.0706-3.79 6.0611-5.781 9.0248-.994 1.4863-1.977 2.9491-3.009 4.4382-.659.983-1.573 2.5316-3.023 2.1249-.608-.1735-1.674-1.4138-.807-2.0036.44-.3022.303-.5417-.156-.2336l.041.006Z" fill="#1A1512"/><path d="M167.068 24.0208c3.534.0841 4.362 4.3007 3.674 7.0126-.928 3.4487-3.065 6.7454-4.814 9.8162-1.863 3.2948-3.864 6.527-5.891 9.7385-.965 1.5454-1.912 3.144-2.956 4.6272-1.172 1.6626-2.892 3.1521-5.119 2.353-.327-.1281-.976.4979-.516.6708 3.703 1.4331 6.165-2.6678 7.8-5.2493 2.455-3.8826 4.907-7.7741 7.188-11.7665 1.173-2.0462 2.299-4.1163 3.357-6.2131.971-1.6884 1.644-3.5314 1.989-5.4482.353-2.8371-1.228-6.1477-4.415-6.2187-.365-.0072-.893.6871-.341.6921l.044-.0146ZM117.07 97.2818c-.156-.004-.312-.0184-.466-.0431l-.177-.0302-.221-.0746c-.293-.1031-.566-.2558-.807-.4515-.113-.0859-.218-.1832-.312-.2903-.12-.1273-.386.0192-.499.0955-.096.0561-.178.1335-.239.2263l-.04.2093c.277.2966.611.5337.982.697.372.1632.772.2491 1.178.2524.219-.0249.422-.1266.573-.287.062-.0205.113-.1353.116-.215-.004-.0287-.018-.055-.041-.0732-.022-.0182-.051-.0271-.08-.0246l.033.009Z" fill="#1A1512"/><path d="m115.372 97.5584 1.777-5.7617c.057-.1857-.153-.1364-.268-.0984-.115.0379-.449.2166-.497.3994l-1.765 5.7676c-.066.1886.144.1393.259.1013.208-.0734.383-.218.494-.4082Z" fill="#1A1512"/><path d="m116.236 97.7355 1.394-5.9697c.048-.2123-.185-.2338-.33-.196-.11.0264-.211.0789-.296.153-.085.0742-.151.1679-.192.273l-1.398 5.9608c-.048.2123.188.2427.333.2049.109-.0278.21-.0808.295-.1548.085-.074.151-.1669.194-.2712Z" fill="#1A1512"/><path d="M117.242 92.8562c-.708-3.4301-.364-6.9941.986-10.2259.077-.1827-.171-.1305-.268-.0984-.211.0652-.389.208-.498.3994-1.376 3.2661-1.73 6.8725-1.015 10.3439.082.2481.853-.1827.795-.419Z" fill="#1A1512"/><path d="M117.116 92.56c-.252-4.0946.683-8.175 2.694-11.7509.113-.1943-.043-.3395-.223-.349-.115.0067-.226.0433-.323.106-.096.0628-.175.1496-.227.2519-2.079 3.6814-3.039 7.889-2.763 12.1077.019.4161.861.0209.86-.3715l-.018.0058ZM121.234 81.1356c2.413 1.2001 4.603 2.8051 6.474 4.7452.22.2221.966-.318.81-.5222-1.903-1.9605-4.127-3.5806-6.577-4.7898-.259-.1308-.96.4537-.692.5816l-.015-.0148Z" fill="#1A1512"/><path d="M122.35 80.8873c2.325.71 4.344 2.1794 5.735 4.173.261.3757 1.045-.1377.81-.5222-1.466-2.0901-3.585-3.6348-6.023-4.3924-.415-.1285-.999.5745-.487.7299l-.035.0117ZM118.078 91.8722c.381-.1255.694-.8767.109-.6841-.381.1254-.694.8766-.109.6841Z" fill="#1A1512"/><path d="M117.573 91.9198c.862.7179 1.773 1.3731 2.728 1.9606 0 0 .177-.0583.213-.07.113-.0459.218-.1103.31-.1906.08-.0263.311-.2497.164-.3387-.907-.5587-1.774-1.1791-2.596-1.8569-.214-.1748-.907.4068-.81.5222l-.009-.0266ZM117.488 93.3615l.556.5539c.017.0531.118.0299.171.0124.108-.0155.213-.0501.31-.1021.096-.0577.182-.1323.252-.2203l.062-.0205c.003-.016.002-.0326-.003-.0482-.005-.0155-.014-.0295-.027-.0404l-.555-.5538c-.018-.0532-.118-.03-.171-.0125-.11.0122-.215.0469-.31.1021-.099.0525-.185.1245-.255.2115l-.044.0736c-.005.0144-.004.0297 0 .0439.005.0143.014.0267.026.0359l-.012-.0355ZM117.482 84.0916c10.179-17.7577 20.82-35.2186 31.921-52.3828 3.14-4.8448 6.317-9.6591 9.529-14.4427.276-.415-.569-.1172-.72.1094-11.386 16.9762-22.303 34.2561-32.749 51.8398-2.951 4.9596-5.857 9.9401-8.716 14.9414-.249.4358.584.1321.72-.1094l.015.0443Z" fill="#1A1512"/><path d="M118.15 83.0184c10.451-17.8472 21.433-35.3944 32.946-52.6415 1.579-2.3664 3.178-4.7199 4.798-7.0605.887-1.2742 1.73-2.6224 2.669-3.8257.94-1.2033 2.389-2.8 4.255-2.3828.286.063.961-.5423.548-.6324-1.86-.3699-3.466.7188-4.669 2.0479-1.616 1.9746-3.093 4.0592-4.42 6.2386-3.113 4.5873-6.18 9.1984-9.199 13.8332-6.172 9.281-12.161 18.7083-17.969 28.2818-3.283 5.3833-6.51 10.8002-9.68 16.2508-.264.4505.578.1733.729-.0828l-.008-.0266ZM122.859 80.6697c.336-.1109.717-.8058.158-.622-.336.1108-.717.8058-.158.622Z" fill="#1A1512"/><path d="M123.038 80.1695c.938-3.1182 3.061-5.9192 4.75-8.6658l5.605-9.1139 5.57-9.1023c.469-.7536 1.532-1.9682 1.247-2.9548-.286-.9865-1.13-.8658-1.736-.4107-.459.3081-.23.6748.237.3638.468-.311.635.5866.664.7637.028.4418-.108.8782-.382 1.226-.369.6714-.805 1.3159-1.206 1.9783l-2.431 3.9535-4.75 7.6537-4.729 7.7157c-1.495 2.1206-2.718 4.4208-3.64 6.8464-.111.3803.72.0087.798-.2625l.003.0089Z" fill="#1A1512"/><path d="m137.395 51.2108.053-.0175c-.142.0467-.097.0321-.053.0175l.097-.032c-.115.0379-.071.0233 0 0 0 0 .071-.0234.089-.0292l-.053.0175.044-.0146c.066.0121.13.0342.189.0656l-.08-.0327c.133.0533.254.1342.353.2373l-.023-.0709c.1.0942.178.2094.229.3373l.009.0265c.048.0878.08.1841.093.2837l-.026-.0798c-.001.0586-.008.1169-.022.174-.048.2123.194.2899.368.2522.111-.0251.213-.0792.297-.1566.083-.0774.144-.1755.177-.2842.019-.1785 0-.3591-.056-.5295-.056-.1705-.148-.3271-.27-.4591-.121-.1321-.27-.2366-.435-.3066-.165-.07-.344-.1039-.523-.0994-.27.0056-.533.0919-.753.248-.101.0599-.181.1478-.232.2529-.02.0392-.031.0831-.03.1275.001.0444.013.0878.035.1262.127.1746.404.093.549-.0038l-.026-.0503ZM122.916 78.0979l-1.898 2.4124s-.104.1324-.062.1679l.708.6016c.195.1719.849-.4069.811-.5221l-.7-.6046-.054.1651 1.898-2.4124s.089-.1177.053-.165c-.035-.0474-.135-.0241-.171-.0125-.214.0637-.405.188-.55.3579l-.035.0117ZM116.783 86.3583c1.094.0686 2.163.3609 3.139.8589.977.498 1.841 1.191 2.539 2.0362.109.1214.479-.1575.396-.2581-.714-.8616-1.597-1.5673-2.595-2.0735-.998-.5062-2.089-.8021-3.206-.8694-.055.0018-.11.0155-.159.0403-.05.0248-.093.06-.128.1032 0 0-.095.159.05.1507l-.036.0117ZM158.173 17.5569c.178-.5733.522-1.0812.988-1.4599.466-.3788 1.033-.6117 1.631-.6695 1.424-.084 2.848.1595 4.164.712.144.0507.47-.2431.346-.2908-1.533-.4779-3.218-1.033-4.834-.5994-.629.1343-1.211.4321-1.688.8634-.478.4313-.833.9808-1.03 1.5931-.048.1827.36-.0105.39-.1284l.033-.0205ZM134.424 84.1769c.887-.2917.741-1.5404-.27-1.2078-1.01.3326-.74 1.5404.27 1.2078ZM135.357 82.5001c.602-.1984 1.285-1.4056.275-1.073-.603.1984-1.286 1.4055-.275 1.073ZM118.343 77.9628c.292-.0963 1.5-1.1127.8-.8822-.302.0992-1.5 1.1126-.8.8822ZM114.926 85.7569c.319-.105.797-.8025.194-.6042-.319.1051-.796.8026-.194.6042ZM134.235 82.3492c.399-.1313.688-.8944.13-.7106-.399.1313-.732.909-.13.7106Z" fill="#1A1512"/><path d="M115.092 90.3497c-.231-5.8961 2.774-11.1487 5.605-16.098l10.059-17.5447c.086-.1561-.161-.2809-.247-.1249-3.477 6.0888-6.955 12.1746-10.434 18.2574-2.724 4.7668-5.448 9.8581-5.239 15.4768.001.0372.018.0721.045.0971.028.025.064.038.102.0362.037-.0018.072-.0183.097-.0459.025-.0276.038-.0639.036-.1011l-.024.0471ZM114.946 91.5765c-.522 1.3996-1.049 2.7814-1.571 4.181-.27.5735-.424 1.1948-.454 1.8282-.029.6334.068 1.2663.284 1.8623.221.4344.564.795.988 1.036.423.241.908.353 1.394.321 1.108-.042 2.155-.52 2.911-1.3312 1.114-1.2396 2.134-2.5603 3.051-3.9512.11-.1441-.108-.3279-.208-.1867-.882 1.3231-1.847 2.5888-2.889 3.7895-.953 1.0116-2.402 1.8326-3.828 1.2606-1.612-.6289-1.551-2.5938-1.13-3.9701.46-1.5857 1.127-3.1411 1.705-4.6968.063-.168-.188-.3017-.25-.1337l-.003-.0089Z" fill="#1A1512"/><path d="M121.409 95.9335c3.176-.348 5.398-2.7001 7.139-5.1691 2.237-3.1429 4.244-6.4754 6.339-9.719l13.325-20.5451c.098-.1501-.149-.2749-.247-.1248l-12.29 18.9762-6.075 9.3866c-1.955 3.0111-4.329 6.4839-8.205 6.9149-.168.0554-.166.3003.014.2803ZM131.121 56.0279l14.709-22.6996 7.292-11.2409c1.267-1.9397 2.466-3.9357 3.798-5.8279.595-.9749 1.436-1.7767 2.438-2.3254 1.001-.5487 2.129-.825 3.271-.8015.18.0096.167-.2708-.01-.2715-4.254-.1812-6.083 3.4559-8.113 6.57l-7.921 12.2241-15.711 24.2479c-.098.1501.149.2749.247.1248ZM163.142 12.8051c.764-2.2907 1.888-4.44493 3.331-6.38141 1.373-1.79765 3.681-3.47081 6.008-2.48838 1.803.76212 2.618 2.91026 2.543 4.74229-.141 2.2567-1.476 4.258-2.719 6.0621-.098.1501.111.3368.209.1867 1.901-2.7576 3.995-6.3642 1.965-9.63517-.393-.65799-.97-1.18688-1.659-1.52177-.69-.33488-1.462-.46121-2.222-.36348-.929.16954-1.811.53221-2.59 1.06451-.779.5323-1.438 1.22236-1.933 2.02547-1.372 1.91452-2.453 4.02134-3.208 6.25204-.053.165.221.2221.275.0571Z" fill="#1A1512"/><path d="M172.587 15.1199c1.502.8023.736 2.8028.339 4.014l-1.572 4.5941c-.063.1679.22.2221.274.0571.597-1.7681 1.208-3.5214 1.793-5.2955.406-1.2141.639-2.8921-.709-3.6171-.156-.0862-.281.1612-.125.2474ZM172.006 23.5909c2.878 3.5515 1.182 8.1274-.613 11.744-1.796 3.6166-3.802 7.2825-5.901 10.7829-2.032 3.5905-4.272 7.0598-6.707 10.3904-1.085 1.6303-2.742 2.7932-4.645 3.2577-.934.1778-1.895.1611-2.823-.049-.928-.2101-1.802-.6091-2.569-1.1722-.144-.1097-.328.108-.186.2088.999.7361 2.171 1.2026 3.403 1.3545 1.232.1519 2.482-.0159 3.63-.4872 2.826-1.205 4.478-4.3028 6.063-6.7399 2.095-3.2044 4.082-6.4779 5.961-9.8208 1.89-3.1837 3.591-6.4758 5.095-9.8594 1.316-3.164 1.867-6.9505-.445-9.7947-.114-.1391-.348.0164-.233.1555l-.03.0294Z" fill="#1A1512"/><path d="m148.279 58.6105-.756 1.5551c-.074.162.173.2868.251.1337l.761-1.5669c.016-.034.018-.073.005-.1084-.012-.0355-.038-.0645-.072-.0807-.034-.0161-.073-.0182-.109-.0056-.035.0126-.064.0388-.08.0728ZM157.63 102.152c.035-.012.065-.037.081-.07.017-.033.02-.072.008-.107-.011-.035-.036-.064-.07-.081-.033-.017-.071-.02-.106-.008-.036.012-.065.037-.082.07-.016.033-.019.071-.008.107.012.035.037.064.07.081.034.017.072.019.107.008Z" fill="#1A1512"/></g><defs><clipPath id="a"><path fill="#fff" d="M0 0h193v131H0z"/></clipPath><clipPath id="b"><path fill="#fff" transform="matrix(.9002 -.43547 .82727 .5618 16.2483 39.2969)" d="M0 0h39.191v67.7677H0z"/></clipPath><clipPath id="c"><path fill="#fff" transform="matrix(.86604 -.49997 .86604 .49997 27.6316 80.5391)" d="M0 0h46.6559v80.6759H0z"/></clipPath></defs></svg>