<svg width="96" height="96" fill="none" xmlns="http://www.w3.org/2000/svg"><g clip-path="url(#a)"><path d="M43.3273 13.6947c1.0639-.7736 2.2151-1.377 3.3884-1.9615.4875-.2424.0599-.9713-.4242-.7289-1.175.5793-2.3245 1.1862-3.3901 1.9615-.4344.3163-.0136 1.0538.4259.7289Z" fill="#010101"/><path d="M45.0903 12.0717c.6363-.0258 1.2366-.251 1.7104-.6843.402-.3679-.1933-.9661-.5969-.5999-.3028.2785-.703.4194-1.1135.4383-.5371.0207-.5422.8699 0 .8459Z" fill="#010101"/><path d="M45.5866 12.0133c1.081-.7736 2.2852-1.1002 3.5714-1.3564.532-.1083.3045-.92313-.2258-.81826-1.3529.27506-2.6323.63096-3.7698 1.44576-.4378.3129-.0171 1.0487.4242.7289Z" fill="#010101"/><path d="M47.8033 10.9371c1.0656.251 2.1277.2939 3.219.2939.5422 0 .5422-.8475 0-.8475-1.016 0-1.9995-.0309-2.9933-.2647-.5285-.12554-.7526.6928-.2257.8183Z" fill="#010101"/><path d="M48.8764 10.9372c.8655-.2476 1.772.0103 2.5999.2785.5182.1667.7372-.6481.2257-.8166-.9749-.3163-2.0354-.56732-3.048-.2802-.5233.1513-.301.9661.2224.8183Z" fill="#010101"/><path d="M50.0668 10.3766c1.1049.2785 2.073.6842 3.0035 1.3564.443.3215.8604-.4143.4242-.7289-.9869-.7169-2.0337-1.14839-3.2071-1.44581-.5251-.13065-.7474.68591-.2206.81831Z" fill="#010101"/><path d="M51.0394 10.547c.0838-.1135.1676-.1135.2497 0 .4054.3576 1.0057-.239.5952-.59655-.4772-.41603-.9647-.41603-1.4402 0-.4139.35755.1865.95245.5953.59655Z" fill="#010101"/><path d="M49.6097 10.6723c1.4881.0275 2.8171.4745 4.0264 1.3427.4413.3197.8586-.4143.4224-.7289-1.3221-.9524-2.8239-1.42692-4.4505-1.4613-.5388-.01031-.5388.8372.0017.8475Z" fill="#010101"/><path d="M51.3749 11.1727c1.1306.5622 2.2612 1.1226 3.3901 1.6848.4824.239.9117-.49.4242-.7324-1.1306-.5604-2.2612-1.1208-3.3901-1.6813-.4823-.2406-.9116.4883-.4242.7289Z" fill="#010101"/><path d="M52.5053 10.6139c1.3239.7891 2.6717 1.5953 3.5201 2.9311.2908.459 1.0211.0344.7269-.428-.9304-1.4648-2.3655-2.3639-3.8211-3.23374-.4686-.2785-.8928.45214-.4259.73064Z" fill="#010101"/><path d="M55.8122 12.23c.5285.5261 1.0433 1.0556 1.3016 1.7759.183.5054.9989.2871.8142-.2269-.3148-.8648-.8809-1.5094-1.5223-2.1472-.3866-.3851-.9801.2114-.5935.5982Z" fill="#010101"/><path d="M32.6064 87.2548h-.0051c-8.8977 0-14.0136-.2183-15.6334-.6721-6.3354-1.7862-5.3263-7.4439-5.3143-7.4972l2.8992-9.0461c.9236-2.0544 22.2596-49.3065 26.1252-53.8536 3.946-4.6434 9.1525-4.9426 9.3715-4.9529.1864-.0516.4669-.0842.7509-.0842 10.7637 0 30.6253 47.5393 35.3581 60.2763 1.6951 4.5661 1.7874 8.2674.2822 11.0059-1.6745 3.0429-4.7037 3.7134-4.8319 3.7443-.3661.0189-29.984 1.0796-49.0024 1.0796Zm18.1974-75.2775c-.219 0-.4328.0258-.6363.0756-.1283.0155-5.1518.3129-8.8532 4.6709-3.7921 4.4612-25.7643 53.1213-25.985 53.6165l-2.8718 8.9515c-.024.1513-.8484 4.9116 4.7396 6.4863 1.5223.4298 6.7049.6481 15.4042.6481 18.9978 0 48.5935-1.0607 48.91-1.071-.0342 0 2.7298-.6344 4.2111-3.3369 1.3769-2.5185 1.2623-5.9825-.3438-10.3079-5.9233-15.9501-25.1247-59.7331-34.5748-59.7331Z" fill="#010101"/><path d="M12.3219 83.0825c.2412-1.6624.2788-3.2698 0-4.9288-.0547-.3421-.6158-.4195-.7577-.098-.8672 1.9736-.8159 3.8217.6226 5.4858.1932-.1908.3917-.3937.5866-.588-.0923-.0945-.1847-.1839-.2805-.2819-.3352-.3318-.8774.098-.6499.5106.3831.7014.768 1.3701 1.0741 2.1094.2532-.1015.5063-.2115.7595-.3198-2.2031-3.5586-2.2031-6.5413 0-10.0965.2839-.4607-.4362-.8767-.7184-.416-2.3707 3.8216-2.3707 7.1086 0 10.932.2394.3902.9441.1375.7594-.3232-.3301-.8029-.7406-1.5438-1.158-2.3105-.2172.1684-.4344.3386-.6533.5071.094.0877.1847.184.2788.2751.3831.3833.9356-.1874.5866-.588-1.2058-1.4062-1.2007-2.8675-.4926-4.4783-.2514-.0344-.5045-.0671-.7577-.1014.2549 1.5145.2172 2.962 0 4.4817-.077.533.7235.7616.8005.2287Z" fill="#010101"/><path d="M11.4449 78.7537c1.1238-2.3242 1.7601-4.8324 2.788-7.1997.2121-.4899-.5028-.9094-.7166-.4195-1.0263 2.3638-1.6694 4.8755-2.7915 7.1998-.2309.4796.4875.9025.7201.4194Z" fill="#010101"/><path d="M11.5049 78.1485v2.2125c0 .5398.8313.5398.8313 0v-2.2125c0-.5398-.8313-.5398-.8313 0Z" fill="#010101"/><path d="M10.6834 80.5862c.2908 1.9065.8193 3.8749 2.3382 5.1711.407.3456.9989-.2424.5883-.5914-1.4145-1.2051-1.8558-3.0325-2.1226-4.7946-.0821-.533-.8843-.3078-.8039.2149Z" fill="#010101"/><path d="M13.3005 86.036c.6944.6446 1.5907.9369 2.528.9541.5337.0103.5337-.8321 0-.839-.7167-.0172-1.406-.208-1.9379-.7082-.39-.3662-.9818.2252-.5901.5931ZM13.9536 72.9412c.5269-.8063.8553-1.6882 1.158-2.5959.1779-.5106-.6294-.7289-.8022-.2218-.2822.839-.5884 1.6487-1.0724 2.3948-.2959.4504.4242.8699.7166.4229Z" fill="#010101"/><path d="M14.5574 71.7293c.2891-.7891.8809-1.4269 1.3513-2.1094.3061-.447-.4174-.863-.7184-.4229-.5217.7581-1.1186 1.4337-1.4368 2.3139-.183.5072.6192.7255.8039.2184Z" fill="#010101"/><path d="M13.9541 72.3877c1.8559-2.4687 2.9095-5.3826 4.4626-8.0318.2753-.4659-.4465-.8871-.7167-.4194-1.5548 2.6457-2.6067 5.5631-4.4625 8.0283-.3233.4298.4019.8458.7166.4229Z" fill="#010101"/><path d="M14.1674 71.9149c2.6563-3.3918 4.6438-7.4335 5.9643-11.5337.1676-.514-.6346-.7323-.8005-.2217-1.2725 3.9488-3.1917 7.8908-5.7505 11.164-.325.4195.2583 1.0178.5867.5914Z" fill="#010101"/><path d="M14.833 70.904c1.7053-5.1814 4.4095-9.9056 6.6553-14.8516.2206-.4831-.4978-.9128-.7184-.4195-2.2732 5.0062-5.0099 9.8008-6.7374 15.0494-.1711.5106.6346.7323.8005.2217Z" fill="#010101"/><path d="M20.3715 59.3772c1.3992-2.589 2.3296-5.3895 3.6244-8.0283.2412-.4797-.4772-.906-.7166-.4229-1.2948 2.6388-2.2236 5.4427-3.6262 8.0318-.2565.4727.4619.8922.7184.4194Z" fill="#010101"/><path d="M21.2507 56.5062c.9989-5.2073 4.312-9.4999 6.3731-14.2946.2121-.4882-.5063-.9146-.7184-.4229-2.0867 4.8634-5.4426 9.2145-6.4552 14.4957-.1009.5261.6979.7513.8005.2218Z" fill="#010101"/><path d="M20.1338 58.9974c1.1186-6.5241 5.3468-12.462 8.8857-17.8927.2976-.4556-.4259-.8716-.7167-.4247-3.5765 5.491-7.8406 11.4942-8.9695 18.0957-.0907.5277.7115.7547.8005.2217Z" fill="#010101"/><path d="M23.9963 51.0703c.9271-1.8498 1.7703-3.7374 2.7915-5.5356.2651-.4694-.4516-.8923-.7184-.4247-1.0212 1.8-1.8644 3.6876-2.7898 5.5357-.2394.4813.479.9042.7167.4246ZM27.0645 43.5973c.4943-.9678 1.0724-1.8721 1.6745-2.7695.3028-.4487-.4173-.8682-.715-.4229-.6055.8957-1.1819 1.8051-1.6745 2.7661-.2463.4814.4721.9043.715.4263ZM16.467 65.7432c2.2492-3.7203 3.9237-7.7396 5.8565-11.6248.2412-.4831-.4755-.906-.7167-.423-1.9345 3.8853-3.6039 7.9046-5.8582 11.6248-.2788.4591.4413.8751.7184.423Z" fill="#010101"/><path d="M20.7121 56.1194c-.0855 2.3432-1.6506 4.1569-2.4938 6.2525-.2036.5003.6004.7151.8022.2252.8894-2.2057 2.4322-4.0056 2.5263-6.4777.0171-.5398-.8142-.5364-.8347 0Z" fill="#010101"/><path d="M19.8759 56.3979c-.0137 1.2051-.3438 2.1421-1.0605 3.1099-.3181.4333.4054.8493.7201.4195.7988-1.0813 1.158-2.1885 1.1717-3.5294.0068-.5432-.8228-.5432-.8313 0Z" fill="#010101"/><path d="M19.8758 56.3981c-.0325 1.0435-.4977 1.9735-1.0605 2.8297-.2941.4538.4259.8664.7201.4229.6449-.9834 1.1341-2.0613 1.1717-3.2544.0171-.5415-.8125-.538-.8313.0018Z" fill="#010101"/><path d="M19.5966 56.9516c-.036.8492-.6021 1.5953-1.0571 2.2761-.3027.4504.4191.8664.7167.4229.5542-.8252 1.1289-1.6762 1.1733-2.699.0206-.5433-.8107-.5399-.8329 0Z" fill="#010101"/><path d="M19.6535 57.017c-2.8513 5.6679-5.5624 11.4133-7.2968 17.5403-.1471.5175.6585.7358.8039.2183 1.7122-6.053 4.3924-11.7348 7.2112-17.3392.2395-.4779-.4772-.9008-.7183-.4194ZM28.5043 41.6116c-.2138-1.2601.3455-2.2968 1.0724-3.2767.3216-.4315-.4002-.8492-.7166-.4211-.8826 1.1879-1.4111 2.4205-1.1563 3.9179.0872.5329.8894.306.8005-.2201Z" fill="#010101"/><path d="M27.9452 41.3022c.874-3.2233 2.4254-6.1321 4.1427-8.979.2771-.459-.443-.8785-.7184-.4195-1.7549 2.9105-3.3354 5.8863-4.2265 9.1785-.1385.5192.6619.7375.8022.22Z" fill="#010101"/><path d="M26.7873 43.881c2.3433-3.8371 4.0742-7.9922 5.8582-12.1061.2121-.4848-.5028-.9094-.7184-.4195-1.7822 4.1139-3.5149 8.2708-5.8582 12.1062-.2788.4573.4413.875.7184.4194Z" fill="#010101"/><path d="M26.5102 44.7027c.8381-1.7209 1.3923-3.5466 1.9944-5.3603.171-.5123-.6329-.7289-.8005-.2218-.5833 1.7415-1.1049 3.5053-1.914 5.1591-.236.4831.4824.906.7201.423Z" fill="#010101"/><path d="M25.6722 46.0867c1.1152-2.2125 2.2167-4.4302 3.1113-6.7442.1933-.502-.6089-.7168-.8056-.2217-.8655 2.2486-1.9431 4.3975-3.0241 6.5447-.2429.4779.4738.9026.7184.4212ZM31.7457 32.6842c.3609-.3576.6636-.7358.8997-1.1862.2497-.4745-.467-.8922-.7184-.4177-.2053.3902-.4584.7048-.7697 1.016-.3831.3765.2087.9627.5884.5879Z" fill="#010101"/><path d="M32.4987 31.9226c.6141-.3456.7047-.9387.9835-1.5232.2309-.4848-.4874-.9042-.7166-.4229-.195.4126-.2617.9902-.6859 1.2275-.4704.263-.0496.9816.419.7186Z" fill="#010101"/><path d="M32.9653 31.9484c.3147-1.8085 1.3615-3.2577 2.1911-4.8514.2497-.4745-.4687-.8956-.7184-.4194-.8638 1.6589-1.9499 3.1735-2.2749 5.0508-.0889.5226.7133.7495.8022.22Z" fill="#010101"/><path d="M32.369 31.7731c1.016-2.075 1.6659-4.3082 2.7897-6.3282.26-.4676-.4584-.8888-.7184-.4195-1.1238 2.0217-1.772 4.2566-2.7897 6.3265-.2361.4813.4806.9025.7184.4212Z" fill="#010101"/><path d="M34.9192 26.9973c.9476-2.3483 2.5075-4.3855 3.8656-6.5035.289-.4538-.4293-.8681-.7184-.4229-1.4043 2.1885-2.971 4.2824-3.9477 6.7064-.2001.4985.6021.71.8005.22Z" fill="#010101"/><path d="M35.4782 25.7767c.638-2.5408 2.1979-4.6468 3.5834-6.8198.2908-.4556-.4293-.875-.7167-.4229-1.4265 2.24-3.0138 4.4062-3.6706 7.021-.13.5243.6739.7444.8039.2217Z" fill="#010101"/><path d="M38.7842 19.7889c.5593-.8321 1.1135-1.6624 1.6746-2.491.301-.4487-.4191-.8682-.7167-.4246-.5576.8303-1.1152 1.6606-1.6745 2.491-.3045.4487.4173.8681.7166.4246Z" fill="#010101"/><path d="M39.9424 18.3036c.4703-1.1621 1.0331-2.2916 2.0405-3.0738.4174-.3249.0034-1.0504-.4208-.7186-1.2024.9317-1.8575 2.1816-2.4219 3.5706-.2036.5003.6003.7135.8022.2218Z" fill="#010101"/><path d="M40.1782 17.5746c1.0451-1.5455 2.2047-2.95 3.7561-4.0055.443-.3009.0274-1.0229-.4208-.7221-1.6711 1.1381-2.9282 2.6389-4.0537 4.303-.301.4487.4191.8665.7184.4246ZM52.1632 12.1836c2.4853 1.1449 4.3497 3.0257 5.7095 5.3912.2702.4659.9886.043.7166-.4246-1.4213-2.4756-3.4003-4.4887-6.007-5.6869-.4824-.2201-.9065.4985-.4191.7203Z" fill="#010101"/><path d="M54.3952 14.1245c1.5942 1.0762 2.9488 2.4119 4.0367 4.0021.3027.4401 1.0228.0241.7166-.4211-1.1733-1.7089-2.6152-3.1461-4.3325-4.303-.4481-.2992-.8638.4229-.4208.722Z" fill="#010101"/><path d="M52.6388 11.8449c1.914 1.616 3.8553 3.1254 4.9534 5.4531.2309.4848.9476.0619.7184-.4246-1.1289-2.3896-3.1164-3.9557-5.0868-5.6233-.4054-.3421-.9972.2476-.585.5948Z" fill="#010101"/><path d="M54.395 13.0155c1.7447 1.0246 3.1062 2.4979 3.7134 4.4594.1608.5123.9613.2923.8022-.2252-.6688-2.1661-2.1671-3.8216-4.0948-4.9545-.4635-.2716-.8809.4504-.4208.7203Z" fill="#010101"/><path d="M55.7913 15.2315c2.7657 1.7604 4.0862 4.8772 5.7077 7.6021.2754.4624.9955.0412.7201-.423-1.7087-2.864-3.1028-6.0513-6.0139-7.8994-.4499-.2922-.8672.4332-.4139.7203Z" fill="#010101"/><path d="M56.8221 15.7232c2.5229 2.3398 3.7904 5.5821 5.5162 8.4926.2703.4659.9921.0412.7184-.4212-1.7618-2.9724-3.0703-6.2731-5.6462-8.6662-.3917-.3644-.9818.2252-.5884.5948Z" fill="#010101"/><path d="M57.661 16.2767c2.4493 2.5168 4.0537 5.6044 5.5127 8.7728.2258.4865.9442.0636.7184-.4212-1.4898-3.2337-3.1472-6.3746-5.6445-8.9447-.3745-.3868-.9629.2029-.5866.5931Z" fill="#010101"/><path d="M59.2682 19.3936c2.4357 3.2595 4.4386 6.8026 6.693 10.179.2959.4418 1.0194.0258.7183-.4194-2.256-3.3781-4.2572-6.9213-6.6946-10.1825-.3164-.4195-1.0382-.0103-.7167.4229Z" fill="#010101"/><path d="M62.0171 23.1446c.3557 1.7604 1.459 3.2131 2.2731 4.7775.2481.4745.963.055.715-.4212-.78-1.4991-1.8456-2.8864-2.1894-4.5763-.106-.5261-.9082-.3043-.7987.22Z" fill="#010101"/><path d="M61.2217 22.6943c2.0251 3.4434 3.9442 6.9487 5.8565 10.4558.2566.471.975.0515.7184-.4212-1.9123-3.5071-3.8331-7.0107-5.8565-10.4541-.2737-.4624-.9904-.043-.7184.4195Z" fill="#010101"/><path d="M65.1268 29.5726c2.251 3.648 4.1992 7.4594 6.1388 11.281.2412.4745.9578.0585.7184-.4229-1.9397-3.8165-3.8896-7.6295-6.1405-11.2792-.2805-.4539-.9955-.0362-.7167.4211Z" fill="#010101"/><path d="M68.4724 35.9008c2.1979 3.5001 4.5789 6.9264 5.8172 10.9079.1574.5071.9613.2905.8039-.2235-1.2623-4.0503-3.6654-7.5418-5.9027-11.1039-.2839-.4521-1.0023-.0361-.7184.4195Z" fill="#010101"/><path d="M69.591 37.8263c2.5434 3.6772 4.6678 7.5986 6.3765 11.7296.2001.49 1.004.2768.8039-.22-1.7395-4.1981-3.8741-8.19-6.4603-11.9274-.3028-.4384-1.0246-.024-.7201.4178Z" fill="#010101"/><path d="M72.1002 41.952c1.7036 3.6566 3.3182 7.3527 5.0218 11.0076.2224.4865.9459.0636.7201-.416-1.7053-3.6584-3.3182-7.3545-5.0236-11.0094-.2292-.4848-.9441-.0636-.7183.4178Z" fill="#010101"/><path d="M75.1705 48.8321c3.609 7.6656 7.2146 15.3415 10.5995 23.1155.2121.4831.9305.0636.7184-.4195-3.3849-7.7722-6.9905-15.4447-10.603-23.1155-.224-.4831-.9441-.0602-.7149.4195Z" fill="#010101"/><path d="M71.2657 41.4019c6.3953 10.3389 8.1776 22.782 14.785 33.0177.2891.4539 1.0092.0344.7167-.4126-6.6023-10.2374-8.388-22.6805-14.7833-33.0228-.2823-.4539-1.0006-.0379-.7184.4177Z" fill="#010101"/><path d="M80.1925 60.6631c2.3006 4.8617 4.3257 9.8644 5.8155 15.0321.1454.5175.9493.2992.8039-.2183-1.5103-5.2451-3.5731-10.3079-5.9027-15.2298-.2275-.4883-.9476-.0653-.7167.416Z" fill="#010101"/><path d="M85.4484 71.2926c.7526 2.9552.821 5.9431.821 8.9722 0 .5364.8296.5364.8296 0 0-3.1065-.077-6.1683-.8484-9.1905-.1283-.5192-.9356-.2957-.8022.2183Z" fill="#010101"/><path d="M84.8894 72.1194c.3387 1.5713.833 3.0996 1.1187 4.6777.0957.5312.8928.306.8039-.2183-.284-1.585-.7834-3.1099-1.1187-4.6812-.1111-.5243-.915-.2957-.8039.2218ZM14.7153 86.4365c3.6792.1049 7.1719 1.5387 10.8784 1.3839.5336-.0206.5336-.8561 0-.8355-3.6997.1547-7.1992-1.279-10.8784-1.3873-.5371-.0138-.5371.8183 0 .8389Z" fill="#010101"/><path d="M15.9978 86.4468c5.0595 1.7621 10.2524.3661 15.4538.5638.5371.0207.5337-.8131 0-.832-5.1245-.1908-10.2455 1.2085-15.2331-.5364-.508-.1805-.7236.6223-.2207.8046Z" fill="#010101"/><path d="M22.0738 86.9969c5.3417-.7685 10.7159-.2751 16.0713.0137.5353.031.5336-.8097 0-.832-5.4409-.2957-10.8699-.7616-16.2919.0103-.5286.0825-.2994.8785.2206.808Z" fill="#010101"/><path d="M26.9858 87.2856c6.3321-.0241 12.6607-.4865 18.9722.2716.5302.0636.5234-.765 0-.8286-6.3098-.7582-12.6401-.2992-18.9722-.2751-.5371.0035-.5371.8321 0 .8321Z" fill="#010101"/><path d="M35.6373 87.0108c3.3456.4504 6.6827-.1977 10.0402 0 .5371.0309.5337-.8029 0-.8321-3.3575-.1943-6.6929.4504-10.0402 0-.5337-.0722-.5251.7581 0 .8321Z" fill="#010101"/><path d="M35.464 87.2684c7.3241-1.3633 14.8158-.5639 22.2084-.5347.5353 0 .5353-.8286 0-.8355-7.4729-.0275-15.0228-.8131-22.4307.5673-.5217.098-.2959.9043.2223.8029Z" fill="#010101"/><path d="M45.0084 86.997c6.0173 1.1415 12.1989.0636 18.2435-.2613.5337-.031.5371-.863 0-.8287-5.9574.3164-12.091 1.4132-18.0228.282-.5251-.1015-.7458.7031-.2207.808Z" fill="#010101"/><path d="M57.3938 86.7357c7.6029-1.0178 15.2725.4659 22.8788-.5502.5269-.067.532-.9025 0-.8286-7.6063 1.0143-15.2759-.4693-22.8788.5501-.5217.0654-.5285.8992 0 .8287Z" fill="#010101"/><path d="M59.6278 87.0106c7.4849.0103 15.0758.2716 22.4272-1.3908.5217-.1204.3011-.9232-.224-.8029-7.2728 1.6453-14.797 1.3702-22.2032 1.3599-.5337 0-.5337.8338 0 .8338Z" fill="#010101"/><path d="M81.5948 86.1236c2.316-1.3994 5.0886-2.589 5.7728-5.4772.1214-.5209-.6774-.7426-.8039-.2183-.6261 2.6354-3.2807 3.6996-5.3879 4.9786-.4567.2768-.0377 1.0023.419.7169Z" fill="#010101"/><path d="M82.9908 85.5768c2.9779-1.2825 4.8628-4.2738 4.6712-7.5109-.0325-.5364-.8637-.5364-.8313 0 .1779 2.9775-1.5308 5.6181-4.2589 6.7923-.4909.208-.0719.9231.419.7186Z" fill="#010101"/><path d="M86.2832 74.5932c.5593 3.0429.8911 5.8691-1.0725 8.4891-.3215.4298.3986.8424.7184.416 2.0867-2.7867 1.7481-5.8828 1.1614-9.1234-.0992-.5261-.9014-.3026-.8073.2183Z" fill="#010101"/><path d="M73.682 86.9968c3.4432-.5174 7.1086-.7753 10.2302-2.4411 3.0565-1.6384 3.8912-4.9082 3.7492-8.1419-.0273-.5363-.8552-.5398-.8329 0 .1539 3.4486-.8433 6.2491-4.0777 7.7963-2.8188 1.3598-6.2397 1.5214-9.2877 1.977-.5251.0877-.3027.8871.2189.8097ZM10.6679 78.8206c-.207 3.0824 1.1665 5.7281 3.8331 7.2788.4652.2716.8808-.4539.4207-.7221-2.4305-1.4165-3.6124-3.7545-3.4226-6.5567.0394-.5398-.7936-.5364-.8312 0Z" fill="#010101"/><path d="M11.9069 84.0951c3.2481 3.899 10.5671 3.4692 15.0792 3.17.5336-.0343.5336-.8698 0-.8355-4.3223.2889-11.4052.7822-14.4943-2.9208-.3403-.4177-.9236.1771-.5849.5863Z" fill="#010101"/><path d="M20.0119 86.7355c7.7072-.2888 15.4162-1.0006 23.0447.5346.5234.1066.7475-.6979.2206-.7994-7.7038-1.5506-15.4794-.8595-23.2653-.5638-.5337.0154-.5371.8475 0 .8286ZM69.5607 86.4467c5.0902.8321 10.4028-.1908 15.2861-1.652.5132-.1548.2959-.961-.2206-.8063-4.7345 1.4269-9.9034 2.4652-14.8483 1.6521-.5217-.0843-.7475.7151-.2172.8062Z" fill="#010101"/><path d="M71.9021 86.1838c4.4591-.2785 9.1388-.208 13.3226-1.9838.4909-.2115.065-.9232-.4191-.7186-4.0366 1.7157-8.6052 1.6022-12.9052 1.8738-.5303.0275-.5354.8596.0017.8286ZM45.2749 26.1634c3.5816-.0361 7.1616-.4297 10.7313 0 .6208.0722.6089-.8974 0-.9696-3.5714-.4297-7.1497-.0326-10.7313 0-.6243.0052-.6243.9731 0 .9696Z" fill="#010101"/><path d="M45.3164 75.9994c0-2.8435 1.9995-4.8961 4.7174-4.8961 2.8855 0 4.7276 2.0509 4.7276 4.8961 0 2.7626-1.8421 4.8892-4.7276 4.8892-2.8 0-4.7174-2.1283-4.7174-4.8892Zm1.9995-11.2879-1.1186-37.888h7.6816l-1.1187 37.888h-5.4443Z" fill="#fff"/><path d="M46.7426 62.7139c.0068.7823.3729 2.4412 1.4607 2.4103 1.4111-.043 2.8701-.4401 4.1478-1.0281-.1625-.2785-.325-.557-.4892-.8389-.9818.4659-2.2013.8561-3.231.306-1.1066-.5948-1.0314-2.2091-.9168-3.2543.0394-.3989-.573-.6688-.8278-.3421-.4174.5346-.4995 1.1845-.5662 1.8463-.0564.5278-.3455 1.9203.1762 2.283 1.9858 1.3702 3.7972.9971 5.8565 0 .5611-.2716.0702-1.1054-.4891-.8389-1.7532.8561-3.1763 1.1793-4.8782 0 .0804.1444.1608.2819.2429.4195 0-.8355-.1984-2.3277.3455-3.0257-.2771-.11-.5508-.2252-.8279-.3421-.1625 1.5249.0137 3.1769 1.3957 4.0864 1.2623.8251 2.9848.275 4.2111-.2992.5662-.2682.0719-1.0951-.4891-.8389-.8125.3765-1.6865.5948-2.5589.7719-.419.0877-.8706.2355-1.2315-.0705-.3455-.2957-.3523-.8321-.3575-1.2464-.0068-.6223-.9766-.6223-.9732.0017Z" fill="#010101"/><path d="M44.8094 26.7668c1.3889 9.1991.5251 18.534 1.4453 27.7744.0633.6103 1.0331.6172.9698 0-.9305-9.3263-.077-18.742-1.4812-28.0305-.0941-.6172-1.028-.3542-.9339.2561Z" fill="#fff"/><path d="M44.3221 74.1376c-1.341 4.3442 1.4829 9.2541 6.4483 7.8031.6004-.1719.3421-1.1088-.2566-.93-4.2761 1.2498-6.3731-3.0016-5.2596-6.6221.1831-.5949-.7508-.8527-.9321-.251Z" fill="#010101"/><path d="M44.2998 77.6223c.0479-2.1799.7646-4.3082 2.2954-5.907.4311-.4504-.2514-1.138-.6858-.6842-1.7071 1.7827-2.5212 4.1534-2.5811 6.5912-.0154.6343.9544.6275.9715 0Z" fill="#010101"/><path d="M45.8946 72.8001c1.1563-.4762 2.1586-.7685 3.1369-1.561.4431-.3593-.1214-1.0211-.5849-.7616-.7834.4333-1.4077.8957-2.0491 1.5146.2309.2286.4584.4573.6859.6911 2.7623-2.981 6.1131-1.6177 7.3429 1.9547 1.4453 4.2101-1.7926 6.5946-5.7334 6.3556-.6277-.0395-.6226.9301 0 .9662 4.832.2922 8.2563-2.9587 6.5749-7.8427-1.4522-4.2136-5.7744-5.4669-8.872-2.1249-.4242.4573.236 1.1209.6858.6911.5662-.5536 1.1631-.9868 1.8507-1.3736-.1932-.251-.3916-.5037-.5849-.7581-.8604.6945-1.7515.9197-2.7162 1.3203-.5644.2338-.3147 1.1707.2634.9283Z" fill="#010101"/><path d="M46.4995 72.2757c1.0297-.4762 2.2168-.5742 3.2961-.9163.5935-.1839.3386-1.1243-.2566-.93-1.17.3696-2.41.4899-3.5304 1.0074-.5678.263-.0752 1.0985.4909.8389Z" fill="#010101"/><path d="M44.6453 74.117c1.3958-1.7759 3.1644-3.1495 5.5111-3.2234.6226-.0172.626-.9833 0-.9661-2.6016.0773-4.6336 1.518-6.1935 3.5122-.3849.4762.2942 1.1741.6824.6773ZM42.9081 78.3547c1.0759 2.0114 2.9625 3.4778 5.1672 4.0623.6055.165.8604-.765.2566-.9266-1.9721-.5347-3.6227-1.8258-4.5874-3.6223-.2959-.5552-1.1323-.0653-.8364.4866Z" fill="#010101"/><path d="M43.8127 74.2647c.626 0 .626-.9661 0-.9661-.6226-.0017-.6226.9661 0 .9661Z" fill="#010101"/><path d="M42.9812 75.0798c.4567.5071.3438 1.4406.3438 2.0647 0 .6309.9698.6309.9698 0 0-.937.0428-2.008-.6277-2.7472-.419-.4625-1.0998.2235-.6859.6825Z" fill="#010101"/><path d="M43.3281 76.1851v2.4033c0 .6241.9715.6241.9715 0v-2.4033c0-.6241-.9715-.6241-.9715 0Z" fill="#010101"/><path d="M43.3474 76.0544c-.2087 1.3942-.0992 2.7661.7817 3.9213.9321 1.2258 2.4801 1.7363 3.9459 1.965.609.098.8741-.8321.2566-.9301-2.6135-.4091-4.4711-1.8704-4.0486-4.6966.0889-.6155-.845-.8716-.9356-.2596ZM46.0056 64.5775c1.9139.8956 3.6928 1.0074 5.7385.5278.6089-.141.3489-1.0711-.2566-.9301-1.7754.416-3.3268.3455-4.9945-.4367-.5593-.2664-1.0519.5742-.4874.839Z" fill="#010101"/><path d="M46.7374 64.1545V53.575c0-.6241-.9698-.6241-.9698 0v10.5795c0 .6275.9698.6275.9698 0Z" fill="#010101"/><path d="M43.8145 25.6768c.0701 10.9406 2.3758 21.7609 1.9533 32.7135-.024.624.9458.6206.9698 0 .4208-10.9526-1.8883-21.7729-1.9533-32.7135-.0034-.6257-.9716-.6257-.9698 0ZM55.5377 26.0294c-2.9163 12.3503-2.4408 25.1149-3.9169 37.6491-.0701.6172.8963.6103.9698 0 1.4659-12.4465.987-25.1286 3.8844-37.3895.142-.6086-.7919-.8664-.9373-.2596Z" fill="#010101"/><path d="M53.0765 64.1547c.9647-12.5033 1.4898-25.0461 2.9266-37.515.0718-.6189-.898-.6137-.9664 0-1.4351 12.4689-1.9636 25.0117-2.9283 37.515-.0513.6275.9219.6241.9681 0ZM43.8351 40.7159c1.3547 7.6398.5918 15.4464 1.9516 23.0897.1078.6137 1.0417.3559.9339-.2579-1.3581-7.6312-.5918-15.4481-1.9499-23.0862-.1129-.6155-1.0451-.3559-.9356.2544Z" fill="#010101"/><path d="M45.7612 41.5513v-6.2525c0-.6257-.951-.624-.9681 0-.0632 1.9323-.4241 3.8337-.4874 5.7695h.9664v-5.7695c0-.5398-.8313-.6721-.9493-.1306-.4293 1.9581-.5029 3.899-.508 5.9001h.9698c-.0017-4.0177-.0154-8.0318-.4841-12.0271-.0769-.612-1.0433-.6189-.9715 0 .4704 3.9935.4858 8.0094.4858 12.0271 0 .624.9681.624.9698 0 .0017-1.9134.0616-3.7684.4686-5.644-.3164-.0395-.6311-.0842-.951-.1272v5.7712c0 .624.9493.6223.9664 0 .065-1.9375.4277-3.8372.4892-5.7712h-.9681v6.2508c.0034.6275.9715.6275.9715.0034Z" fill="#010101"/><path d="M43.3291 26.1582c.0359 1.2739.3797 2.4618.0188 3.7185.3164.0412.6328.0859.9544.1289-.1591-1.1638-.2583-2.4308.3164-3.4984.597-1.102 1.9807-1.2877 3.101-1.3083.6226-.0103.6226-.9782 0-.9679-1.3615.0241-2.8718.2974-3.7219 1.4682-.9031 1.2395-.862 2.8572-.6687 4.3064.0684.5123.7885.6928.9544.129.3882-1.353.0564-2.6045.0188-3.9764-.0222-.6223-.9904-.6223-.9732 0Z" fill="#010101"/><path d="M45.0801 25.665c3.3371-1.1759 6.8178-.6653 10.2781-.6275.626.012.626-.9576 0-.9679-3.5492-.0413-7.1137-.5415-10.5346.6584-.585.208-.3336 1.1433.2565.937Z" fill="#010101"/><path d="M51.4561 26.3251c1.6369-.0258 3.1575-.3954 4.6764-.9816.5798-.2252.3267-1.1604-.2566-.9352-1.4402.557-2.8667.9249-4.4198.9438-.6277.012-.6277.9799 0 .973ZM42.9813 25.5378c.2993.2544.6209.2802.9698.1134.4909-.2269.9219-.4882 1.4556-.6292.6038-.1616.3472-1.0951-.26-.9335-.4037.1066-.7868.2545-1.158.4453-.1368.0705-.2685.1496-.4019.2218-.183.1014-.0359-.0052.0821.0997-.4704-.4075-1.1614.2768-.6876.6825Z" fill="#010101"/><path d="M42.5161 24.8757c.0223.5604.3028 1.0504.325 1.6039.024.6206.9921.6241.9647 0-.024-.5587-.301-1.0521-.3216-1.6039-.0239-.6206-.9937-.6241-.9681 0Z" fill="#010101"/><path d="M43.9953 25.5377c1.1084-1.0332 2.3228-1.1055 3.7544-.8355.6072.1134.8706-.8184.2566-.9318-1.7892-.337-3.32-.2012-4.6986 1.0865-.4567.4229.2292 1.1071.6876.6808ZM23.7223 30.2928c.6397-1.549 1.512-2.9879 2.3707-4.4217.3027-.5019-.4772-.9592-.7766-.4572-.9031 1.5042-1.7908 3.0084-2.463 4.6382-.2258.5432.6465.7753.8689.2407Z" fill="#010101"/><path d="M23.2639 31.1816c-.3609 0-.6876-.1685-.874-.4521-.1711-.2631-.1984-.5931-.0719-.9043.674-1.6229 1.5309-3.0944 2.5058-4.7173.3917-.6533 1.4317-.5931 1.7909.0533.1744.3163.1642.6962-.0308 1.016l-.1163.1943c-.7954 1.3323-1.6164 2.7093-2.2116 4.1482-.1711.4075-.5525.6619-.9921.6619Z" fill="#231F20"/><path d="M13.3204 94.6589c.3147.0361.5781.2648.9048.3061.5781.0601.5696-.8493 0-.9129-.3062-.0361-.5781-.2648-.9048-.3026-.5747-.0636-.5713.8458 0 .9094Z" fill="#010101"/><path d="m14.2837 95.553-.1163-.0035c-.2617-.0344-.4704-.1306-.6415-.2046-.1043-.0481-.2069-.0945-.2702-.1048-.5645-.0567-.9698-.5536-.9408-1.145.0291-.5398.4259-.9369.9476-.9369.378.0395.5901.1341.7612.2149.106.0464.2069.0877.2702.098.5662.0636.9698.5604.9391 1.1484-.0274.5432-.4294.9335-.9493.9335Z" fill="#231F20"/><path d="M75.2308 94.3599c2.1175-.0034 4.2367-.0275 6.3389-.306.5661-.0704.5747-.9833 0-.9128-2.1022.2785-4.2214.306-6.3389.306-.5799 0-.5799.9128 0 .9128Z" fill="#010101"/><path d="M75.2304 94.941c-.5782 0-1.0126-.4435-1.0126-1.0383s.4344-1.0401 1.0126-1.0401c2.1192 0 4.1939-.0309 6.2653-.2991h.0222c.6363 0 1.0229.3833 1.0537.906.0359.5948-.3627 1.0916-.9322 1.1621-2.1176.2854-4.2385.306-6.409.3094Z" fill="#231F20"/><path d="M76.7408 94.3599h3.621c.5816 0 .5816-.9129 0-.9129h-3.621c-.5815 0-.5815.9129 0 .9129Z" fill="#010101"/><path d="M80.3621 94.941h-3.621c-.5781 0-1.0126-.4435-1.0126-1.0384 0-.5948.4345-1.0401 1.0126-1.0401h3.621c.5781 0 1.0143.447 1.0143 1.0401s-.4362 1.0384-1.0143 1.0384Z" fill="#231F20"/><path d="M8.18067 92.419c.58497 0 .58497-.9129 0-.9129-.57813 0-.57813.9129 0 .9129Z" fill="#010101"/><path d="M8.18079 93.0069c-.57642 0-1.01087-.4469-1.01087-1.0435 0-.5948.43445-1.0401 1.01087-1.0401.57984 0 1.016.447 1.016 1.0401 0 .5966-.43616 1.0435-1.016 1.0435Z" fill="#231F20"/><path d="M6.86336 92.8335c4.77214 1.1209 9.67594 1.2618 14.49424 2.1145.5662.1014.8108-.7788.2412-.8836-4.8149-.8493-9.7273-.9868-14.4994-2.1094-.56273-.1324-.8039.7427-.23604.8785Z" fill="#010101"/><path d="m21.4427 95.5428-.183-.0138c-2.0166-.3593-4.0863-.5982-6.0892-.8234-2.776-.3198-5.64785-.6447-8.44099-1.2997-.51313-.1238-.82272-.5811-.75943-1.1054.05986-.5398.49773-.9472 1.016-.9472l.24459.0309c2.7367.6413 5.58283.9645 8.33323 1.2791 2.0149.2286 4.0948.4641 6.1319.8234.5149.0946.8433.5244.7988 1.0538-.0462.5588-.5097 1.0023-1.0519 1.0023Z" fill="#231F20"/><path d="M16.6406 94.3599c1.7789 0 3.5543.0138 5.3161.2854.5661.0877.8141-.7926.2394-.8802-1.8404-.2888-3.6894-.3198-5.5555-.3198-.5781.0017-.5781.9146 0 .9146Z" fill="#010101"/><path d="m22.0372 95.2401-.1676-.0137c-1.6711-.2613-3.3542-.2854-5.2288-.2854-.5747 0-1.0109-.4435-1.0109-1.0384-.0017-.5948.4327-1.0401 1.0109-1.0401 1.8079 0 3.7253.0276 5.6444.325.52.0773.8535.5071.8142 1.028-.0428.5742-.5115 1.0246-1.0622 1.0246Z" fill="#231F20"/><path d="M16.6412 95.2675c2.1893-.0464 4.3086-.5948 6.4654-.9266.5696-.0911.325-.9661-.2446-.8767-2.073.3163-4.1119.8458-6.2225.8939-.5747.0052-.5765.918.0017.9094Z" fill="#010101"/><path d="M16.6342 95.8503c-.5696 0-1.0006-.4435-1.0023-1.028-.0052-.5948.4293-1.0435 1.0023-1.0539 1.4043-.0309 2.8308-.2956 4.2077-.5432.6465-.1203 1.2914-.239 1.9396-.3352l.1693-.0138c.5491 0 1.0143.4436 1.0571 1.0143.0393.5243-.2942.9507-.8142 1.0281-.638.0979-1.2743.2183-1.9088.3352-1.4984.275-3.0463.5639-4.6268.5982h-.0239v-.0017Z" fill="#231F20"/><path d="M48.3506 94.9651h12.0808c.5833 0 .5833-.9129 0-.9129H48.3506c-.5781-.0017-.5781.9129 0 .9129Z" fill="#010101"/><path d="M60.4315 95.5497H48.3507c-.5781 0-1.0109-.4504-1.0109-1.0384 0-.5982.4328-1.0469 1.0109-1.0469h12.0808c.5782 0 1.016.4504 1.016 1.0469 0 .588-.4378 1.0384-1.016 1.0384Z" fill="#231F20"/><path d="M73.2362 94.9478c1.6044-.3283 3.2122-.6343 4.832-.9025.5713-.1014.3267-.9799-.2395-.8871-1.6198.2716-3.2242.5914-4.8354.906-.5679.1186-.3284.9937.2429.8836Z" fill="#010101"/><path d="M73.1405 95.5462c-.5388 0-.9869-.4195-1.0433-.9834-.0514-.5243.2702-.9661.7833-1.071l.1659-.0344c1.5617-.3094 3.1182-.6137 4.6901-.8768l.1796-.0137c.5439 0 1.0074.4435 1.0536 1.0074.0428.5243-.2856.9576-.8039 1.0435-1.6147.2716-3.2174.5811-4.8132.906l-.2121.0224Z" fill="#231F20"/><path d="M1.69826 80.9128c.0325 3.3574.44643 6.7888 2.71276 9.3916 2.28514 2.632 6.16608 3.4417 9.39538 4.0365.5662.1049.8091-.7718.2378-.8767-3.0771-.5673-6.3577-1.2894-8.72152-3.5157-2.39632-2.2623-2.69394-5.9292-2.72302-9.0357-.00684-.5914-.90653-.5914-.9014 0Z" fill="#010101"/><path d="m13.8972 94.9306-.1933-.0137c-3.6484-.6756-7.4045-1.5507-9.72556-4.2274-2.46474-2.828-2.82564-6.5275-2.85814-9.775-.00342-.2785.09921-.5364.28393-.7255.18986-.1942.46182-.3025.74062-.3025.58326 0 1.02626.4332 1.03311 1.0177.02736 3.103.35235 6.5516 2.53657 8.6129 2.20989 2.0818 5.25107 2.7832 8.43247 3.3712.5131.0911.8415.5243.7971 1.0469-.0496.5725-.4961.9954-1.0468.9954Z" fill="#231F20"/><path d="M2.28063 81.3356C6.7825 63.3345 16.2139 47.3638 23.9809 30.7053c.2464-.5277-.5302-.9919-.7765-.4607C15.4031 46.9735 5.93925 63.0131 1.41344 81.0932c-.14368.5708.72522.8166.86719.2424Z" fill="#010101"/><path d="M1.87482 82.2451c-.33183 0-.64997-.1547-.84838-.4126-.18986-.2458-.251435-.5707-.172755-.887C4.25403 67.3712 10.5159 54.7527 16.5726 42.5503c2.0371-4.1019 4.141-8.343 6.1046-12.5566.3266-.698 1.3598-.7031 1.7634-.0567.1933.3111.2138.6825.0582 1.0177-1.9636 4.2136-4.0657 8.4478-6.1012 12.5445C12.3974 55.5865 6.18854 68.0846 2.8395 81.4818c-.11289.4642-.4926.7633-.96468.7633Z" fill="#231F20"/><path d="M23.3737 31.3089c1.2692-1.9237 2.398-3.9265 3.3234-6.0411.2343-.5312-.5439-.9953-.7766-.4607-.9253 2.1146-2.0542 4.1191-3.3216 6.0411-.3267.4916.4532.9455.7748.4607Z" fill="#010101"/><path d="M22.9989 32.1032c-.3917 0-.7629-.2218-.9442-.5656-.171-.3198-.1488-.6997.0582-1.0126 1.3409-2.032 2.4134-3.9781 3.2789-5.9533.3027-.7049 1.3358-.7307 1.7549-.0791.1967.3077.2258.679.0769 1.0143-.8894 2.032-1.9909 4.0365-3.3729 6.1287-.195.2957-.5063.4676-.8518.4676Z" fill="#231F20"/><path d="M26.3224 25.3607c.3061-.3558.3181-.8664.6054-1.2102.3798-.4436-.2565-1.0917-.6362-.6447-.3045.3576-.3182.8699-.6038 1.2068-.3763.447.2548 1.0934.6346.6481Z" fill="#010101"/><path d="M26.0266 26.0964c-.3934 0-.7595-.2492-.9356-.6343-.1728-.3782-.1078-.8115.1608-1.1278.0735-.0877.1282-.2424.1864-.4074.0855-.239.1933-.5381.4139-.7994.4687-.5536 1.3735-.3782 1.6745.2785.1694.3782.1095.8114-.1607 1.1277-.0719.0877-.1266.2373-.1899.4092-.0855.2407-.1916.5381-.4139.8011-.1967.2269-.4567.3524-.7355.3524Z" fill="#231F20"/><path d="M26.6974 24.3617c3.4996-5.6353 5.9848-11.8861 9.9633-17.21713.3524-.46932-.431-.91973-.7765-.46073C31.9074 12.0149 29.417 18.2657 25.9209 23.901c-.3113.502.4652.9593.7765.4607Z" fill="#010101"/><path d="M26.3276 25.1629c-.3848 0-.7526-.2183-.9339-.5553-.1779-.3163-.1608-.698.0359-1.0194 1.3992-2.2538 2.6649-4.6555 3.8844-6.9763 1.8234-3.4727 3.7117-7.06221 6.1131-10.28043.4516-.59998 1.4933-.47792 1.808.16159.1608.3232.1197.69797-.1095 1.00398-2.3484 3.14776-4.2128 6.69776-6.0173 10.13086-1.2298 2.338-2.499 4.7569-3.9203 7.0485-.195.3094-.508.4865-.8604.4865Z" fill="#231F20"/><path d="M36.2889 7.53847c4.6849-5.94649 15.7224-8.67476 21.4113-2.71452.4019.42463 1.0399-.22348.6328-.64639C52.3209-2.12308 40.6437.551901 35.6526 6.89723c-.3592.45214.2737 1.10541.6363.64124Z" fill="#010101"/><path d="M35.9977 8.2828c-.3848 0-.7457-.2424-.9219-.61717-.1796-.37477-.13-.81143.1248-1.13463C38.2726 2.6234 43.917 0 49.2468 0c3.8621 0 7.1496 1.30482 9.5014 3.77007.2908.30256.3729.72891.2121 1.11228-.2702.65499-1.1819.86644-1.6745.3507C54.7971 2.6234 51.5507 2.075 49.2673 2.075c-4.7448 0-9.782 2.34318-12.5256 5.82787-.1932.24412-.4566.37993-.744.37993Z" fill="#231F20"/><path d="M57.3986 4.8239c7.2865 7.7 12.9891 17.0091 17.142 26.7876.2309.5381.9989.0739.7766-.459-4.1855-9.8524-9.9445-19.2165-17.2874-26.97499-.3986-.42635-1.0348.22005-.6312.64639Z" fill="#010101"/><path d="M74.8691 32.4366c-.3798 0-.7013-.2201-.8604-.5931-4.4061-10.3767-10.136-19.3317-17.0291-26.61223-.2925-.30773-.3695-.73579-.2053-1.11744.2771-.65499 1.1888-.85957 1.6746-.33523 7.0606 7.461 12.9172 16.5948 17.3968 27.1452.142.3403.1112.71-.0906 1.0142-.1984.3061-.5388.4986-.886.4986Z" fill="#231F20"/><path d="M74.2385 31.3088c7.6696 11.4803 11.8773 25.0718 16.7589 37.9224 2.5297 6.641 8.3349 22.7957-3.6929 23.0037-.5764.0103-.5781.9198 0 .9129 11.6704-.2011 8.0545-14.1158 5.588-21.3345-1.9464-5.6938-4.2504-11.305-6.3833-16.9403-3.1404-8.2983-6.5561-16.6344-11.4959-24.025-.3181-.4813-1.1049-.0258-.7748.4608Z" fill="#010101"/><path d="M87.2956 93.7358c-.5644 0-.9954-.4401-1.0023-1.028-.0051-.5914.4242-1.0504.9989-1.0607 2.6444-.0464 4.4609-.863 5.5555-2.5117 3.2464-4.8823-.8483-15.6475-2.3894-19.6961-.8912-2.3466-1.7584-4.7173-2.629-7.0914-3.8536-10.5126-7.8355-21.3827-14.0701-30.7107-.2103-.3094-.2377-.6876-.0701-1.0091.337-.6464 1.3889-.7393 1.8045-.1032 5.145 7.6966 8.6617 16.4969 11.554 24.1384.6705 1.7724 1.3581 3.5432 2.0474 5.3121 1.4761 3.8045 3.0036 7.7362 4.3428 11.6472 3.0686 8.979 3.385 15.3312.9339 18.8761-1.4419 2.0888-3.816 3.1804-7.0589 3.2371h-.0172Z" fill="#231F20"/><path d="M81.3875 94.3393c2.8684-.5742 5.7265-1.1827 8.6394-1.487.5679-.0671.5747-.9765 0-.9163-2.9915.3232-5.9284.9335-8.872 1.5283-.5764.1134-.3318.9902.2326.875Z" fill="#010101"/><path d="M81.2868 94.9308c-.5353 0-.9835-.416-1.0348-.9765-.0496-.5243.2771-.961.7954-1.0607l.354-.0739c2.7881-.5673 5.6667-1.1553 8.5642-1.4681.5815.0172 1.0365.3902 1.0656.93.0359.588-.3694 1.0848-.939 1.1518-2.6016.2751-5.2083.7994-7.7329 1.3066l-1.0725.1908Z" fill="#231F20"/><path d="M5.24313 91.8825c3.45337 2.4206 7.19577 3.5827 11.39837 3.0824.5696-.0704.5781-.9799 0-.9128-4.0486.4831-7.61488-.6241-10.94168-2.9587-.48064-.3369-.93048.4556-.45669.7891Z" fill="#010101"/><path d="M14.7446 95.6665c-3.4483 0-6.66389-1.0848-9.83162-3.3077-.38143-.2682-.53879-.7358-.39853-1.1879.20012-.6515.96468-.9472 1.51202-.5604 3.38496 2.3741 6.81093 3.3007 10.55003 2.8606h.0205c.6311 0 1.0228.3834 1.0536.9163.0359.588-.366 1.0882-.9339 1.1587-.6654.0808-1.3273.1204-1.9721.1204Z" fill="#231F20"/><path d="M20.2692 94.3599c9.4434.8562 18.9294.0396 28.3847.6052.5833.0309.5816-.8802 0-.9129-9.4536-.5673-18.9396.251-28.3847-.6051-.5798-.0533-.573.8561 0 .9128Z" fill="#010101"/><path d="M48.6846 95.5495h-.0633c-3.2242-.1942-6.4159-.2183-8.8344-.2183-1.3222 0-2.6444.0069-3.9648.0172-1.3222.0103-2.6478.0172-3.9699.0172-3.4466 0-7.5225-.0499-11.6344-.4264-.5713-.0464-.9835-.5363-.9579-1.1277.0257-.5501.4259-.9472.9596-.9472 4.1598.3696 8.1896.4194 11.5933.4194 1.3342 0 2.67-.0069 4.0007-.0172 1.3359-.0068 2.6717-.0172 4.0059-.0172 2.4254 0 5.6273.0275 8.872.2149.573.0344.9921.5037.9784 1.0986-.0188.5656-.4396.9867-.9852.9867Z" fill="#231F20"/><path d="M60.4313 94.9649c4.43.2424 8.8584-.2458 13.2901 0 .5781.0309.5764-.8836 0-.9129-4.4317-.2424-8.8601.239-13.2901 0-.5798-.0344-.5781.8785 0 .9129Z" fill="#010101"/><path d="M63.2299 95.62c-.9424 0-1.8866-.0206-2.829-.0705-.5782-.0344-.9972-.5071-.9784-1.102.0154-.5604.4379-.9833.9784-.9833 2.345.1203 4.4522.0636 6.6518 0 2.2356-.0567 4.4694-.1135 6.7015 0 .5713.0344.9938.5037.9767 1.0951-.0137.5673-.4362.9902-.9784.9902-2.3501-.1272-4.4642-.0636-6.6673 0-1.2862.0327-2.5707.0705-3.8553.0705Z" fill="#231F20"/><path d="M73.1149 94.6589h6.6416c.585 0 .585-.9094 0-.9094h-6.6416c-.5816 0-.5816.9094 0 .9094Z" fill="#010101"/><path d="M79.7565 95.2469h-6.6416c-.5782 0-1.0143-.4504-1.0143-1.0401 0-.5948.4361-1.0435 1.0143-1.0435h6.6416c.5798 0 1.016.4504 1.016 1.0435 0 .5897-.4362 1.0401-1.016 1.0401Z" fill="#231F20"/><path d="M47.2273 11.219h3.8537c-.1386-.2321-.2788-.4659-.4208-.6997-1.4419.0017-2.8513.0309-4.2402.4556-.744.2252.2891.6257.5781.6292 1.8798.0292 3.71.3799 5.5504.7495.7321.1479 1.6574-.4109.496-.6447-1.9858-.3988-3.9716-.7701-6.007-.8011.1916.2097.3865.4195.5781.6292 1.1255-.3438 2.2954-.318 3.4637-.318.1453 0 .809-.0963.6277-.3937-.1847-.3094-.7475-.306-1.0485-.306h-3.8519c-.1471 0-.8091.0963-.6295.3937.1865.3094.7526.306 1.0502.306Z" fill="#010101"/><path d="M53.0685 12.5943c1.7053 1.0624 3.1369 2.4601 4.3513 4.0571.2805.3679 1.9345.5725 1.5394.0516-1.3632-1.7913-2.9864-3.2767-4.8935-4.4611-.4533-.2837-1.9534-.2442-.9972.3524Z" fill="#010101"/><path d="M55.4251 13.2322c1.6061 2.0182 3.1865 4.0503 4.6216 6.1957.2925.435 1.9311.2923 1.6796-.079-1.4367-2.1455-3.0172-4.1775-4.6233-6.1958-.3284-.416-1.9345-.2424-1.6779.0791Z" fill="#010101"/><path d="M55.4427 12.9847c1.9465 2.3981 3.4859 5.0662 5.0082 7.7447.2394.4212 1.9122.11 1.6437-.3593-1.5223-2.6802-3.0617-5.3465-5.0082-7.7447-.3232-.4006-1.9464-.0138-1.6437.3593Z" fill="#010101"/><path d="M52.1597 12.5875c3.9237 2.4824 6.6724 6.3522 9.043 10.2752.272.4504 1.9106.3989 1.6797.0189-2.4733-4.0984-5.3554-8.0455-9.4485-10.6345-.3745-.2373-2.0474-.1479-1.2742.3404Z" fill="#010101"/><path d="M58.8996 19.1202c1.9806 3.8646 4.572 7.3647 6.5492 11.2276.2258.4384 1.9089.2356 1.666-.2372-1.979-3.8646-4.5686-7.3648-6.5476-11.2294-.2257-.4367-1.9088-.2338-1.6676.239Z" fill="#010101"/><path d="M60.1217 20.0932c1.9259 3.0979 3.8536 6.1958 5.7796 9.2937.2445.3919 1.8831.7048 1.5308.1392-1.926-3.0978-3.8536-6.1957-5.7796-9.2936-.2446-.392-1.8832-.7049-1.5308-.1393Z" fill="#010101"/><path d="M59.282 19.5002c2.8513 4.7087 5.3212 9.579 7.3207 14.7158.1693.4366 1.8695.2991 1.6659-.2235-1.9977-5.1351-4.4659-10.0071-7.3172-14.7158-.2634-.4333-1.9277-.208-1.6694.2235ZM67.3758 35.5345c1.5702 3.1529 3.166 6.2886 5.0082 9.2936.2788.4539 1.8643.557 1.6659.2338-1.8421-3.005-3.438-6.139-5.0064-9.2936-.2378-.4728-1.8576-.6138-1.6677-.2338Z" fill="#010101"/><path d="M65.4396 31.7542c2.7521 4.7431 5.4888 9.4965 8.0921 14.3255.2463.4608 1.8952.4539 1.6779.0499-2.6015-4.8308-5.3365-9.5825-8.0886-14.3273-.2651-.4521-1.9037-.4315-1.6814-.0481Z" fill="#010101"/><path d="M71.6113 42.5194c2.2441 4.5574 4.259 9.2249 6.9341 13.5537.2806.4538 1.8747.5312 1.6711.2011-2.6734-4.3253-4.69-8.9928-6.9341-13.5502-.2343-.4728-1.8626-.5931-1.6711-.2046Z" fill="#010101"/><path d="M73.1475 46.525c1.9106 3.5036 3.5235 7.1396 5.0082 10.8392.183.4607 1.878.4263 1.6796-.0636-1.4846-3.703-3.0976-7.339-5.0099-10.8409-.2446-.4504-1.9122-.3593-1.6779.0653Z" fill="#010101"/><path d="M70.8409 43.5182c4.5498 6.3574 7.1052 13.7153 10.0181 20.9081.1778.4367 1.8763.2785 1.6659-.2458-2.9111-7.1929-5.4699-14.549-10.018-20.9081-.301-.4178-1.9431-.1427-1.666.2458ZM81.6202 66.2331c1.4915 2.9948 2.9813 5.9929 4.6233 8.9052.2566.4572 1.9071.416 1.6831.0206-1.6438-2.9174-3.1335-5.9121-4.6233-8.9051-.231-.4642-1.8952-.4505-1.6831-.0207Z" fill="#010101"/><path d="M85.0709 74.1172c.3849.8733.3849 1.769.3866 2.7094.0034.4469 1.7173.2853 1.7173-.2579-.0035-.9404-.0052-1.8361-.3883-2.7094-.2275-.5209-1.8712-.1048-1.7156.2579ZM50.0335 10.5744c.1402.3868-.1557.6894-.0582 1.0556.1214.4624.8535.5931 1.2281.7031.3404.0997 1.8832-.1977 1.0519-.5484-.874-.3679-1.8301-.4092-2.6991-.7753-.4036-.1702-2.0593.1426-1.2246.4951.8723.3661 1.8284.4074 2.6956.7753.3524-.1822.6996-.3662 1.0519-.5484-.6516-.1891-.1796-.8097-.3728-1.3426-.1574-.44187-1.861-.3439-1.6728.1856ZM45.226 12.0957c-4.9381 1.0143-6.1713 5.6164-8.2956 9.5705-.2327.4349 1.4384.5398 1.6796.0911 1.7481-3.2595 2.9539-8.1625 7.1154-9.0169 1.158-.239.2361-.796-.4994-.6447Z" fill="#010101"/><path d="M43.1133 13.0122c-4.4385 3.4297-7.1393 8.5527-9.2876 13.6414-.1471.3507 1.5034.71 1.7241.1839 2.1226-5.025 4.8234-10.0775 9.2073-13.4642.2976-.2287-1.223-.6877-1.6438-.3611Z" fill="#010101"/><path d="M43.1233 12.5857c-3.8621 3.2819-5.7522 8.0181-8.0886 12.3916-.2669.4985 1.4025.851 1.6215.4384 2.3398-4.377 4.2264-9.108 8.0903-12.3916.3216-.2733-1.2212-.7805-1.6232-.4384Z" fill="#010101"/><path d="M42.3247 13.5418c-3.6809 4.97-6.0703 10.6001-8.4769 16.263-.2019.4813 1.4863.5329 1.6796.0739 2.4083-5.6628 4.7944-11.2947 8.4769-16.263.2549-.3404-1.3649-.4986-1.6796-.0739Z" fill="#010101"/><path d="M37.7185 21.9224c-3.6073 5.6714-5.4682 12.2454-9.2466 17.8119-.2873.4247 1.3632.7668 1.6489.3525 3.7783-5.57 5.6393-12.1406 9.2449-17.812.2805-.4418-1.382-.7719-1.6472-.3524Z" fill="#010101"/><path d="M31.9342 32.4142c-2.6272 5.0216-4.6045 10.332-6.9341 15.4894-.2309.5054 1.4607.71 1.6574.2768 2.3331-5.1574 4.3086-10.4695 6.9341-15.4894.2498-.4762-1.4316-.7083-1.6574-.2768Z" fill="#010101"/><path d="M25.775 46.6074c-1.2025 2.8211-2.3878 5.6474-3.4654 8.5183-.1727.4539 1.4659 1.0246 1.6455.5467 1.0809-2.8709 2.2629-5.6972 3.467-8.5183.183-.4298-1.4419-1.028-1.6471-.5467Z" fill="#010101"/><path d="M23.854 49.6883c-2.5383 4.5677-3.9118 9.6271-6.1645 14.3255-.1967.4161 1.406 1.0607 1.6352.5811 2.2527-4.7001 3.6244-9.7613 6.1644-14.3256.2087-.3799-1.37-1.0589-1.6351-.581Z" fill="#010101"/><path d="M23.0741 52.8187c-2.0029 4.1775-3.2413 8.6661-5.393 12.7766-.1984.3834 1.3991 1.004 1.6557.5175 2.1534-4.1139 3.3901-8.6026 5.3947-12.7767.1916-.4005-1.4231-1.0074-1.6574-.5174Z" fill="#010101"/><path d="M16.8994 65.6315c-.8193 1.6556-1.6198 3.3214-2.3108 5.0371-.171.4195 1.4744.9404 1.6745.4435.6928-1.7157 1.4898-3.3781 2.3125-5.037.1865-.3765-1.4299-.9404-1.6762-.4436Z" fill="#010101"/><path d="M16.9418 64.0274c-2.3194 3.66-3.5697 7.8238-5.4426 11.7022-.1796.3696 1.447.8905 1.6882.3868 1.8455-3.8182 3.0599-7.9373 5.3434-11.5337.3044-.4779-1.3376-.949-1.589-.5553Z" fill="#010101"/><path d="M18.0418 63.7577c-2.1774 4.1035-3.8143 8.4169-5.3947 12.78-.1488.4126 1.5223.8321 1.707.3232 1.5753-4.3649 3.2156-8.6799 5.3896-12.78.1761-.3318-1.4351-.8304-1.7019-.3232Z" fill="#010101"/><path d="M13.0186 75.9567c-.3404 2.2228-.3934 4.4456.3866 6.5842.195.5399 1.8592.2785 1.7309-.0704-.7765-2.1386-.7252-4.3615-.3848-6.5843.065-.4195-1.6489-.4762-1.7327.0705Z" fill="#010101"/><path d="M11.8985 78.7709c.0718 3.1134 2.0491 5.0973 4.7533 6.3161.6807.306 1.7104-.0275.6311-.514-2.2236-1.0005-3.6672-2.8074-3.7253-5.3018-.012-.5776-1.666-.8733-1.6591-.5003Z" fill="#010101"/><path d="M12.669 81.9942c.963 2.7368 3.2379 3.9454 5.978 4.382 1.1699.184.4567-.6515-.2754-.7684-2.0594-.3249-3.3456-1.3942-4.0401-3.3644-.1727-.4916-1.8216-.6962-1.6625-.2492Z" fill="#010101"/><path d="M13.2285 83.7461c2.6443 2.0475 5.8753 2.2555 9.0927 2.2589 1.1237 0-.1642-.8063-.6928-.8063-2.5023-.0034-5.015-.0068-7.0897-1.6125-.3473-.2699-2.0286-.3937-1.3102.1599Z" fill="#010101"/><path d="M15.6374 84.7879c3.5714 1.0917 7.2865.863 10.9656 1.1879.532.043 1.8815-.6446.7629-.7461-3.5577-.3128-7.1531-.0876-10.6047-1.138-.4294-.1307-2.0047.4315-1.1238.6962Z" fill="#010101"/><path d="M24.2503 86.3384c3.7253.3731 7.4472.7822 11.1709 1.1622 1.0194.1014 1.0981-.5914.0769-.6946-3.7253-.3765-7.4472-.7856-11.1708-1.1621-1.0195-.1014-1.0981.5914-.077.6945Z" fill="#010101"/><path d="M27.1738 87.1242c6.7425-.0499 13.4167-.5639 20.0309 1.1088.4191.1066 2.0354-.3937 1.17-.6103-6.8811-1.7432-13.781-1.2653-20.8075-1.2154-.7389.0051-1.5805.7237-.3934.7169Z" fill="#010101"/><path d="M24.9636 88.6817c8.6856-3.0394 18.9824-2.3982 27.9674-1.1449 1.1733.165.4737-.6653-.2652-.7685-9.3201-1.3031-20.0206-1.9838-29.05 1.1759-.6038.2115.9116.8923 1.3478.7375Z" fill="#010101"/><path d="M26.3901 87.1309c7.0282.698 13.8751.6481 20.8092-.7994.8809-.1839-.7099-.7684-1.134-.6808-6.6793 1.396-13.2645 1.4166-20.0276.7462-1.1784-.1187-.3745.6635.3524.734Z" fill="#010101"/><path d="M21.9602 87.1103c11.1777-.043 22.3537-.698 33.5194 0 1.028.067 1.0468-.6309.0274-.6945-11.1657-.698-22.34-.0465-33.5177 0-1.0143.0034-1.0588.7014-.0291.6945Z" fill="#010101"/><path d="M25.5681 87.1515c7.5584 1.3805 17.4909 3.1735 24.5397-.832.342-.1943-1.0913-.9163-1.5531-.655-6.6194 3.7632-16.1295 2.0079-23.238.7117-1.1631-.2115-.4772.6447.2514.7753Z" fill="#010101"/><path d="M37.3711 87.9201c2.5075 0 5.0167-.0206 7.5002-.4023.8895-.134-.6722-.7959-1.1015-.7289-2.3638.3628-4.7516.3662-7.1359.3662-1.1221 0 .2172.765.7372.765ZM46.216 87.1104c2.7709.3421 5.5384.0395 8.3195.0103 1.182-.0103.3473-.7221-.3934-.7117-2.6255.0275-5.2424.3283-7.8594.0068-1.0229-.1237-1.0793.5708-.0667.6946Z" fill="#010101"/><path d="M46.1645 87.4902c5.9524 1.353 11.619-.2217 17.5714-.7323.8843-.0739-.6483-.8028-1.0759-.765-5.4683.4659-10.8493 2.0681-16.3347.8234-.9903-.2286-1.1614.4453-.1608.6739Z" fill="#010101"/><path d="M52.7617 87.1104c5.9951.8699 12.1424 1.8206 17.9579-.4263.8552-.3284-.7509-.7788-1.1682-.6172-5.4409 2.0991-11.1196 1.1621-16.7179.349-1.0211-.1444-1.0792.5467-.0718.6945Z" fill="#010101"/><path d="M51.9973 87.1017c8.4786 1.7724 16.9761.5209 25.4804-.3765 1.0177-.1066.9664-.8028-.053-.6945-8.2084.863-16.4151 2.1145-24.6013.3988-.5234-.1117-1.9242.4401-.8261.6722Z" fill="#010101"/><path d="M71.6689 87.1242c3.503.4091 6.8777.2252 10.1121-1.2894 1.0211-.4728-.4652-.6911-.9527-.4659-2.7213 1.2722-5.4477 1.377-8.3794 1.0349-.5269-.0618-1.8952.5931-.78.7204Z" fill="#010101"/><path d="M73.0376 86.3384c3.2395-.0206 6.6416-.2579 9.4929-1.9512 3.2122-1.9031 3.7287-5.7711 3.4944-9.1836-.0359-.5364-1.76-.5639-1.731-.1135.2036 2.9483-.0735 5.9104-2.2492 8.0954-2.345 2.3535-6.3457 2.4343-9.4228 2.4549-1.1836.0069-.3198.7049.4157.698Z" fill="#010101"/><path d="M83.9093 71.6193c.7885 3.7374 1.057 7.4507.3848 11.2311-.0787.4435 1.6386.6137 1.7344.0842.6705-3.7769.4019-7.4903-.3883-11.2277-.1163-.5552-1.8148-.4744-1.7309-.0876Z" fill="#010101"/><path d="M85.6004 83.4383c.6807-1.3994 1.1939-2.8332 1.5804-4.3477.1061-.4195-1.5941-.6688-1.7309-.1376-.3695 1.451-.8484 2.8246-1.5035 4.1707-.2412.4951 1.4453.7443 1.654.3146ZM82.7514 69.3362c.3917 1.8171 1.1357 3.4726 1.9585 5.1264.2189.4436 1.9037.2923 1.6711-.1788-.792-1.5953-1.5155-3.1872-1.8935-4.939-.1197-.5467-1.825-.4126-1.7361-.0086ZM65.3351 86.7253c5.771 0 11.4291-.1547 16.9521-1.9976.8587-.2854-.7765-.7083-1.1921-.5708-5.2767 1.7587-10.6766 1.867-16.1808 1.8704-1.1819 0-.3096.698.4208.698ZM46.8781 71.0846c1.5787-.8905 3.178-1.0006 4.9466-1.004.7372 0 1.589-.7083.4036-.7083-2.3176.0035-4.548.1616-6.6125 1.3237-.7971.4453.8774.6069 1.2623.3886Z" fill="#010101"/><path d="M46.0961 72.2743c1.9379-.9301 3.6621-1.2017 5.5726-.0172.3917.2424 2.0235-.0774 1.4847-.4092-2.6598-1.6452-5.5709-1.3323-8.2991-.0206-.821.3954.845.6378 1.2418.447Z" fill="#010101"/><path d="M50.8822 70.8492c1.0827.0206 1.5394.6171 1.8165 1.6142.1523.5398 1.8422.3318 1.7344-.0567-.5114-1.8326-1.8079-2.2228-3.5731-2.2555-1.0331-.0172-.9938.6791.0222.698Z" fill="#010101"/><path d="M53.2715 70.9867v-.7754c0-.5346-1.7207-.655-1.7207-.1942v.7753c0 .5312 1.7207.6515 1.7207.1943Z" fill="#010101"/><path d="M50.8169 69.5098c1.8302 1.5077 3.3559 3.3282 3.8126 5.7178.0992.5175 1.8148.2957 1.7275-.1616-.4721-2.448-2.0114-4.3477-3.8912-5.8966-.4105-.337-1.9448.0963-1.6489.3404ZM55.0111 76.7061c-.0838.6584-.3353 1.2653-.3866 1.9374-.0342.4659 1.6968.5038 1.7344-.0206.0496-.6687.3027-1.2721.3866-1.934.0564-.447-1.666-.5175-1.7344.0172ZM49.1561 82.0784c2.0149-.0533 3.7801-.7427 5.2373-2.1455.2925-.282-1.2742-.6413-1.6574-.2751-1.1271 1.0848-2.4425 1.6831-4.0075 1.726-.1454.0035-.8108.098-.626.3954.1881.3026.7526.306 1.0536.2992Z" fill="#010101"/><path d="M54.6387 75.3859v.3868c0 .5467 1.7087.7324 1.7087.2991v-.3868c0-.5466-1.7087-.7323-1.7087-.2991Z" fill="#010101"/><path d="M54.6367 76.5652v.3868c0 .5433 1.7139.7049 1.7139.2648V76.83c0-.5433-1.7139-.7049-1.7139-.2648ZM54.286 79.1267c-.0103.3455-.2121.5604-.6004.6481-.6055.141.8586.9232 1.3033.8166.52-.1203.8159-.3662.9408-.9025.1197-.5158-1.536-1.016-1.6437-.5622ZM46.8147 63.8934h4.2401c1.182 0 .3798-.7254-.3677-.7254h-4.2385c-1.1819 0-.378.7254.3661.7254Z" fill="#010101"/><path d="M50.8207 63.7352c.0615.624.8244.8286 1.3153.9644.1437.0361.8073.1238.7115-.2115-.0957-.3455-.6414-.4934-.9304-.5742-.0736-.0206-.1488-.0395-.2224-.0601.2908.1547.585.3129.8757.4659-.0718-.0568-.106-.1307-.106-.2149-.0496-.4883-1.6985-.9043-1.6437-.3696Z" fill="#010101"/><path d="M51.8312 64.3351c-.8347-.0361-1.63-.3283-2.4647-.3799.2617.1788.5251.3524.7868.5278.1283-.1272.2565-.2544.3831-.3868.3507-.349-.8928-.5364-1.016-.5364h-.4122c-1.1819 0-.3524.7186.3883.7186h.8005c1.1836 0 .354-.7186-.39-.7186h-.7988c-1.1819 0-.3524.7186.3883.7186h.4139c-.3387-.1805-.6773-.3593-1.0177-.5398-.1249.1307-.2532.2579-.3832.3868-.2993.3026.6637.5209.7851.5278.9835.0567 1.9328.3593 2.9266.3988.1454.0069.8125-.0567.6465-.3627-.171-.3163-.7354-.3438-1.0365-.3542ZM15.8972 86.2646c1.9448.7547 3.9614 1.2017 6.0019 1.6143.9972.1977 1.1648-.4762.1557-.6808-1.8884-.3799-3.7544-.7822-5.5555-1.4802-.7013-.2716-1.7036.1204-.6021.5467Z" fill="#010101"/><path d="M15.8576 86.6411c5.0577 2.4653 10.9314 1.3255 16.3312 1.2585.7441-.0104 1.5599-.7393.378-.7221-5.0081.0636-10.5842 1.212-15.2639-1.0641-.4122-.2012-2.0064.2561-1.4453.5277Z" fill="#010101"/><path d="M25.2066 86.7544c5.8736.8424 11.4411 2.0819 17.3472.7754.8912-.1977-.6534-.8527-1.0895-.7547-5.6445 1.2498-10.9622.024-16.557-.7788-1.1717-.1685-.4294.655.2993.7581ZM44.639 13.1171c3.3644-1.6796 7.5635-3.7477 10.0163.3954.2685.4556 1.8883.49 1.6762.1307-3.0839-5.20729-8.6582-3.3695-13.1002-1.1536-.5799.294.9937.8338 1.4077.6275Z" fill="#010101"/><path d="M51.8108 10.3715c1.9208.8235 3.3148 2.3621 4.3924 4.1173.2634.4281 1.9276.1668 1.6625-.2681-1.1939-1.9427-2.747-3.4985-4.8542-4.40276-.4088-.17535-2.0423.19086-1.2007.55356Z" fill="#010101"/><path d="M52.0607 11.4719c2.3006 1.5816 3.9152 3.715 5.3024 6.1167.2463.4297 1.9191.1787 1.6574-.2751-1.4265-2.4756-3.1164-4.6468-5.4837-6.2731-.3831-.2613-2.0166.0619-1.4761.4315ZM42.6907 26.4678c-.0923 5.4222 1.3615 10.4936 2.3878 15.7731 1.2469 6.4106.4259 13.0173 1.4641 19.464.0787.5037 1.7977.2648 1.7207-.2183-.9305-5.778-.5593-11.6128-1.1562-17.4234-.6226-6.0531-2.8052-11.6523-2.6974-17.812.0086-.4487-1.7104-.3249-1.719.2166ZM46.9222 62.7709c.1146 2.3947 2.4886 2.6389 4.3889 2.216.2036-.043.6278-.2682.3062-.4831-.3301-.2184-.8244-.184-1.1905-.1066-1.1921.2682-1.7189-.5467-1.7703-1.6521-.0256-.5106-1.76-.4607-1.7343.0258ZM48.888 25.488c1.9345.3937 3.8433.8011 5.8275.8321 1.0211.0154 1.0382-.6808.0136-.6963-1.6847-.0258-3.3097-.3816-4.9551-.7169-.3695-.0739-.8518-.1203-1.187.098-.3216.2098.0923.4401.301.4831Z" fill="#010101"/><path d="M55.3981 25.9195c-3.8605 12.4878-1.4744 25.6134-3.8502 38.335-.0838.4435 1.6318.6275 1.7292.1014 2.3758-12.7216-.0085-25.8472 3.8554-38.3333.118-.3868-1.5685-.6395-1.7344-.1031Z" fill="#010101"/></g><defs><clipPath id="a"><path fill="#fff" d="M0 0h96v96H0z"/></clipPath></defs></svg>