<svg width="267" height="118" fill="none" xmlns="http://www.w3.org/2000/svg"><rect width="267" height="118" rx="10" fill="#fff"/><g clip-path="url(#a)" fill="#1D1D1B"><path d="M217.875 40.9313c-.297 1.0452-1.631 1.2692-2.594 1.4185-1.26.1493-2.52.2986-3.78.2986-2.446.0747-4.966-.2986-7.115-1.5678-.742-.4479-2.15-1.3438-2.076-2.389.149-1.3438 2.891-1.4184 3.854-1.4931 2.52-.224 5.337-.2986 7.782.2986 1.557.3733 4.373 1.4185 3.929 3.4342-.149.5973.741.8212.889.224.445-2.2397-1.705-3.5835-3.558-4.2554-1.185-.448-2.445-.5973-3.705-.6719-1.853-.1493-3.78-.1494-5.633.0746-1.334.1493-3.261.224-4.151 1.4185-.667.9705-.148 2.0904.519 2.8369 2.001 2.1651 5.262 2.9116 8.079 2.9863 1.779.0746 3.557-.0747 5.262-.3733 1.26-.224 2.668-.6719 3.113-2.0157.296-.5973-.593-.8212-.815-.224Z"/><path d="M202.904 37.7956c2.668-1.1198 5.558-1.6424 8.375-1.4184 1.482.0746 2.964.4479 4.372.8959 1.335.4479 3.113 1.1198 3.558 2.5383.889 2.9862-4.669 3.1355-6.374 3.0609-2.742-.1493-5.484-.9706-7.856-2.4637-.667-.4479-1.408-.8959-1.927-1.5678-.297-.4479-.519-.9705-.222-1.4184.222-.448.815-.5226 1.26-.5973 1.927-.2986 3.854-.2986 5.706 0 .593.0747.816-.8212.223-.8959-2.001-.2986-4.002-.3732-6.078-.0746-1.408.224-2.668 1.0452-2.149 2.6876.445 1.4931 2.223 2.4637 3.483 3.1356 1.557.8958 3.336 1.4931 5.114 1.7917 1.705.2986 3.41.3733 5.188.1493 1.334-.1493 2.965-.4479 3.928-1.5678.964-1.0451.816-2.6129 0-3.6581-1.037-1.3438-2.89-1.9411-4.446-2.389-4.077-1.1945-8.524-.8959-12.378.7466-.593.3732-.37 1.2691.223 1.0451Z"/><path d="M196.603 38.0943c1.408-3.8822 7.56-3.9568 10.895-4.0315 2.372 0 4.818.1493 7.189.5973 1.927.3733 3.928.8959 5.633 1.941 1.705 1.0452 3.039 2.5383 3.484 4.5541.444 2.0157-.223 4.1061-2.076 5.2259-1.778 1.0452-4.002 1.4931-6.003 1.7918-2.075.3732-4.225.4479-6.3.2986-4.891-.2986-9.635-1.7171-13.785-4.2554-.519-.2986-.964.5226-.445.8212 4.151 2.5383 8.82 4.0314 13.637 4.33 2.372.1494 4.818.0747 7.189-.2986 2.224-.3733 4.818-.8212 6.745-2.2397 3.409-2.4636 2.372-7.5402-.519-10.0039-1.63-1.4185-3.78-2.2397-5.855-2.7623-2.52-.5972-5.188-.8958-7.856-.9705-2.742-.0747-5.633.0747-8.301.8959-2.001.5972-3.78 1.7917-4.595 3.8074-.148.5973.741.8213.963.2987Z"/><path d="M195.937 43.5443c-6.3 1.2691-12.6 2.3143-18.9 3.2102-3.038.3733-6.151.7465-9.19 1.0452-1.556.1493-3.113.2986-4.743.4479-.667.0747-1.408.1493-2.15.1493-.963 0-1.185-.6719-1.408-1.4931-.444-1.7171-.815-3.4342-1.26-5.1513-.222-.8212-.37-1.6424-.593-2.4636-.148-.448-.222-.9706-.37-1.4185 0 0-.074-1.4185.148-1.2692.445.3733.964-.4479.445-.8212-.89-.6719-1.557.448-1.631 1.2692-.074.6719.148 1.2691.297 1.941.222.9706.444 1.8664.667 2.837.444 1.8664.889 3.7328 1.334 5.5992.296 1.1945.963 1.8664 2.223 1.8664 1.853 0 3.78-.2986 5.559-.4479 1.853-.1494 3.78-.3733 5.633-.5973 3.705-.4479 7.411-.9705 11.117-1.4931 4.299-.6719 8.597-1.4185 12.896-2.3144.741-.0746.519-.9705-.074-.8958Z"/><path d="M157.174 36.7505c.667-.2986 1.482-.448 2.15-.1493.592.2239.518.8212.667 1.3438.222 1.1945.518 2.5383 1.111 3.5835.371.8212.964.8212 1.779.7465 1.334-.2239 2.668-.4479 4.002-.5972.223-.0747.371-.3733.297-.5973-.593-1.7917-1.26-3.5088-1.631-5.3752-.074.1493-.148.3733-.222.5226 1.334-.5973 2.52-1.1199 4.002-.5973-.074-.0746-.222-.2239-.296-.2986.593 1.5678 1.185 3.1356 1.778 4.7033.223.672.297 1.2692 1.038 1.4932 1.334.2986 2.89.0746 4.15-.0747 3.78-.224 7.634-.6719 11.414-1.1945 1.853-.224 3.706-.5226 5.559-.8212.889-.1493 1.927-.224 2.816-.4479.667-.224.889-1.1945 1.26-1.7918.297-.5226-.519-.9705-.815-.4479-.148.3733-.297.7465-.519 1.0452-.296.3732-.593.3732-1.038.4479-.963.1493-1.927.2986-2.816.4479-1.779.2987-3.632.5226-5.41.7466-1.927.224-3.928.4479-5.93.6719-1.927.224-3.779.3733-5.706.4479-.742.0747-1.483.0747-2.224.0747-.148 0-.445 0-.593-.0747-.222-.0746-.519-1.2691-.667-1.6424-.37-.8959-.667-1.7917-1.037-2.6876-.297-.7466-.297-1.3438-1.112-1.6425-1.557-.5225-2.965.1494-4.373.8213-.222.1493-.296.3732-.222.5972.444 1.7918 1.111 3.5835 1.63 5.3753.074-.224.223-.3733.297-.5973-1.26.224-2.52.3733-3.78.5973-1.038.1493-1.112-.8213-1.408-1.6425-.223-.5972-.371-1.2691-.519-1.8664-.148-.8212-.148-1.7171-1.038-2.0904-.963-.3732-2.001-.2986-2.89.0747-.519.224-.297 1.1198.296.8959Z"/><path d="M155.841 36.4519c1.112 4.6287 2.223 9.2574 3.335 13.8114.074.2986.296.3733.593.2986 11.784-1.941 23.568-3.8074 35.353-5.7485-.074-.2986-.148-.5973-.223-.8959-10.153 1.7918-20.307 3.5835-30.387 5.3006-.519.0747-.37.9705.149.8959 10.153-1.2692 20.307-2.5383 30.461-3.8075.444-.0746.667-.8212.148-.8959-2.075-.2986-4.15-.2239-6.152.2987-.518.1493-.37.9705.149.8958 1.408-.0746 2.816-.2986 4.15-.5972.667-.1493 1.334-.3733 2.001-.5226.816-.224 1.483.224 2.224.5973.518.2239 1.037-.5226.444-.8213-.667-.3733-1.334-.7465-1.927-1.0452-.148.2987-.222.5973-.37.8213 1.037.2986 2.001.7465 2.89 1.3438.445.2986.964-.3733.593-.7466-.667-.5226-1.26-1.0452-1.927-1.5678-.444-.3732-1.037.224-.667.6719.667.7466 1.408 1.3439 2.298 1.8664.148-.2986.222-.5972.37-.8212-1.26-.3733-2.594-.6719-3.854-1.0452-.518-.1493-.815.5973-.37.8213 1.112.6719 2.223 1.4184 3.409 2.0903.519.2987.889-.4479.445-.8212-.816-.6719-1.705-1.2691-2.52-1.9411-.148.2987-.297.5226-.445.8213 5.336 2.5383 11.117 3.8821 16.973 3.8074 4.076 0 9.931-.4479 11.636-5.0019-.297-.0747-.593-.0747-.89-.1493-.222 2.2396-2.89 3.1355-4.743 3.6581-2.372.6719-4.818.9705-7.263 1.0452-4.818.0747-9.71-.9705-14.008-3.1356-.519-.2986-.964.5226-.445.8213 5.559 3.1355 12.303 4.9273 18.677 4.1807 2.742-.2986 5.485-1.3438 6.967-3.8075.296-.5226.519-1.0451.667-1.6424.074-.2986 0-.6719.148-.9705.074-.224.297-.2987.445-.448.445-.4479.37-.9705.445-1.5677.074-.5973-.816-.8213-.89-.224-.074.2986 0 .8212-.148 1.1198.074-.1493-.297.224-.371.224-.593.5226-.444.5972-.593 1.3438-.074.5973-.37 1.1199-.667 1.6424-1.556 2.5384-4.669 3.3596-7.485 3.4342-5.855.224-11.784-1.3438-16.973-4.1807-.148.2986-.296.5226-.444.8212 4.891 2.4637 10.302 3.5835 15.786 3.2102 2.594-.1493 5.262-.5972 7.708-1.4931 1.853-.6719 3.706-1.8664 3.928-4.0314.074-.5973-.741-.5973-.889-.1494-1.631 4.3301-8.004 4.3301-11.71 4.2554-5.337-.0746-10.673-1.3438-15.564-3.6581-.519-.2986-.964.4479-.445.8212.815.6719 1.705 1.2692 2.52 1.9411.148-.2986.296-.5226.445-.8212-1.112-.672-2.224-1.4185-3.41-2.0904-.148.2986-.222.5972-.37.8212 1.26.3733 2.594.6719 3.854 1.0452.518.1493.815-.5973.37-.8212-.815-.448-1.556-.9706-2.149-1.7171-.222.2239-.445.4479-.667.6719.667.5226 1.26 1.0452 1.927 1.5678.222-.224.37-.5226.593-.7466-.964-.6719-2.001-1.1198-3.113-1.4931-.519-.1493-.815.5972-.371.8212.667.3733 1.334.7466 1.927 1.0452.149-.2986.297-.5226.445-.8212-.593-.2987-1.408-.8213-2.075-.8959-.519-.0747-1.334.3733-1.853.5226-1.631.4479-3.261.7465-4.892.8212.074.2986.074.5972.149.8959 1.852-.448 3.779-.5973 5.632-.2986.074-.2987.074-.5973.149-.8959-10.154 1.2691-20.308 2.5383-30.462 3.8074.074.2987.074.5973.149.8959 10.153-1.7917 20.307-3.5835 30.387-5.3006.593-.0746.37-.9705-.223-.8958-11.784 1.941-23.568 3.8074-35.353 5.7485.223.0746.371.2239.593.2986-1.111-4.6287-2.223-9.2574-3.335-13.8114-.148-.2986-1.037-.0746-.889.5226Z"/><path d="M203.126 39.9608c.296-1.1199 1.482-1.4932 2.446-1.7171 1.408-.2987 2.89-.224 4.298-.1494 1.112.0747 9.19.672 7.856 2.9116-.296.5226.519.9706.816.448.889-1.4931-.519-2.6876-1.779-3.1356-1.927-.6719-4.002-.8959-6.003-1.0452-1.853-.1493-3.78-.2239-5.633.224-1.26.2986-2.52.9705-2.891 2.3143-.148.448.741.6719.89.1494ZM165.475 36.6012c.445 1.4185.815 2.8369 1.26 4.2554.296-.0746.593-.1493.889-.224-.519-1.1945-.889-2.389-1.186-3.6581-.296.1493-.592.224-.815.3733.223.5226.445 1.0452.593 1.6424.074.2986.148.5973.222.8959.075.2986.075.5226.149.8212 0 .0746 0 .1493.074 0s0-.0747-.074-.0747c-.149 0-.297.0747-.445.0747-.296.0746-.593.0747-.889.1493-.593.0747-1.26.1493-1.853.224-.223 0-.371.3733-.297.5972.074.2987.297.3733.593.2987.741-.0747 1.482-.224 2.224-.2987.37-.0746.667-.0746 1.037-.1493.371-.0746.667-.2986.741-.6719.075-.2986-.074-.6719-.148-.9705-.074-.3733-.148-.6719-.296-1.0452-.223-.6719-.445-1.3438-.741-2.0157-.223-.5226-.964-.1493-.816.3733.297 1.2691.741 2.4636 1.186 3.6581.074.224.297.3733.593.2986.222-.0746.371-.2986.297-.5972-.445-1.4185-.816-2.837-1.26-4.2554-.297-.5226-1.186-.2986-1.038.2986ZM156.063 36.9745c.593 4.1061 1.482 8.1375 2.52 12.1689.296-.0746.593-.1493.889-.2239-.963-3.6582-1.927-7.3163-2.89-10.9745-.297.0747-.593.1493-.89.224 1.26 3.9568 2.594 7.9135 3.854 11.8703.149.5973 1.112.2986.89-.2239-1.26-3.9568-2.594-7.9136-3.854-11.8704-.148-.5972-1.038-.3733-.89.224.964 3.6581 1.927 7.3163 2.891 10.9744.148.5973 1.037.2987.889-.2239-1.037-4.0315-1.853-8.0629-2.52-12.169-.074-.5972-.963-.3733-.889.224ZM226.547 46.5305c2.445 1.8664 4.446 4.2554 5.855 7.0177.741 1.3438 1.408 2.8369 1.704 4.4047.371 1.9411-.667 3.3595-1.927 4.7034-2.297 2.389-4.817 4.7779-7.634 6.495-.815.5226-1.556.6719-2.519.3733-.816-.2986-1.631-.7465-2.372-1.2691-1.408-.8959-2.742-1.9411-3.928-3.1356-.148-.1493-.371-.224-.593-.0747-6.374 4.4794-11.71 10.1533-16.973 15.8272-2.668 2.8369-5.262 5.6738-8.078 8.3615-.667.6719-1.408 1.3438-2.075 1.941-.297.2986-.816.8959-1.186 1.0452-.89.3733-1.334-.2986-1.853-.8212-1.556-1.4931-3.113-3.0609-4.669-4.554-.89-.8959-1.779-1.7918-2.743-2.6877-.222-.2239-.444-.4479-.667-.6719-.074-.0746-.148-.1493-.222-.2239-.222-.2987-.296-.3733-.222-.0747.074-.224.222-.3733.37-.5226.816-.8212 1.779-1.4185 2.743-2.0157-.223 0-.371-.0747-.593-.0747.815.7466 1.63 1.4185 2.52 2.1651.667.5972 1.63 1.1945 2.149 1.8664.148.2239.519.1493.667 0 .741-.8212 1.482-1.6425 2.223-2.389.149-.1493.223-.3733.075-.5973-.742-1.0452-1.631-1.941-2.669-2.7623-.815-.6719-2.297-1.2691-1.63-2.5383.815-1.4931 2.668-2.165 3.706-3.4342-.223 0-.371.0747-.593.0747 1.63 1.1199 3.187 2.2397 4.817 3.4342.148.1493.445.0747.593-.0747 6.152-5.3752 12.303-10.7505 18.529-16.1257.222-.1493.148-.4479 0-.6719-1.705-2.0904-3.484-4.1807-5.188-6.3458v.6719c1.112-1.1198 2.149-2.2397 3.261-3.4342.445-.4479-.223-1.1198-.667-.6719-1.112 1.1199-2.15 2.2397-3.261 3.4342-.223.224-.148.448 0 .6719 1.704 2.0904 3.483 4.1808 5.188 6.3458v-.6719c-6.152 5.3752-12.303 10.7505-18.529 16.1257.222 0 .371-.0746.593-.0746-1.631-1.1199-3.187-2.2397-4.818-3.4342-.148-.0747-.444-.0747-.592.0746-1.186 1.4185-3.41 2.1651-4.077 4.0315-.296.8959 0 1.7917.741 2.389 1.334 1.1198 2.669 2.0157 3.706 3.5088 0-.224.074-.3733.074-.5972-.741.8212-1.482 1.6424-2.223 2.389h.667c-.519-.7466-1.482-1.2692-2.15-1.8664-.815-.7466-1.704-1.4185-2.519-2.1651-.149-.1493-.371-.2239-.593-.0746-.89.5972-1.853 1.1945-2.668 1.941-.297.2987-.742.6719-.89 1.1199-.148.5972.148.8212.519 1.1945 1.779 1.7171 3.557 3.5088 5.336 5.2259.89.8212 1.705 1.7171 2.594 2.5383.593.5973 1.334 1.5678 2.224 1.5678.815 0 1.482-.6719 2.001-1.1945.815-.7466 1.63-1.4931 2.446-2.3143 1.556-1.4932 3.038-3.0609 4.595-4.6287 2.964-3.1356 5.929-6.3458 8.968-9.4814 3.557-3.5835 7.189-7.0176 11.339-9.9292-.222 0-.37-.0747-.593-.0747 1.038 1.0452 2.076 1.9411 3.261 2.7623 1.112.7466 2.372 1.5678 3.706 1.9411 1.334.3732 2.446-.224 3.558-1.0452 1.186-.8959 2.371-1.7918 3.557-2.7623 1.186-1.0452 2.298-2.0904 3.409-3.2102.89-.9706 1.853-1.9411 2.298-3.2849.889-2.5383-.741-5.5992-2.001-7.7642-1.482-2.613-3.558-4.9274-5.929-6.7938-.148-.2986-.593.5226-.148.8959Z"/><path d="M214.984 64.7466c-5.633 4.1808-11.117 8.5855-16.38 13.2141-2.668 2.3144-5.262 4.7034-7.782 7.167-1.26 1.1945-2.52 2.389-3.631 3.5835-.964 1.0452-1.853 2.2397-1.705 3.7328.074.3733.445.672.815.2987 4.669-4.7034 9.265-9.4067 14.008-13.9607 4.595-4.4794 9.338-8.8095 14.527-12.6169.444-.3733 0-1.1199-.445-.8212-5.188 3.7328-9.932 8.0628-14.453 12.4675-4.817 4.7034-9.486 9.4814-14.23 14.2594.297.0746.519.2239.816.2986-.223-1.7918 1.482-3.1356 2.594-4.2554 1.111-1.1198 2.297-2.2397 3.483-3.3595 2.372-2.2397 4.818-4.4794 7.263-6.6444 5.04-4.4048 10.302-8.6602 15.713-12.6169.37-.2987-.149-1.1199-.593-.7466Z"/><path d="M176.222 83.112c.519 1.4185 1.779 2.2397 2.816 3.2102 1.26 1.1198 2.446 2.3143 3.632 3.5835.593.5972 1.112 1.1945 1.63 1.8664.519.5973 1.038 1.3438 1.557 1.8664.37.3733 1.112.5226 1.26-.1493.074-.5226-.445-.8212-.89-.5973-.148.0747-.222.224-.222.3733v.0747c.074.5972.964.5972.889 0v-.0747c-.074.1493-.148.2987-.222.3733-.148 0-.222 0-.37.0747-.075-.0747-.075-.1494-.149-.1494 0-.1493 0-.2239.074-.3732v.0746c.075-.0746.149-.1493.297-.2239 0 0-.964-1.1945-1.038-1.3439-.37-.4479-.741-.8958-1.111-1.2691-.816-.8959-1.631-1.7918-2.52-2.613-.816-.8212-1.705-1.6424-2.594-2.4636-.816-.6719-1.779-1.4185-2.15-2.389-.222-.6719-1.111-.3733-.889.1493Z"/><path d="M176.297 83.4853c3.631 2.7623 6.892 6.0471 9.709 9.6306.37.448 1.037-.2239.667-.6719-2.891-3.6581-6.226-6.943-9.932-9.7799-.444-.2987-.889.5226-.444.8212ZM182.818 77.2142c1.038 1.6424 2.223 3.2102 3.483 4.6287.223-.224.445-.448.667-.6719-1.259-1.2692-2.519-2.613-3.779-3.8822-.223.224-.371.5226-.593.7466.815.5226 1.556 1.1945 2.149 1.8664.296.3733.593.6719.889 1.1198.149.224.297.3733.371.5973.074.0747.148.224.222.2986 0 .0747.074.0747.074.1493.075.0747-.074.0747 0-.0746.075-.0747.075-.0747.149-.1493.074 0 .148-.0747.222-.0747.074 0 .148.0747.222.0747.074.0746.074.0746.074.1493v.2239c-.074.0747-.074.1494-.148.224-.074.0747-.222.0747-.296.1493h.074c.593 0 .593-.9705 0-.8958-.445 0-.667.4479-.445.8212.223.3733.741.4479.964.0746.222-.3733.074-.7465-.149-1.0452-.222-.2986-.444-.6719-.667-.9705-.963-1.2691-2.075-2.3143-3.335-3.2102-.444-.2986-.889.3733-.593.7466 1.26 1.2691 2.52 2.6129 3.78 3.8821.445.4479 1.038-.224.667-.6719-1.26-1.4185-2.371-2.9116-3.409-4.4794-.074-.5972-.889-.1493-.593.3733Z"/><path d="M183.634 78.558c1.186.6719 2.223 1.4931 3.039 2.5383.148.2239.518.1493.667 0 .222-.224.148-.448 0-.6719-.89-1.0452-2.001-2.0158-3.261-2.6877-.223-.1493-.519-.0746-.667.1494-.075.2239 0 .5225.222.6719ZM175.925 84.0825c2.669 3.8075 5.93 7.167 9.709 9.9293.519.3733.964-.448.445-.8213-3.631-2.6129-6.818-5.8978-9.338-9.5559-.371-.5226-1.186-.0747-.816.4479ZM214.021 66.1651c.889.8958 1.853 1.7171 2.742 2.6129.815.8213 1.63 1.6425 2.594 2.2397.815.5226 1.853.9706 2.89.8212.89-.0746 1.853-.5972 1.705-1.6424-.074-.5972-.963-.3733-.889.224.074.2986-.667.4479-.89.5226-.37.0746-.815 0-1.186-.1493-.815-.2987-1.556-.8213-2.223-1.4185-1.408-1.2692-2.742-2.613-4.15-3.9568-.371-.2986-1.038.2986-.593.7466Z"/><path d="M216.021 67.2103c1.26 1.4931 2.668 2.9862 4.447 3.7328 1.927.8212 3.854.5226 5.633-.5226 2.001-1.1199 3.854-2.7623 5.485-4.3301 1.482-1.4185 3.112-2.9862 3.409-5.0766.074-.5973-.815-.8212-.89-.224-.296 1.9411-1.778 3.3596-3.187 4.7034-1.482 1.4184-3.038 2.7622-4.743 3.8821-1.705 1.1198-3.483 1.6424-5.41.7465-1.705-.7465-2.965-2.165-4.151-3.5088-.296-.5226-.963.1493-.593.5973ZM204.682 52.7269c-.148 1.1945.445 2.3144 1.112 3.2849.815 1.0452 1.705 2.0157 2.594 3.0609.37.4479 1.037-.224.667-.6719-.815-.8959-1.631-1.7918-2.446-2.7623-.667-.8212-1.186-1.7917-1.037-2.8369 0-.224-.223-.448-.445-.448-.297-.0746-.445.1493-.445.3733Z"/><path d="M205.275 53.7721c.964 2.0157 2.298 3.8821 4.003 5.3006 0-.224-.075-.3733-.075-.5973-.37.5973-.667 1.1199-1.037 1.7171-.297.5226.519.9705.815.448.371-.5973.667-1.1199 1.038-1.7171.074-.1494.074-.448-.074-.5973-1.631-1.4185-2.965-3.1355-3.854-5.1513-.223-.4479-1.038.0747-.816.5973ZM222.321 49.1434c1.186.7466 2.224 1.6425 3.187 2.6877.964.9705 1.927 2.0157 2.52 3.2848 1.483 3.0609-1.186 5.6739-3.335 7.4656-.741.6719-1.408.3733-2.223-.0746-.593-.3733-1.186-.7466-1.779-1.2692-1.038-.8958-1.927-1.8664-2.891-2.8369-1.037-1.1198-2.075-2.165-3.112-3.2849-.445-.5226-.964-.9705-1.409-1.4931-.37-.3733-1.482-2.0904-.148-2.0157-.074-.2986-.074-.5973-.148-.8959-.667.224-1.112.5973-1.482 1.1199-.371.5225.444.9705.815.4479.222-.3733.519-.5973.889-.6719.519-.1493.371-.8959-.148-.8959-.963-.0746-1.63.8212-1.556 1.7171.074 1.1945 1.334 2.2397 2.149 2.9862 2.149 2.2397 4.15 4.7034 6.596 6.6444.89.7466 2.075 1.7171 3.335 1.8664 1.112.1494 2.076-.9705 2.817-1.717 1.927-1.7918 3.706-4.4048 2.594-7.167-.593-1.4185-1.631-2.5383-2.594-3.6582-1.112-1.1945-2.298-2.2397-3.632-3.1355-.519-.224-.963.5972-.445.8958Z"/><path d="M220.172 48.8448c2.372 1.8664 4.595 4.0314 6.226 6.5697.815 1.2692 1.186 2.6876.445 4.0314-.667 1.1945-1.779 2.0904-2.891 2.837-.444.3733 0 1.1198.445.8212 2.372-1.7171 4.743-4.0314 3.335-7.167-.667-1.4931-1.853-2.8369-2.965-4.1061-1.185-1.3438-2.519-2.5383-4.002-3.6581-.444-.3733-1.111.2986-.593.6719Z"/><path d="M221.21 48.6209c1.112 1.1945 2.224 2.389 3.261 3.5835 1.112 1.1945 2.224 2.4636 3.187 3.8074.89 1.3438 1.038 2.7623.149 4.1808-.89 1.2691-2.298 2.0157-3.632 2.7623-.519.2986-.074 1.1198.445.8212 1.408-.7466 2.89-1.6425 3.854-2.9863.889-1.2691 1.111-2.7622.518-4.1807-.667-1.5678-2.001-2.9116-3.112-4.1061-1.335-1.4931-2.669-2.9863-4.003-4.4047-.444-.5973-1.037.0746-.667.5226ZM214.465 50.4126c-1.037.1493-1.927 1.0452-2.297 2.0157-.074.224.074.5226.296.5973.223.0746.519-.0747.593-.2987 0-.0746.074-.0746.074-.1493v.0747-.1493c.074-.0747.074-.224.148-.2986 0 0 0-.0747.075-.0747 0-.0747 0 0 0 0s.074-.0747.074-.1493c.074-.0747.148-.1493.222-.224 0 0 .074 0 .074-.0746.074-.0747-.074.0746 0 0 .074 0 .074-.0747.148-.0747.074-.0747.223-.1493.297-.1493h.074c.074 0-.074.0746 0 0 .074 0 .074 0 .148-.0747.074 0 .223-.0746.297-.0746.222-.0747.37-.3733.296-.5973 0-.2239-.222-.2986-.519-.2986Z"/><path d="M214.317 50.7113c-.222.3733-.445.6719-.667.9705 0 0 .074-.0746 0 0 0 0 0 .0747-.074.0747 0 .0746-.074.0746-.074.1493-.074.0746-.149.1493-.223.2239-.148.1494-.296.2987-.444.448-.149.1493-.223.4479 0 .6719.148.1493.444.224.667 0 .593-.6719 1.111-1.3438 1.556-2.0904.148-.224.074-.5226-.148-.6719-.222 0-.519.0747-.593.224Z"/><path d="M215.429 50.6366c-1.112.2239-2.149 1.0451-2.594 2.165-.074.1493-.074.224-.074.3733 0 .0746.148.2239.222.2986.222.0746.519.0747.667-.1493.074-.224.222-.448.371-.6719.074-.0747-.074.0746 0 0 0 0 0-.0747.074-.0747.074-.0746.074-.0746.148-.1493.074-.0746.148-.1493.297-.224 0 0 .074-.0746 0 0-.075.0747 0 0 0 0 .074-.0746.148-.0746.148-.1493.074-.0746.222-.1493.296-.1493h.074c.074 0-.074 0 0 0s.149-.0746.149-.0746c.148-.0747.222-.0747.37-.0747.222-.0747.371-.3733.297-.5973.074-.4479-.149-.5972-.445-.5225Z"/><path d="m212.613 51.2338-.074.0747s-.075.0746 0 0c-.075.0746-.075.0746-.149.1493-.074.0747-.148.224-.222.2986-.074.0747-.148.1493-.296.224-.075.0746-.075.0747-.149.1493-.074 0 .074-.0746 0 0l-.074.0747c-.222.1493-.296.4479-.148.6719.222.3733.519.7465.741 1.1198.148.224.445.2986.667.1493.222-.1493.297-.4479.148-.6719-.222-.3733-.518-.7465-.741-1.1198-.074.2239-.074.4479-.148.6719.519-.3733.963-.8212 1.26-1.2692.148-.2239.074-.5226-.148-.6719-.297-.1493-.519-.0746-.667.1493ZM215.503 41.9765c-1.482-3.8075-1.186-8.1376.667-11.7957 1.927-3.7328 5.262-6.2711 9.338-7.167 4.077-.8959 8.672 0 11.933 2.8369 3.78 3.2849 4.447 8.8841 3.039 13.5128-1.483 4.8527-5.485 8.6601-10.302 10.0039-.593.1493-.297 1.0452.222.8959 4.521-1.2691 8.449-4.554 10.302-8.9587 1.927-4.5541 2.001-10.5266-1.112-14.558-5.781-7.391-18.01-6.1218-23.198 1.2692-2.816 4.1061-3.557 9.556-1.778 14.1846.222.5973 1.111.3733.889-.2239ZM224.397 51.9804c-2.52.224-5.114-.3733-7.263-1.7918-.149.2987-.223.5973-.371.8213 2.075.8958 4.299 1.4931 6.522 1.8664.593.0746.816-.6719.223-.8959-1.779-.5973-3.484-1.3438-5.114-2.165-.445-.224-.964.3732-.593.7465 1.704 1.4931 3.78 2.4637 6.077 2.7623.074-.2986.074-.5972.148-.8959-1.927-.1493-3.854-.6719-5.558-1.6424-.148.2986-.297.5226-.445.8212 1.927.8959 3.928 1.4931 6.078 1.7171v-.8959c-2.15-.2239-4.299-.9705-6.226-2.0157-.519-.2986-.964.5226-.445.8212 2.075 1.1199 4.299 1.8664 6.671 2.1651.592.0746.592-.8959 0-.8959-1.927-.224-3.854-.7466-5.559-1.5678-.519-.224-.964.5226-.445.8212 1.853 1.0452 3.928 1.6425 6.078 1.7918.518 0 .667-.8213.148-.8959-2.075-.2986-4.002-1.1945-5.633-2.5383-.222.224-.37.5226-.593.7465 1.705.8959 3.484 1.6425 5.336 2.3144.075-.2986.149-.5973.223-.8959-2.224-.3733-4.447-.9705-6.522-1.8664-.519-.224-.741.5973-.371.8212 2.298 1.4931 5.04 2.1651 7.708 1.9411.519-.2986.519-1.2692-.074-1.1945Z"/><path d="M214.762 42.1258c-2.668-4.5541-2.89-10.3026-.371-14.9313 2.446-4.6287 7.338-8.0628 12.674-7.4656 9.116 1.0452 16.824 10.2279 14.749 19.5599-1.112 4.778-4.447 9.0334-9.116 10.6012-.593.224-.297 1.1198.222.8959 4.447-1.4931 7.782-5.226 9.265-9.6307 1.556-4.6287.889-9.6306-1.779-13.7367-2.594-4.1061-6.893-7.167-11.636-8.2868-2.817-.672-5.707-.448-8.301.8212-2.372 1.1945-4.447 2.9862-5.929 5.1512-3.632 5.1513-3.78 12.0944-.593 17.4696.296.5226 1.111.0747.815-.4479Z"/><path d="M214.317 40.6327c-1.927-5.7486-.148-12.4676 4.817-16.0511 2.298-1.6424 5.114-2.613 7.931-2.613 3.409 0 6.522 1.5678 9.56 2.9863.519.2986 1.038-.5226.445-.8212-2.594-1.2692-5.188-2.5384-8.078-2.9863-2.372-.3733-4.818-.0747-7.041.8212-4.521 1.7918-7.931 5.6739-8.968 10.4519-.593 2.7623-.445 5.6739.444 8.4361.149.5973 1.038.3733.89-.2239ZM183.93 76.9902c-.667-.5226-.815-1.4931-.445-2.2397.148-.224-.222-.3733-.296-.224-.519.8959-.223 2.0904.593 2.6877.074.0746.222 0 .222-.0747.074 0 0-.0747-.074-.1493Z"/><path d="M182.744 75.6464c-.593 1.3438-.148 2.9862 1.038 3.8821.222.1493.37-.1493.222-.2987-1.038-.7465-1.408-2.2396-.89-3.3595.075-.2239-.296-.4479-.37-.2239ZM187.858 80.8723c-.963 1.1945-2.001 2.2397-3.113 3.2102-.148.1493.074.4479.297.2986 1.111-.9705 2.149-2.0903 3.113-3.2102.148-.224-.149-.5226-.297-.2986ZM166.439 40.1101c.445.2239.816.5972.964 1.1198.074.0747.074.224.074.2986 0 .224 0 .2987-.222.3733-.297.0747-.593.0747-.89.1493-1.26.224-2.52.3733-3.854.5973-.222 0-.148.3733.074.3733.816-.1493 1.557-.224 2.372-.3733.741-.1493 1.556-.224 2.372-.3733.667-.1493.593-.6719.37-1.1945-.222-.5226-.593-.9705-1.111-1.2692-.149-.1493-.371.1494-.149.2987ZM202.533 37.1984c-.816-.1493-1.483.448-1.779 1.1945-.297.8959.074 1.7918.667 2.389.741.7466 1.779 1.2692 2.816 1.6425 1.186.5226 2.52.8212 3.78 1.0452.222 0 .371-.2987.074-.3733-1.927-.2986-4.002-.8959-5.707-2.0157-.667-.448-1.408-1.1199-1.408-2.0157 0-.7466.593-1.6425 1.408-1.4932.223 0 .371-.3733.149-.3733ZM224.619 62.5069c-.741.3733-1.556.5226-2.371.4479-.074 0-.223 0-.223.1493 0 .0747 0 .224.149.224.889.1493 1.853 0 2.668-.4479.148-.1493 0-.5226-.223-.3733ZM235.069 58.6995c.074 1.5678-.371 3.0609-1.26 4.2554-.148.2239.148.3733.296.2239.964-1.2691 1.409-2.9115 1.334-4.4793 0-.224-.37-.224-.37 0ZM224.471 44.5894c.593.5226 1.112 1.0452 1.705 1.6425.148.1493.444-.0747.296-.2987-.593-.5225-1.112-1.0451-1.704-1.6424-.149-.1493-.445.1493-.297.2986Z"/><path d="M224.619 43.9175c.964.8959 1.853 1.8664 2.594 2.9116.148.224.445 0 .297-.224-.816-1.0452-1.705-2.0903-2.668-2.9862-.149-.1493-.371.1493-.223.2986ZM224.174 42.1258c-1.334 4.554-6.448 5.8978-10.598 6.4204-.222 0-.222.3733 0 .3733 4.299-.5226 9.487-1.9411 10.969-6.7191.074-.2239-.297-.2986-.371-.0746ZM219.653 48.8448c-1.556.5226-3.261.8212-4.892.9705-.222 0-.222.3733 0 .3733 1.705-.1493 3.41-.4479 5.04-.9705.223-.0747.074-.448-.148-.3733ZM213.279 51.2339c-.444-.2987-.963 0-1.186.4479-.296.5972.074 1.1945.371 1.6424.148.224.445 0 .296-.224-.222-.3732-.518-.8212-.37-1.2691.074-.1493.148-.2986.296-.2986.149-.0747.223-.0747.371 0 .074.0746.222 0 .222-.0747.074-.0746.074-.1493 0-.2239Z"/><path d="M212.242 52.4283c-.519-.224-.963-.7466-1.037-1.3438 0-.0747-.149-.1493-.223-.1493-.074 0-.148.1493-.148.2239.148.672.593 1.2692 1.186 1.5678.074.0747.222 0 .222-.0746.148 0 .148-.1493 0-.224ZM224.323 63.1042c-.519-.0747-1.038-.224-1.631-.2987-.074 0-.222 0-.222.1494 0 .0746 0 .2239.148.2239.519.0747 1.038.224 1.63.2986.075 0 .223 0 .223-.1493 0-.0746 0-.1493-.148-.2239Z"/><path d="M225.064 62.5068h-2.595c-.222 0-.222.3733 0 .3733h2.595c.222 0 .222-.3733 0-.3733ZM190.897 76.0943c.074.2986.222.5226.444.6719.297.2239.445.0746.667-.1494.593-.5972 1.186-1.1198 1.779-1.717 1.186-1.1945 2.298-2.389 3.335-3.7328.148-.1494-.074-.448-.296-.2987-1.631 2.0157-3.484 3.8821-5.411 5.6739.074 0 .149 0 .149-.0747-.223-.0746-.445-.2239-.445-.4479.074-.2986-.297-.224-.222.0747ZM185.116 79.0806c.667.8212 1.557 1.4185 2.52 1.7171.222.0747.296-.2986.074-.3733-.963-.2986-1.779-.8212-2.372-1.6424-.074-.1493-.37.0746-.222.2986Z"/><path d="M187.414 80.4991c.37.0746.593.3732.593.7465 0 .3733-.297.6719-.593.6719-.074 0-.148.1493-.148.224 0 .0747.148.1493.222.1493.519-.0746.889-.5226.889-1.0452s-.37-.9705-.889-1.0452c-.074 0-.222 0-.222.1493 0 0 0 .1494.148.1494ZM178.223 80.3497c-1.186 1.1199-2.224 2.4637-3.113 3.8822-.074.0746 0 .1493 0 .2239 1.557 1.7918 3.409 3.2849 5.485 4.4794.222.1493.37-.224.222-.2986-2.001-1.1945-3.854-2.613-5.41-4.4047v.2239c.815-1.4184 1.852-2.6876 3.038-3.8074.223-.224 0-.448-.222-.2987ZM234.328 57.8782c.223.4479.223 1.0452.074 1.4931 0 .0747.075.224.149.224s.222 0 .222-.1493c.222-.5973.148-1.2692-.074-1.7918-.148-.1493-.519 0-.371.224ZM231.66 51.2338c.445-.224.816-.3733 1.26-.5973.074-.0746.148-.1493.074-.224-.074-.0746-.148-.0746-.222-.0746-.445.224-.815.3733-1.26.5972-.074.0747-.148.1493-.074.224 0 .1493.148.1493.222.0747ZM215.725 50.7858c2.817 1.8664 6.078 2.9116 9.413 3.0609.222 0 .222-.3733 0-.3733-3.335-.0746-6.522-1.1198-9.264-2.9862-.149-.224-.297.1493-.149.2986ZM234.328 50.2633c.148-.0747.222-.1493.37-.2987.075 0 .074-.0746.074-.0746v-.1493c0-.0747-.074-.0747-.074-.0747h-.148c-.148.0747-.222.1493-.37.2986-.075 0-.075.0747-.075.0747v.1493c0 .0747.075.0747.075.0747h.148ZM236.7 46.9785c.371.2986.741.5972 1.186.8958.074.0747.222 0 .222-.0746.074-.0747 0-.224-.074-.224-.37-.2986-.741-.5972-1.186-.8959-.074-.0746-.222 0-.222.0747s0 .224.074.224Z"/><path d="M213.502 68.5541c-6.67 6.719-13.341 13.3634-20.011 20.0825-1.631 1.6424-3.335 3.3595-4.966 5.002-.37.3732-.815.8212-1.186 1.1945-.593.5972-.667.6719-1.408.2239-.963-.5972-1.853-1.1198-2.742-1.7917-3.484-2.389-6.819-5.1513-9.783-8.1375-.074-.0747-.445-.3733-.445-.448-.074-.2986.445-.8212.593-1.0452.37-.4479.815-.8958 1.186-1.3438.815-.8212 1.63-1.5678 2.52-2.389.296-.2986.963-1.1198 1.408-1.1198.444 0 1.408.9705 1.704 1.1945.964.7465 1.927 1.5678 2.817 2.389.074.0746.222.0746.296-.0747.148-.2239.371-.5226.519-.7465.074-.0747 0-.1494 0-.224-1.112-1.2692-2.223-2.4637-3.483-3.6582-.223-.1493-.816-.5972-.816-.8958 0-.224.667-.8213.89-.9706.519-.4479 1.037-.8958 1.556-1.3438.519-.4479 1.112-.9705 1.631-1.4931.37-.2986.667-.5973 1.037-.8959.371-.2986.89-.8959 1.334-1.0452.742-.2986 1.779.7466 2.372 1.1945.741.5226 1.482 1.0452 2.224 1.6425.074.0746.148 0 .222 0 2.816-2.4637 5.559-5.002 8.301-7.5403 1.408-1.2692 2.742-2.613 4.076-3.8821 1.186-1.1199 2.372-2.1651 3.335-3.4342.074-.0747 0-.1493 0-.224-1.927-1.4931-3.705-3.1355-5.262-4.9273-.148-.1493-.445.0747-.296.2986.963 1.0452 1.927 2.0904 3.038 3.0609.519.448 1.038.9706 1.631 1.4185.37.2986.445.3733.148.8212-.222.2986-.519.5973-.741.8212-2.075 2.1651-4.373 4.1808-6.596 6.1965-2.224 2.0904-4.521 4.1808-6.819 6.2711-.222.224-.593.6719-.963.7466-.297 0-.593-.2986-.89-.5226-.667-.4479-1.334-.9705-2.001-1.4185-.963-.6719-1.334-1.1945-2.297-.4479-1.26.9705-2.372 2.0157-3.558 3.0609-.963.8959-2.075 1.7171-2.816 2.8369-.074.0747 0 .1493 0 .224.889.7466 1.778 1.5678 2.594 2.389.37.3733.741.8212 1.111 1.1945.519.5972.742.6719.223 1.4185.074 0 .222 0 .296-.0747-1.556-1.3438-3.113-2.613-4.743-3.8075-.074-.0746-.148 0-.222 0-2.15 1.9411-4.299 3.8075-6.078 6.1218-.074.0747 0 .1494 0 .224 4.151 4.4047 8.894 8.1375 14.156 11.1984.074.0747.148 0 .222 0 8.968-9.0334 18.01-17.9921 26.978-27.0255.149-.224-.074-.4479-.296-.2986ZM214.095 68.4047c.815.8212 1.556 1.6424 2.371 2.4637.741.7465 1.408 1.5677 2.224 2.165.667.5226 1.408.8212 2.223.7466.964-.0747 1.927-.5226 2.891-.5973.222 0 .222-.3733 0-.3733-.89.0747-1.631.3733-2.52.5226-1.038.224-1.927-.1493-2.742-.8959-1.483-1.3438-2.817-2.8369-4.225-4.33-.148-.1493-.445.0746-.222.2986ZM158.509 52.3536c7.634-.9705 15.268-1.8664 22.902-2.7622 3.779-.448 7.485-.8959 11.265-1.3438.889-.0747 1.779-.224 2.668-.224.964.0746 1.853.4479 2.742.7466 1.853.6719 3.632 1.2691 5.485 1.941.222.0747.296-.2986.074-.3733-1.853-.6719-3.632-1.2691-5.484-1.941-.816-.2987-1.631-.5973-2.52-.7466-.742-.0746-1.557 0-2.298.0747-3.854.4479-7.782.8958-11.636 1.3438-7.782.8959-15.49 1.8664-23.272 2.8369-.222.0747-.222.4479.074.4479ZM203.645 50.9352c-.889.6719-1.779 1.3438-2.742 2.0157-.223.1493 0 .448.222.2987.889-.6719 1.779-1.3438 2.742-2.0158.148-.1493-.074-.4479-.222-.2986ZM154.136 36.2279c1.111 5.2259 2.52 10.3025 4.076 15.3792.074.2239.445.1493.371-.0747-1.557-5.0766-2.891-10.2279-4.077-15.3792-.074-.2239-.444-.1493-.37.0747ZM155.099 35.0335c1.112-.0747 2.297-.1494 3.409-.1494.593 0 1.26-.0746 1.853 0h.222c.297 0 .519.1494.593.448.148.224.223.5972.297.8959.37.9705.593 2.0903 1.111 3.0609.297.6719.964.6719 1.631.4479.074 0 .148-.1493.148-.224-.37-1.6424-.741-3.3595-1.037-5.0019-.075.0746-.075.1493-.149.2239 1.186-.4479 2.446-.6719 3.706-.7465.222 0 .222-.3733 0-.3733-1.334.0746-2.594.2986-3.854.7466-.074 0-.148.1493-.148.2239.296 1.7171.667 3.3595 1.038 5.002.074-.0747.074-.1493.148-.224-.371.0747-.816.224-1.112-.1493-.148-.1493-.222-.4479-.296-.6719-.149-.5226-.371-1.0452-.519-1.5678-.148-.5226-.371-1.0452-.519-1.5678-.074-.2986-.148-.6719-.445-.8212-.296-.2239-.815-.0746-1.186-.0746h-1.63c-1.112 0-2.224.0746-3.335.1493-.223 0-.223.3733.074.3733ZM168.663 33.4656c2.075-.5226 2.742 4.1061 3.631 5.3753 1.038 1.4184 3.484.9705 5.04.7465 5.707-.7465 11.414-1.2691 17.046-2.5383.223-.0746.149-.3733-.074-.3733-5.781 1.2692-11.636 1.8664-17.565 2.5383-1.038.1494-2.446.2987-3.483-.0746-.964-.4479-1.334-1.7918-1.705-2.7623-.445-1.2691-1.186-3.8075-3.039-3.3595-.222.1493-.074.5226.149.4479Z"/><path d="M194.306 36.8998c4.521-3.8821 10.747-4.8527 16.528-4.554.222 0 .222-.3733 0-.3733-5.855-.224-12.155.6719-16.75 4.7033-.222.0747.074.3733.222.224ZM215.578 32.7938c3.779 1.0451 8.3 2.4636 9.857 6.5697.296.8959.445 1.7171.37 2.6876 0 .8212.075 1.3438.667 1.8664 1.557 1.6425 3.261 3.2102 4.892 4.8527.148.1493.445-.0747.296-.2986-.889-.8213-1.704-1.7171-2.594-2.5384-.815-.8212-1.778-1.5677-2.445-2.4636-.667-.8212-.297-2.0157-.445-2.9863-.148-.8212-.445-1.6424-.889-2.389-2.002-3.4341-5.93-4.7033-9.561-5.7485-.297.0747-.371.3733-.148.448ZM233.81 51.9803c1.186 1.9411 2.223 4.0315 2.446 6.3458.148 2.0904-.445 4.0314-1.631 5.7485-2.298 3.3596-6.003 5.8979-9.264 8.2122-.223.1493 0 .4479.222.2986 3.483-2.4636 7.486-5.0766 9.709-8.8094 1.038-1.7171 1.556-3.7328 1.334-5.7485-.296-2.2397-1.334-4.3301-2.446-6.1965-.148-.224-.444-.0747-.37.1493ZM196.604 86.0983c.074.9705.148 1.941.222 2.9862 0 .5226-.074 1.2692.445 1.6424.519.3733 1.037 0 1.556 0 1.038 0 1.779 1.1199 1.26 2.0158-.667 1.1945-2.297.2986-2.594 1.8664-.296 1.7917-.074 3.7328.148 5.5249 0 .224.223.448.445.448h6.744c.297 0 .519-.299.445-.5977-.445-1.3438.297-3.4342 2.001-2.7623 1.26.5226.519 2.2397 1.853 2.5383.741.1493 1.631 0 2.372-.0746.444 0 .963 0 1.334-.3733.37-.3733.296-.8212.296-1.3438-.074-.8959-.222-1.7171-.37-2.613 0-.2986-.297-1.1198-.148-1.3438.148-.224.667-.224.889-.224.593-.0746 1.186-.2239 1.705-.5972.889-.5226 1.26-1.5678 1.111-2.5383-.37-2.389-3.038-3.8075-5.04-2.3144.223.0747.445.1494.667.2987-.296-1.8664-.518-3.7328-.592-5.6739 0-.2986-.223-.4479-.445-.4479-1.26-.1493-2.594-.0747-3.854-.1493.148.1493.296.2986.445.4479.074-1.1199.148-2.389-.519-3.3595-.519-.7466-1.408-1.1945-2.372-1.0452-.889.1493-1.705.6719-2.149 1.4184-.667 1.0452-.519 2.3144-.297 3.5089.149-.224.297-.3733.445-.5973-1.038.1493-2.075.2987-3.039.5226-.593.1493-.37 1.0452.223.8959.963-.224 1.853-.3733 2.816-.5226.296-.0746.519-.2986.445-.5972-.223-.8959-.371-1.9411.148-2.7623.37-.5226.963-.8959 1.556-.9705 1.927-.1494 1.853 2.2396 1.779 3.5834 0 .224.222.448.445.448 1.26.0746 2.594.0746 3.854.1493-.148-.1493-.297-.2986-.445-.4479.148 2.0157.371 3.9567.667 5.8978.074.2986.445.4479.667.2986 1.334-.9705 2.965-.2986 3.558 1.1945.593 1.6425-.741 2.389-2.15 2.5383-.889.0747-1.482.2986-1.408 1.3438.074.7466.222 1.4932.297 2.2397.074.3733.074.6719.148 1.0452.074.5973.222.9705-.445 1.1945-.37.0747-.889 0-1.26.0747-.222 0-.741.1493-.963 0-.519-.224-.445-1.1945-.667-1.5678-.445-.6719-1.186-1.1199-2.001-1.1199-2.076-.0746-3.039 2.3144-2.446 4.0312.148-.2237.296-.373.444-.597h-6.744c.148.1493.296.2987.445.448-.149-.9706-.223-1.9411-.223-2.9863v-1.4185c0-.6719.074-1.1198.741-1.3438.593-.2239 1.038-.2239 1.483-.6719.37-.3732.667-.8958.667-1.4931.074-1.1198-.815-2.165-1.927-2.389-.297-.0746-.519-.0746-.815 0-.519.0747-.593.224-.742-.2986-.222-1.0452-.148-2.2397-.222-3.3595 0-.5973-.963-.5973-.889 0Z"/><path d="M204.608 79.3045c.741-.4479 1.63-.0746 2.075.6719.445.7466.445 1.7171.37 2.613 0 .2986.223.4479.445.4479 1.26.0747 2.52.1493 3.78.224-.148-.1493-.297-.2986-.445-.4479-.074 1.8664.074 3.7328.445 5.5245.074.2986.445.448.667.2986 1.26-.7465 2.965-.4479 3.483 1.0452.519 1.3438-.222 2.613-1.408 3.2102-.815.448-1.927.448-2.075 1.5678-.222 1.3438.148 2.9863.445 4.2554.148.5973 1.037.2987.889-.2239-.222-.9706-.445-1.9411-.445-2.9863 0-.6719.074-1.1945.816-1.4185.296-.0746.593-.2239.889-.3732 1.112-.5973 2.001-1.6425 2.075-2.9116.148-2.7623-2.816-4.4047-5.04-2.9863.223.0747.445.1493.667.2987-.37-1.7171-.444-3.5089-.37-5.3006 0-.2987-.222-.448-.445-.448-1.26-.0746-2.52-.1493-3.78-.224.149.1494.297.2987.445.448.074-1.3438 0-2.837-1.112-3.7328-.815-.6719-1.927-.8959-2.816-.2986-.519.2986-.074 1.1198.445.7465ZM205.942 99.3124c-.074-.1493-.074-.224-.148-.3733v-.0746c0 .0746 0 .0746 0 0v-.5226c0-.1493.074-.224.074-.3733v-.0747c0 .0747 0 .0747 0 0 0-.0746.074-.0746.074-.1493 0-.0746.074-.1493.074-.1493s.074-.0747 0-.0747c-.074.0747 0 0 0 0 .074-.0746.149-.1493.223-.2239.074-.0747-.074.0746 0 0 0 0 .074 0 .074-.0747.074 0 .148-.0746.148-.0746.222-.1493.296-.448.148-.6719-.148-.224-.37-.2987-.667-.1493-1.112.5972-1.704 2.0903-1.186 3.2102.074.2239.297.3733.593.2986.445 0 .667-.2986.593-.5226Z"/><path d="M209.351 99.9096c1.334-.3733 2.668-.4479 4.002-.3733.297 0 .519-.2986.445-.5972-.148-.8212-.297-1.6425-.371-2.4637-.074-.3733-.074-.8212-.074-1.1945v-.5972c0-.1494-.074-.3733 0-.5226-.074.0746-.148.1493-.222.2986h.074c-.148 0-.222 0-.371.0746-.074-.0746-.148-.1493-.296-.2239 0-.0747-.074-.1493-.074-.224 0-.0746.074-.1493.074-.224.148-.0746.37-.1493.519-.2239-.593-.1493-.816.7465-.223.8958.223.0747.445 0 .519-.2239.371-.5973-.519-1.1199-.889-.5226-.148.224-.074.5972-.074.8212v.9705c.074 1.1945.222 2.4637.444 3.6582.149-.224.297-.3733.445-.5973-1.408-.0746-2.816.0747-4.225.448-.518.0746-.296.9706.297.8212Z"/><path d="M198.012 100.955c2.445-.597 4.891-.821 7.337-.672.222 0 .519-.224.445-.448-.074-.8958-.297-2.9116 1.111-2.8369 1.038.0746.667 1.7917.89 2.4636.296.8963 1.186.6723 1.927.6723 1.186-.075 2.371-.1497 3.631-.299.297 0 .519-.2986.445-.5972-.074-.5973-.148-1.1199-.222-1.7171-.074-.5973-.964-.3733-.89.224.074.5972.149 1.1198.223 1.717.148-.2239.296-.3732.444-.5972-.815.0747-1.63.1493-2.371.224-.371 0-.816.0746-1.186.0746-.148 0-.741.1493-.89.0747-.37-.224-.222-1.2692-.296-1.7171-.074-.448-.296-.8212-.593-1.1199-.667-.5972-1.63-.4479-2.297.1493-.964.8213-.89 2.0904-.742 3.2849.149-.1493.297-.2986.445-.4479-2.594-.1493-5.114.0746-7.634.6719-.593.149-.37 1.045.223.896ZM198.234 91.1749c.074 0 .148 0 .222-.0747-.074 0-.074 0 0 0h.445s-.074 0 0 0 .148.0747.296.0747c.074 0 .074 0 .148.0747.075 0 0 0 0 0h.075c.074.0746.148.0746.222.1493h.074c.074 0-.074-.0747 0 0l.074.0746c.074.0747.148.1493.222.224.075.0746.223.1493.297.1493.148 0 .222-.0747.296-.1493.075-.0747.149-.224.149-.2986 0-.1493-.074-.224-.149-.2987-.593-.7465-1.63-1.0451-2.445-.7465-.223.0746-.371.2986-.297.5972-.148.1493.148.2987.371.224ZM205.053 79.0806c.889.0746 1.63.6719 1.853 1.5678.148.5972.074 1.1945.444 1.7171.371.4479.89.5226 1.483.5972.963.1493 1.927.2986 2.964.3733-.148-.1493-.296-.2986-.445-.4479 0 1.7917.223 3.5088.519 5.2259.074.224.371.3733.593.2986 1.483-.2986 3.113.6719 3.484 2.165.37 1.6425-.89 3.3596-2.52 3.5089-.593.0747-.593.9705 0 .8959 2.149-.2987 3.854-2.3144 3.483-4.4794-.37-2.165-2.668-3.4342-4.669-3.0609.222.0746.37.224.593.2986-.297-1.6424-.445-3.2849-.445-5.002 0-.2986-.222-.4479-.445-.4479-.963-.1493-1.852-.224-2.816-.3733-.593-.0746-.889-.1493-1.038-.6719-.074-.3733-.074-.7465-.148-1.0452-.37-1.2691-1.482-2.0903-2.742-2.165-.741.0747-.741.9705-.148 1.0452Z"/><path d="M205.423 77.5875c2.223-.224 3.113 2.0157 3.483 3.8074 0 .0747.075.1494.149.1494.667 0 1.334.0746 1.927.1493.296 0 .593 0 .889.0746.222 0 .445.0747.593.1493.296.0747.371.224.222.5226.149.5226 0 1.2692.074 1.7918.075.7465.149 1.4184.223 2.165 0 .0747.074.1493.148.1493 2.149.3733 3.928 2.0904 4.373 4.2554.519 2.3144-.815 5.1513-3.41 5.3753-.222 0-.222.3732 0 .3732 3.113-.2239 4.522-3.8074 3.558-6.5697-.519-1.3438-1.482-2.5383-2.742-3.2102-.297-.1493-.667-.2986-.964-.4479-.148-.0747-.37-.0747-.519-.1494-.222-.2239-.222-.6719-.222-.8958-.148-1.1945-.148-2.389-.148-3.5835 0-.0747-.074-.1493-.148-.1493-.964-.1494-1.927-.224-2.891-.2987-.741-.0746-.889-.0746-1.112-.8212-.074-.3733-.222-.6719-.37-1.0452-.593-1.2691-1.779-2.3143-3.261-2.165-.074 0-.074.3733.148.3733ZM198.605 92.0708c-.371-.0747-.741-.1494-1.112-.2987-.148-.0746-.371-.0746-.519-.1493-.148-.0746-.37-.0746-.519-.1493-.148-.0746-.148-.224-.222-.3733-.074-.1493-.148-.3733-.222-.5226-.149-.3732-.223-.7465-.371-1.1198-.074-.224-.445-.1493-.37.0747.148.3732.296.8212.444 1.1945.074.2239.148.3732.223.5972.074.1493.148.2986.296.4479.148.0747.296.1493.445.1493.222.0747.444.0747.593.1494.444.0746.815.2239 1.26.2986.222.0746.296-.2986.074-.2986ZM201.644 83.8586c.667.0746 1.408 0 2.075-.224.074 0 .148-.1493.074-.2986-.445-.6719-.667-1.4932-.519-2.389.074-.3733.149-.8212.371-1.1199.222-.2986.667-.5972 1.037-.3733.223.0747.371-.2239.223-.2986-.445-.1493-.89-.0746-1.26.224-.371.2986-.593.7466-.667 1.2691-.222.9706 0 2.0904.519 2.9116 0-.0746.074-.1493.074-.2986-.667.224-1.26.224-1.927.1493-.297.0747-.223.448 0 .448Z"/><path d="M198.012 90.2043c.741-.1493 1.556 0 2.298.3733.592.2986 1.185.8959 1.185 1.5678 0 .7465-.741 1.3438-1.26 1.7171-.593.3733-1.334.5972-2.001.5226-.222 0-.222.3732 0 .3732 1.26 0 2.668-.5972 3.41-1.6424.815-1.1945-.223-2.4636-1.334-2.9862-.742-.2987-1.557-.448-2.298-.2987-.297.0747-.222.3733 0 .3733ZM204.089 99.5364c-.074-1.1945.074-2.5383 1.186-3.2102.519-.2987 1.038-.3733 1.63-.1494.519.224.964.672 1.335 1.1199.148.1493.444-.0747.296-.2986-.445-.5226-.963-.9706-1.631-1.1945-.592-.224-1.185-.1493-1.778.1493-1.26.7465-1.557 2.2397-1.408 3.5835 0 .2986.37.2986.37 0Z"/><path d="M198.457 92.2947c-.445.5226-1.26.4479-1.705 1.1198-.445.5973-.37 1.4932-.37 2.1651-.075 2.0157-.075 4.0314.296 6.0474.074.224.371.149.371-.075-.297-1.8663-.297-3.7327-.297-5.5992 0-.7465-.074-1.6424.297-2.3143.37-.5973 1.185-.5226 1.63-1.0452.222-.224 0-.4479-.222-.2986ZM198.308 101.925c.223 0 .223-.373 0-.373-.222 0-.222.373 0 .373Z"/><path d="M197.271 102c2.371-.597 4.817-.747 7.263-.523.222 0 .222-.373 0-.373-2.446-.298-4.966-.074-7.412.523-.222.074-.148.448.149.373ZM206.758 98.7152c.074.7466.222 1.4928.444 2.2398 0 .075.149.149.223.149 1.186-.224 2.297-.298 3.483-.224.223 0 .223-.373 0-.373-1.186 0-2.371.075-3.557.224.074.075.148.075.222.149-.222-.672-.296-1.4183-.445-2.0902-.074-.2986-.444-.2986-.37-.0746ZM214.169 95.8782c.148 1.1945.371 2.3144.519 3.5089 0 .2239.37.1493.37-.0747-.148-1.1945-.37-2.3143-.518-3.5088 0-.224-.371-.1493-.371.0746ZM198.828 84.1571c.889-.2239 1.852-.3733 2.816-.2986.222 0 .222-.3733 0-.3733-.964 0-1.927.0747-2.891.3733-.222 0-.148.3733.075.2986Z"/><path d="M198.308 84.3065c1.409.0747 2.891.0747 4.299-.0746.222 0 .222-.3733 0-.3733-1.408.0746-2.89.1493-4.299.0746-.222 0-.222.3733 0 .3733ZM206.461 79.3793c.223-.0747.223-.2987.075-.448-.149-.1493-.445 0-.445.224 0 .0746.074.224.148.2986.074.0747.148.0747.148.224v.2986c0 .3733.074.7466.074 1.1198 0 .3733.075.7466.075 1.1199 0 .2986 0 .6719.148.9705.296.448.889.448 1.408.448h2.594c.222 0 .222-.3733 0-.3733h-3.113c-.222 0-.519-.0747-.667-.3733-.148-.2986-.074-.6719-.074-.9705 0-.3733-.074-.6719-.074-1.0452 0-.3733-.074-.6719-.074-1.0452 0-.1493 0-.2986-.074-.4479 0-.0747-.074-.0747-.074-.1494l-.075-.0746c-.074-.0747-.148-.0747-.296 0v-.1493l.074-.0747c-.074.1493 0 .5226.222.448Z"/></g><rect x="20" y="64" width="129" height="30" rx="5" fill="#EAF6E8"/><path opacity=".5" d="M28.5624 79.45c0-.8927.1994-1.69.598-2.392.4074-.7107.9577-1.261 1.651-1.651.702-.3987 1.4864-.598 2.353-.598 1.014 0 1.9024.26 2.665.78.7627.52 1.2957 1.2393 1.599 2.158h-2.093c-.208-.4333-.5026-.7583-.884-.975-.3726-.2167-.806-.325-1.3-.325-.5286 0-1.001.1257-1.417.377-.4073.2427-.728.5893-.962 1.04-.2253.4507-.338.9793-.338 1.586 0 .598.1127 1.1267.338 1.586.234.4507.5547.8017.962 1.053.416.2427.8884.364 1.417.364.494 0 .9274-.1083 1.3-.325.3814-.2253.676-.5547.884-.988h2.093c-.3033.9273-.8363 1.651-1.599 2.171-.754.5113-1.6423.767-2.665.767-.8666 0-1.651-.195-2.353-.585-.6933-.3987-1.2436-.949-1.651-1.651-.3986-.702-.598-1.4993-.598-2.392ZM44.6629 84l-2.002-3.536h-.858V84h-1.82v-9.074h3.406c.702 0 1.3.1257 1.794.377.494.2427.8624.5763 1.105 1.001.2514.416.377.884.377 1.404 0 .598-.1733 1.1397-.52 1.625-.3466.4767-.8623.806-1.547.988L46.7689 84h-2.106Zm-2.86-4.901h1.521c.494 0 .8624-.117 1.105-.351.2427-.2427.364-.5763.364-1.001 0-.416-.1213-.7367-.364-.962-.2426-.234-.611-.351-1.105-.351h-1.521v2.665Zm9.3282-2.704v2.275h3.055v1.443h-3.055v2.405h3.445V84h-5.265v-9.087h5.265v1.482h-3.445Zm11.6629 5.876H59.18L58.582 84h-1.911l3.263-9.087h2.119L65.316 84h-1.924l-.598-1.729Zm-.494-1.456-1.313-3.796-1.313 3.796H62.3Zm11.4107-5.889v1.469h-2.418V84h-1.82v-7.605h-2.418v-1.469h6.656Zm4.1479 1.469v2.275h3.055v1.443h-3.055v2.405h3.445V84h-5.265v-9.087h5.265v1.482h-3.445Zm15.7606 5.876h-3.614L89.4072 84h-1.911l3.263-9.087h2.119L96.1412 84h-1.924l-.598-1.729Zm-.494-1.456-1.313-3.796-1.313 3.796h2.626Zm11.8528-3.081c0 .4853-.117.9403-.351 1.365-.225.4247-.585.767-1.079 1.027-.485.26-1.101.39-1.846.39h-1.521V84h-1.8201v-9.074h3.3411c.702 0 1.3.1213 1.794.364.494.2427.862.5763 1.105 1.001.251.4247.377.9057.377 1.443Zm-3.354 1.313c.503 0 .875-.1127 1.118-.338.243-.234.364-.559.364-.975 0-.884-.494-1.326-1.482-1.326h-1.443v2.639h1.443Zm7.466-4.121V84h-1.82v-9.074h1.82ZM121.108 84l-3.302-4.043V84h-1.82v-9.074h1.82v4.069l3.302-4.069h2.197l-3.744 4.498L123.409 84h-2.301Zm6.318-7.605v2.275h3.055v1.443h-3.055v2.405h3.445V84h-5.265v-9.087h5.265v1.482h-3.445Zm13.314-1.469-3.068 5.915V84h-1.82v-3.159l-3.081-5.915h2.054l1.95 4.147 1.937-4.147h2.028Z" fill="#45BE31"/><defs><clipPath id="a"><path fill="#fff" transform="translate(109 3)" d="M0 0h134v99H0z"/></clipPath></defs></svg>