<svg width="20" height="20" fill="none" xmlns="http://www.w3.org/2000/svg"><path d="M9.40002 4.00625s-.8-.1-1.5.5c-.8.5-1.2 1.3-1.3 2.2 0 1.1.4 2.7-1.2 3.1" stroke="#2C3141" stroke-width=".75" stroke-miterlimit="10" stroke-linecap="round"/><path d="M9.40002 15.6062s-.8.1-1.5-.5c-.8-.6-1.2-1.3-1.3-2.2 0-1.2.4-2.7-1.2-3.09996" stroke="#2C3141" stroke-width=".75" stroke-miterlimit="10" stroke-linecap="round"/><path d="M5.5 4.50625c-.8.5-1.2 1.3-1.3 2.2 0 1.1.4 2.7-1.2 3.1" stroke="#2C3141" stroke-width=".75" stroke-miterlimit="10" stroke-linecap="round"/><path d="M5.5 15.1062c-.8-.6-1.2-1.3-1.3-2.2 0-1.2.4-2.7-1.2-3.09996" stroke="#2C3141" stroke-width=".75" stroke-miterlimit="10" stroke-linecap="round"/><path d="M11.3 15.6062s.8.1 1.5-.5c.8-.6 1.2-1.3 1.3-2.2.1-1.2-.3-2.7 1.3-3.09996" stroke="#2C3141" stroke-width=".75" stroke-miterlimit="10" stroke-linecap="round"/><path d="M11.3 4.00625s.8-.1 1.5.5c.8.6 1.2 1.3 1.3 2.2.1 1.2-.3 2.7 1.3 3.1" stroke="#2C3141" stroke-width=".75" stroke-miterlimit="10" stroke-linecap="round"/><path d="M15.2 15.1062c.8-.6 1.2-1.3 1.3-2.2.1-1.2-.3-2.7 1.3-3.09996" stroke="#2C3141" stroke-width=".75" stroke-miterlimit="10" stroke-linecap="round"/><path d="M15.2 4.50625c.8.6 1.2 1.3 1.3 2.2.1 1.2-.3 2.7 1.3 3.1" stroke="#2C3141" stroke-width=".75" stroke-miterlimit="10" stroke-linecap="round"/></svg>