<svg width="20" height="20" fill="none" xmlns="http://www.w3.org/2000/svg"><path d="M8.2 11.9v2.9c0 .7-.1 1.3-.3 1.3H5.3c-.2 0-.3-.6-.3-1.3V5.3c0-.7.1-1.3.3-1.3h2.6c.2 0 .3.6.3 1.3V9" stroke="#2C3141" stroke-width=".75" stroke-miterlimit="10" stroke-linecap="round" stroke-linejoin="round"/><path d="M14.9 11.9v2.9c0 .7-.1 1.3-.3 1.3H12c-.2 0-.3-.6-.3-1.3V5.3c0-.7.1-1.3.3-1.3h2.6c.2 0 .3.6.3 1.3V9" stroke="#2C3141" stroke-width=".75" stroke-miterlimit="10" stroke-linecap="round" stroke-linejoin="round"/></svg>