<svg width="16" height="16" viewBox="0 0 16 16" fill="none" xmlns="http://www.w3.org/2000/svg">
<path d="M15.0504 15.268C14.9212 15.268 14.835 15.2249 14.7489 15.1387L11.8626 12.252C11.6903 12.0796 11.6903 11.8211 11.8626 11.6488C12.0349 11.4764 12.2934 11.4764 12.4657 11.6488L15.3519 14.5355C15.5243 14.7078 15.5243 14.9664 15.3519 15.1387C15.2658 15.2249 15.1366 15.268 15.0504 15.268Z" fill="#131313"/>
<path d="M7.46874 14.4498C3.63481 14.4498 0.533203 11.3476 0.533203 7.51302C0.533203 3.67843 3.63481 0.533203 7.46874 0.533203C11.3027 0.533203 14.4043 3.63534 14.4043 7.46994C14.4043 8.07313 14.3181 8.71941 14.1458 9.3226C14.1027 9.53803 13.8443 9.66729 13.6289 9.6242C13.4135 9.58111 13.2843 9.3226 13.3273 9.10718C13.4566 8.59015 13.5427 8.03004 13.5427 7.51302C13.5427 4.15237 10.8288 1.43799 7.46874 1.43799C4.10867 1.43799 1.39476 4.15237 1.39476 7.51302C1.39476 10.8737 4.10867 13.588 7.46874 13.588C9.14878 13.588 10.6996 12.8987 11.8627 11.6923C12.035 11.52 12.2935 11.52 12.4658 11.6923C12.6381 11.8646 12.6381 12.1231 12.4658 12.2955C11.1734 13.6742 9.36417 14.4498 7.46874 14.4498Z" fill="#131313"/>
</svg>
