<svg width="20" height="20" fill="none" xmlns="http://www.w3.org/2000/svg"><path d="M8.6841 15.1129c-2.91936-.0512-3.91648-.0973-4.5294-.2176-.41465-.0798-.775-.2572-1.0392-.5145-.20417-.1948-.36659-.4918-.49258-.9041-.10811-.3434-.15019-.6291-.21015-1.3271-.09186-1.5751-.11375-2.86297 0-4.30195.09383-.79467.13933-1.73791.76277-2.2883.29431-.25754.63678-.42329 1.02124-.49181.60069-.10862 3.1597-.19449 5.80882-.19449 2.6433 0 5.208.08587 5.8092.19449.4804.08588.9309.34316 1.1953.67493.5688.85206.5788 1.91154.6366 2.74034.0238.3949.0238 2.63709 0 3.03199-.0899 1.3097-.1621 1.7732-.3664 2.2536-.1262.3033-.2341.4634-.4206.6408-.2926.273-.6656.4546-1.0693.5205-2.5263.181-4.6716.2203-7.1063.1832Zm3.8736-5.13458c-1.4054-.71521-2.4967-1.3785-3.86522-2.06506v4.10744c1.36852-.7494 2.71202-1.436 3.87122-2.04802l-.006.00564Z" stroke="#80838D" stroke-width=".75" stroke-miterlimit="1" stroke-linecap="round" stroke-linejoin="round"/></svg>