<svg width="24" height="24" fill="none" xmlns="http://www.w3.org/2000/svg"><path d="M9.00004 7.1407c-.48 0-.96-.48-.96-.96s.48-.96.96-.96.96.48.96.96-.48.96-.96.96ZM9.00004 13.0216c-.48 0-.96-.48-.96-.96s.48-.96.96-.96.96.48.96.96-.32.96-.96.96ZM9.00004 18.7813c-.48 0-.96-.443-.96-1.0338s.48-.8862.96-.8862.96.4431.96.8862-.32 1.0338-.96 1.0338ZM15 7.1407c-.48 0-.96-.48-.96-.96s.48-.96.96-.96.96.48.96.96-.48.96-.96.96ZM15 13.0216c-.48 0-.96-.48-.96-.96s.48-.96.96-.96.96.48.96.96-.32.96-.96.96ZM15 18.7813c-.48 0-.96-.443-.96-1.0338s.48-.8862.96-.8862.96.4431.96.8862-.32 1.0338-.96 1.0338Z" fill="#2C3141"/></svg>