<svg width="20" height="20" fill="none" xmlns="http://www.w3.org/2000/svg"><path d="M15.2 13.8c-1.2 1.6-3.1 2.6-5.20002 2.6-3.6 0-6.4-2.9-6.4-6.4 0-3.49999 2.9-6.39999 6.4-6.39999C13.5 3.60001 16.4 6.50001 16.4 10c0 .4 0 .8-.1 1.2" stroke="#2C3141" stroke-width=".75" stroke-miterlimit="10" stroke-linecap="round" stroke-linejoin="round"/><path d="M10 12.6v.4" stroke="#2C3141" stroke-width=".75" stroke-miterlimit="10" stroke-linecap="round" stroke-linejoin="round"/><path d="M10 10.8377c0-.85041.8-1.00309 1.3-1.75898.1-.18898.2-.37795.2-.66141C11.5 7.66141 10.8 7 10 7s-1.5.66141-1.5 1.51179" stroke="#2C3141" stroke-width=".75" stroke-miterlimit="10" stroke-linecap="round" stroke-linejoin="round"/></svg>