<svg width="20" height="20" fill="none" xmlns="http://www.w3.org/2000/svg"><path d="M11.47 11.59c-.1946.1988-.4284.3549-.6867.4582s-.5353.1516-.8133.1418c-.28277-.0052-.56171-.0663-.82069-.18-.25898-.1136-.49287-.2775-.68814-.482-.19528-.2046-.34807-.4459-.44954-.7098-.10147-.264-.14961-.5455-.14163-.8282-.00722-.28202.04384-.56248.14999-.82386.10615-.26137.26511-.49802.46692-.69514.20181-.19711.44214-.35046.70593-.45043.2638-.09998.54539-.14443.82716-.13057.4921-.00132.9697.16703 1.3522.47669.3825.30965.6466.74168.7478 1.22331m4.2 1.34-1.3.16c-.1289.5744-.3555 1.1223-.67 1.62l1.08 1.38-1.4 1.3-1.31-1c-.4824.3047-1.0134.5245-1.57.65l-.13 1.65H9.07l-.2-1.7c-.39273-.08-.77515-.2041-1.14-.37-.17649-.0905-.34392-.1976-.5-.32l-1.36 1.09-1.3-1.3 1.08-1.38c-.30045-.5003-.51349-1.0482-.63-1.62l-1.71-.2v-1.9l1.71-.2c.11896-.54142.33585-1.05655.64-1.52L4.57 5.89l1.3-1.3 1.36 1.07c.50089-.32213 1.05683-.54925 1.64-.67l.2-1.68h1.95l.15 1.68c.5539.11879 1.0822.33553 1.56.64l1.44-1 1.3 1.3-1.08 1.34c.3004.50032.5135 1.04815.63 1.62l1.67.1V10.9l-.37.03Z" stroke="#2C3141" stroke-width=".75" stroke-linecap="round" stroke-linejoin="round"/></svg>